<?xml version="1.0" encoding="UTF-8"?>
<svg width="245px" height="171px" viewBox="0 0 245 171" version="1.1" xmlns="http://www.w3.org/2000/svg" xmlns:xlink="http://www.w3.org/1999/xlink">
    <!-- Generator: Sketch 51.1 (57501) - http://www.bohemiancoding.com/sketch -->
    <title>Group 8 Copy</title>
    <desc>Created with Sketch.</desc>
    <defs>
        <linearGradient x1="17.1826353%" y1="102.450754%" x2="88.0130389%" y2="19.3997948%" id="linearGradient-1">
            <stop stop-color="#FDC4B6" stop-opacity="0.3" offset="0%"></stop>
            <stop stop-color="#F9927F" offset="100%"></stop>
        </linearGradient>
        <polygon id="path-2" points="0 0 7.9741125 0 7.9741125 7.76341743 0 7.76341743"></polygon>
        <polygon id="path-4" points="0 0 3.00327273 0 3.00327273 3.01418406 0 3.01418406"></polygon>
        <polygon id="path-6" points="0 0 1.89184091 0 1.89184091 1.89962352 0 1.89962352"></polygon>
    </defs>
    <g id="Field---Manage-Eposide" stroke="none" stroke-width="1" fill="none" fill-rule="evenodd">
        <g id="Group-8-Copy" transform="translate(-38.000000, -25.000000)">
            <path d="M97.589186,68.0151376 C93.0005593,84.3337108 71.0705139,81.6202169 58.9507567,90.9280024 C49.1894325,98.4249346 39.7195607,107.332939 34.1936229,119.522767 C28.6676852,131.713988 27.9227328,147.844511 35.0038607,158.825247 C39.9772046,166.535302 47.9851511,170.664048 55.9826054,172.522262 C75.4632846,177.049395 95.3088624,169.903489 114.869983,165.902897 C134.431103,161.903697 156.689906,161.937128 171.514342,177.704088 C177.138208,183.686868 181.248853,191.539006 187.112875,197.184689 C198.510996,208.15846 214.6936,209.003989 229.028395,205.458895 C251.175281,199.980368 273.438748,181.774328 276.677367,155.02942 C278.097324,143.302056 275.714409,131.434003 273.091337,120.007519 C269.70466,105.249065 265.74557,90.2955967 258.015087,78.096018 C247.987958,62.27334 232.668053,52.6827828 217.602295,44.3208199 C204.598854,37.1038735 191.071965,30.3229247 176.768646,29.1444772 C160.743427,27.8239473 144.956032,33.6242494 129.756206,39.828511 C129.756206,39.828511 103.459038,47.1387861 97.589186,68.0151376" id="Fill-1" fill-opacity="0.3" fill="url(#linearGradient-1)" transform="translate(153.486487, 118.141530) rotate(-15.000000) translate(-153.486487, -118.141530) "></path>
            <g id="change" transform="translate(116.000000, 66.000000)" fill="#0073B9" fill-rule="nonzero">
                <path d="M34.4767671,86.4650875 C33.3789297,85.3556768 31.6037032,85.3556768 30.5058657,86.4650875 C29.4080283,87.5744983 29.4080283,89.368439 30.5058657,90.4778498 L33.6825868,93.6880596 L20.7888365,93.6880596 C12.4032272,93.6880596 5.60597839,86.7955503 5.60597839,78.3451451 L5.60597839,68.8325381 C5.60597839,67.2746421 4.34463325,66 2.80298919,66 C1.26134514,66 0,67.2746421 0,68.8325381 L0,78.3451451 C0,89.9349466 9.31993907,99.3531357 20.7888365,99.3531357 L33.6825868,99.3531357 L30.5058657,102.563346 C29.4080283,103.672756 29.4080283,105.466697 30.5058657,106.576108 C31.0431053,107.119011 31.7672109,107.402265 32.4913164,107.402265 C33.2154219,107.402265 33.9161692,107.119011 34.4767671,106.576108 L42.441928,98.5269788 C43.5397655,97.417568 43.5397655,95.6236273 42.441928,94.5142165 L34.4767671,86.4650875 Z" id="Shape"></path>
                <path d="M49.1005455,0 L2.81782184,0 C1.26801983,0 0,1.27728189 0,2.83840421 L0,49.4591933 C0,51.0203156 1.26801983,52.2975975 2.81782184,52.2975975 L49.1005455,52.2975975 C50.6503475,52.2975975 51.9183673,51.0203156 51.9183673,49.4591933 L51.9183673,2.83840421 C51.9183673,1.27728189 50.6738294,0 49.1005455,0 Z M45.64708,46.9439807 L5,46.9439807 L5,6 L45.64708,6 L45.64708,46.9439807 Z" id="Shape"></path>
                <path d="M84.4531114,8.05388219 L71.5593611,8.05388219 L74.7360822,4.84412987 C75.8339196,3.73487723 75.8339196,1.94119212 74.7360822,0.831939479 C73.6382447,-0.27731316 71.8630182,-0.27731316 70.7651808,0.831939479 L62.8233781,8.87992139 C61.7255406,9.98917403 61.7255406,11.7828591 62.8233781,12.8921118 L70.788539,20.9400937 C71.3257786,21.4829195 72.0498842,21.7661329 72.7739897,21.7661329 C73.4980953,21.7661329 74.1988426,21.4829195 74.7594404,20.9400937 C75.8572778,19.8308411 75.8572778,18.0371559 74.7594404,16.9279033 L71.5827193,13.718151 L84.4764696,13.718151 C92.8620789,13.718151 99.6593277,20.609678 99.6593277,29.058879 L99.6593277,38.5701303 C99.6593277,40.1278042 100.920673,41.4022647 102.462317,41.4022647 C104.003961,41.4022647 105.265306,40.1278042 105.265306,38.5701303 L105.265306,29.058879 C105.265306,17.4707291 95.9220088,8.05388219 84.4531114,8.05388219 Z" id="Shape"></path>
                <path d="M102.884354,101 C102.115193,101 101.370068,101.314754 100.84127,101.847415 C100.312472,102.380075 100,103.130643 100,103.905422 C100,104.655989 100.312472,105.430769 100.84127,105.963429 C101.370068,106.49609 102.115193,106.810844 102.884354,106.810844 C103.653515,106.810844 104.398639,106.49609 104.927438,105.963429 C105.456236,105.430769 105.768707,104.680201 105.768707,103.905422 C105.768707,103.130643 105.456236,102.380075 104.927438,101.847415 C104.374603,101.314754 103.629478,101 102.884354,101 Z" id="Shape"></path>
                <path d="M90.8843537,101 C89.2979592,101 88,102.30744 88,103.905422 C88,105.503404 89.2979592,106.810844 90.8843537,106.810844 C92.4707483,106.810844 93.7687075,105.503404 93.7687075,103.905422 C93.7687075,102.30744 92.4707483,101 90.8843537,101 Z" id="Shape"></path>
                <path d="M67.8843537,101 C66.2979592,101 65,102.30744 65,103.905422 C65,105.503404 66.2979592,106.810844 67.8843537,106.810844 C69.4707483,106.810844 70.7687075,105.503404 70.7687075,103.905422 C70.7687075,102.30744 69.4947846,101 67.8843537,101 Z" id="Shape"></path>
                <path d="M79.8843537,101 C78.2979592,101 77,102.30744 77,103.905422 C77,105.503404 78.2979592,106.810844 79.8843537,106.810844 C81.4707483,106.810844 82.7687075,105.503404 82.7687075,103.905422 C82.7687075,102.30744 81.4707483,101 79.8843537,101 Z" id="Shape"></path>
                <path d="M56.8843537,101 C56.1151927,101 55.370068,101.314754 54.8412698,101.847415 C54.3124717,102.380075 54,103.130643 54,103.905422 C54,104.655989 54.3124717,105.430769 54.8412698,105.963429 C55.370068,106.49609 56.1151927,106.810844 56.8843537,106.810844 C57.6294785,106.810844 58.3986395,106.49609 58.9274376,105.963429 C59.4562358,105.430769 59.7687075,104.680201 59.7687075,103.905422 C59.7687075,103.130643 59.4562358,102.380075 58.9274376,101.847415 C58.3986395,101.314754 57.6292381,101 56.8843537,101 Z" id="Shape"></path>
                <path d="M56.8843537,90 C55.2979592,90 54,91.3074399 54,92.9054221 C54,94.5034042 55.2979592,95.8108442 56.8843537,95.8108442 C58.4707483,95.8108442 59.7687075,94.5034042 59.7687075,92.9054221 C59.7687075,91.3074399 58.4705079,90 56.8843537,90 Z" id="Shape"></path>
                <path d="M56.8843537,78 C55.2979592,78 54,79.3074399 54,80.9054221 C54,82.5034042 55.2979592,83.8108442 56.8843537,83.8108442 C58.4707483,83.8108442 59.7687075,82.5034042 59.7687075,80.9054221 C59.7687075,79.3074399 58.4705079,78 56.8843537,78 Z" id="Shape"></path>
                <path d="M56.8843537,66 C55.2979592,66 54,67.3074399 54,68.9054221 C54,70.5034042 55.2979592,71.8108442 56.8843537,71.8108442 C58.4707483,71.8108442 59.7687075,70.5034042 59.7687075,68.9054221 C59.7687075,67.3074399 58.4705079,66 56.8843537,66 Z" id="Shape"></path>
                <path d="M56.8843537,55 C56.1151927,55 55.370068,55.3147541 54.8412698,55.8474148 C54.3124717,56.3800755 54,57.1306429 54,57.9054221 C54,58.6802013 54.3124717,59.4307687 54.8412698,59.9634294 C55.370068,60.4960901 56.1151927,60.8108442 56.8843537,60.8108442 C57.6294785,60.8108442 58.3986395,60.4960901 58.9274376,59.9634294 C59.4562358,59.4307687 59.7687075,58.6802013 59.7687075,57.9054221 C59.7687075,57.1548547 59.4562358,56.3800755 58.9274376,55.8474148 C58.3743628,55.2905422 57.6292381,55 56.8843537,55 Z" id="Shape"></path>
                <path d="M90.8843537,55 C89.2979592,55 88,56.3074399 88,57.9054221 C88,59.5034042 89.2979592,60.8108442 90.8843537,60.8108442 C92.4707483,60.8108442 93.7687075,59.5034042 93.7687075,57.9054221 C93.7687075,56.3074399 92.4707483,55 90.8843537,55 Z" id="Shape"></path>
                <path d="M79.8843537,55 C78.2979592,55 77,56.3074399 77,57.9054221 C77,59.5034042 78.2979592,60.8108442 79.8843537,60.8108442 C81.4707483,60.8108442 82.7687075,59.5034042 82.7687075,57.9054221 C82.7687075,56.3074399 81.4707483,55 79.8843537,55 Z" id="Shape"></path>
                <path d="M67.8843537,55 C66.2979592,55 65,56.3074399 65,57.9054221 C65,59.5034042 66.2979592,60.8108442 67.8843537,60.8108442 C69.4707483,60.8108442 70.7687075,59.5034042 70.7687075,57.9054221 C70.7687075,56.3074399 69.4947846,55 67.8843537,55 Z" id="Shape"></path>
                <path d="M102.884354,55 C102.115193,55 101.370068,55.3147541 100.84127,55.8474148 C100.312472,56.3800755 100,57.1306429 100,57.9054221 C100,58.6802013 100.312472,59.4307687 100.84127,59.9634294 C101.370068,60.4960901 102.115193,60.8108442 102.884354,60.8108442 C103.653515,60.8108442 104.398639,60.4960901 104.927438,59.9634294 C105.456236,59.4307687 105.768707,58.6802013 105.768707,57.9054221 C105.768707,57.1548547 105.456236,56.3800755 104.927438,55.8474148 C104.374603,55.3147541 103.629478,55 102.884354,55 Z" id="Shape"></path>
                <path d="M102.884354,66 C101.297959,66 100,67.3074399 100,68.9054221 C100,70.5034042 101.297959,71.8108442 102.884354,71.8108442 C104.470748,71.8108442 105.768707,70.5034042 105.768707,68.9054221 C105.768707,67.3074399 104.470748,66 102.884354,66 Z" id="Shape"></path>
                <path d="M102.884354,90 C101.297959,90 100,91.3074399 100,92.9054221 C100,94.5034042 101.297959,95.8108442 102.884354,95.8108442 C104.470748,95.8108442 105.768707,94.5034042 105.768707,92.9054221 C105.768707,91.3074399 104.470748,90 102.884354,90 Z" id="Shape"></path>
                <path d="M102.884354,78 C101.297959,78 100,79.3074399 100,80.9054221 C100,82.5034042 101.297959,83.8108442 102.884354,83.8108442 C104.470748,83.8108442 105.768707,82.5034042 105.768707,80.9054221 C105.768707,79.3074399 104.470748,78 102.884354,78 Z" id="Shape"></path>
            </g>
            <g id="Group-72-Copy-2" transform="translate(78.000000, 43.000000)">
                <path d="M8.63636364,106.821468 C8.63636364,107.275684 8.27009724,107.642935 7.81849327,107.642935 C7.36626639,107.642935 7,107.275684 7,106.821468 C7,106.367252 7.36626639,106 7.81849327,106 C8.27009724,106 8.63636364,106.367252 8.63636364,106.821468" id="Fill-1" fill="#0073B9"></path>
                <path d="M157.016037,16.9369585 L155.255824,16.9369585 L155.255824,15.17038 C155.255824,14.523774 154.734686,14 154.090621,14 C153.446556,14 152.923686,14.523774 152.923686,15.17038 L152.923686,16.9369585 L151.164626,16.9369585 C150.521139,16.9369585 150,17.4607325 150,18.1067591 C150,18.7539445 150.521139,19.2771391 151.164626,19.2771391 L152.923686,19.2771391 L152.923686,21.0437176 C152.923686,21.690903 153.446556,22.214677 154.090621,22.214677 C154.734686,22.214677 155.255824,21.690903 155.255824,21.0437176 L155.255824,19.2771391 L157.016037,19.2771391 C157.660102,19.2771391 158.181818,18.7539445 158.181818,18.1067591 C158.181818,17.4607325 157.660102,16.9369585 157.016037,16.9369585" id="Fill-3" fill="#0073B9"></path>
                <g id="Group-7" transform="translate(171.000000, 62.000000)">
                    <mask id="mask-3" fill="white">
                        <use xlink:href="#path-2"></use>
                    </mask>
                    <g id="Clip-6"></g>
                    <path d="M7.75538845,2.14742021 L5.80920568,2.14742021 L5.80920568,0.253875575 C5.80920568,-0.438581714 5.23319682,-1 4.52195663,-1 C3.80944068,-1 3.23215605,-0.438581714 3.23215605,0.253875575 L3.23215605,2.14742021 L1.28788693,2.14742021 C0.576646748,2.14742021 0,2.70945954 0,3.40129579 C0,4.09437411 0.576646748,4.65641344 1.28788693,4.65641344 L3.23215605,4.65641344 L3.23215605,6.54995808 C3.23215605,7.2430364 3.80944068,7.80383365 4.52195663,7.80383365 C5.23319682,7.80383365 5.80920568,7.2430364 5.80920568,6.54995808 L5.80920568,4.65641344 L7.75538845,4.65641344 C8.46535287,4.65641344 9.04327538,4.09437411 9.04327538,3.40129579 C9.04327538,2.70945954 8.46535287,2.14742021 7.75538845,2.14742021" id="Fill-5" fill="#0073B9" mask="url(#mask-3)"></path>
                </g>
                <path d="M25.0161197,136.937373 L23.2566075,136.937373 L23.2566075,135.169966 C23.2566075,134.525007 22.7343516,134 22.0909091,134 C21.4468895,134 20.9252106,134.525007 20.9252106,135.169966 L20.9252106,136.937373 L19.1656985,136.937373 C18.522256,136.937373 18,137.460641 18,138.107918 C18,138.754036 18.522256,139.279043 19.1656985,139.279043 L20.9252106,139.279043 L20.9252106,141.045291 C20.9252106,141.691409 21.4468895,142.214677 22.0909091,142.214677 C22.7343516,142.214677 23.2566075,141.691409 23.2566075,141.045291 L23.2566075,139.279043 L25.0161197,139.279043 C25.6589851,139.279043 26.1818182,138.754036 26.1818182,138.107918 C26.1818182,137.460641 25.6589851,136.937373 25.0161197,136.937373" id="Fill-8" fill="#0073B9"></path>
                <path d="M169.016037,128.937373 L167.256978,128.937373 L167.256978,127.169966 C167.256978,126.523268 166.734686,126 166.090621,126 C165.446556,126 164.923686,126.523268 164.923686,127.169966 L164.923686,128.937373 L163.164626,128.937373 C162.521139,128.937373 162,129.460641 162,130.107918 C162,130.754036 162.521139,131.277304 163.164626,131.277304 L164.923686,131.277304 L164.923686,133.043552 C164.923686,133.691409 165.446556,134.214677 166.090621,134.214677 C166.734686,134.214677 167.256978,133.691409 167.256978,133.043552 L167.256978,131.277304 L169.016037,131.277304 C169.659525,131.277304 170.181818,130.754036 170.181818,130.107918 C170.181818,129.460641 169.659525,128.937373 169.016037,128.937373" id="Fill-10" fill="#0073B9"></path>
                <path d="M29.0161197,2.93679339 L27.2566075,2.93679339 L27.2566075,1.16996564 C27.2566075,0.523268436 26.7349286,0 26.0909091,0 C25.4474666,0 24.9252106,0.523268436 24.9252106,1.16996564 L24.9252106,2.93679339 L23.1662755,2.93679339 C22.522256,2.93679339 22,3.46064131 22,4.10675903 C22,4.75345623 22.522256,5.27730415 23.1662755,5.27730415 L24.9252106,5.27730415 L24.9252106,7.0441319 C24.9252106,7.69140858 25.4474666,8.21467702 26.0909091,8.21467702 C26.7349286,8.21467702 27.2566075,7.69140858 27.2566075,7.0441319 L27.2566075,5.27730415 L29.0161197,5.27730415 C29.6595622,5.27730415 30.1818182,4.75345623 30.1818182,4.10675903 C30.1818182,3.46064131 29.6595622,2.93679339 29.0161197,2.93679339" id="Fill-12" fill="#0073B9"></path>
                <path d="M7.0160375,61.9375379 L5.25697833,61.9375379 L5.25697833,60.17038 C5.25697833,59.523774 4.7346855,59 4.09119765,59 C3.44713268,59 2.92483985,59.523774 2.92483985,60.17038 L2.92483985,61.9375379 L1.16578068,61.9375379 C0.521715711,61.9375379 0,62.4613119 0,63.1067591 C0,63.7539445 0.521715711,64.2777185 1.16578068,64.2777185 L2.92483985,64.2777185 L2.92483985,66.0437176 C2.92483985,66.6903236 3.44713268,67.214677 4.09119765,67.214677 C4.7346855,67.214677 5.25697833,66.6903236 5.25697833,66.0437176 L5.25697833,64.2777185 L7.0160375,64.2777185 C7.65952535,64.2777185 8.18181818,63.7539445 8.18181818,63.1067591 C8.18181818,62.4613119 7.65952535,61.9375379 7.0160375,61.9375379" id="Fill-14" fill="#0073B9"></path>
                <path d="M25.4545455,47.2322016 C25.4545455,47.9129784 24.9053264,48.4644031 24.2277185,48.4644031 C23.5496648,48.4644031 23,47.9129784 23,47.2322016 C23,46.5514247 23.5496648,46 24.2277185,46 C24.9053264,46 25.4545455,46.5514247 25.4545455,47.2322016" id="Fill-16" fill="#0073B9"></path>
                <path d="M169.454545,97.2313064 C169.454545,97.9120832 168.905326,98.4644031 168.227273,98.4644031 C167.549219,98.4644031 167,97.9120832 167,97.2313064 C167,96.5505296 167.549219,96 168.227273,96 C168.905326,96 169.454545,96.5505296 169.454545,97.2313064" id="Fill-18" fill="#0073B9"></path>
                <g id="Group-22" transform="translate(137.000000, 148.000000)">
                    <mask id="mask-5" fill="white">
                        <use xlink:href="#path-4"></use>
                    </mask>
                    <g id="Clip-21"></g>
                    <path d="M3.00327273,1.50657176 C3.00327273,2.33954001 2.33127273,3.01423882 1.50163636,3.01423882 C0.673090909,3.01423882 0,2.33954001 0,1.50657176 C0,0.674151161 0.673090909,0 1.50163636,0 C2.33127273,0 3.00327273,0.674151161 3.00327273,1.50657176" id="Fill-20" fill="#0073B9" mask="url(#mask-5)"></path>
                </g>
                <g id="Group-63" transform="translate(101.000000, 4.000000)">
                    <mask id="mask-7" fill="white">
                        <use xlink:href="#path-6"></use>
                    </mask>
                    <g id="Clip-62"></g>
                    <path d="M1.89184091,0.950027397 C1.89184091,1.47494526 1.46904545,1.90005479 0.945613636,1.90005479 C0.423409091,1.90005479 0,1.47494526 0,0.950027397 C0,0.425109536 0.423409091,0 0.945613636,0 C1.46904545,0 1.89184091,0.425109536 1.89184091,0.950027397" id="Fill-61" fill="#0073B9" mask="url(#mask-7)"></path>
                </g>
            </g>
        </g>
    </g>
</svg>