<?xml version="1.0" encoding="UTF-8"?>
<svg width="504px" height="504px" viewBox="0 0 504 504" version="1.1" xmlns="http://www.w3.org/2000/svg" xmlns:xlink="http://www.w3.org/1999/xlink">
    <!-- Generator: Sketch 50.2 (55047) - http://www.bohemiancoding.com/sketch -->
    <title>Group 8</title>
    <desc>Created with Sketch.</desc>
    <defs></defs>
    <g id="Page-1" stroke="none" stroke-width="1" fill="none" fill-rule="evenodd">
        <g id="Group-8" fill="#FFFFFF">
            <g id="redo-alt" fill-rule="nonzero">
                <path d="M504,32.015 L504,160 C504,177.673 489.673,192 472,192 L344.032,192 C315.55,192 301.305,157.472 321.405,137.373 L375.022,83.749 C338.671,56.872 294.514,42 248,42 C129.589,42 34,137.974 34,256 C34,374.415 129.978,470 248,470 C301.682,470 352.151,450.203 391.108,415.116 C395.836,410.858 403.081,411.081 407.58,415.58 L414.659,422.659 C419.531,427.531 419.29,435.474 414.177,440.092 C370.202,479.813 311.926,504 248,504 C111.189,504 0.252,393.219 -4.36282954e-16,256.467 C-0.251,119.827 111.183,8.096 247.822,8 C304.843,7.96 357.367,27.177 399.278,59.489 L449.373,9.388 C469.436,-10.676 504,3.54 504,32.015 Z M472,32 L344,160 L472,160 L472,32 Z" id="Shape"></path>
            </g>
            <path d="M194.8,247 L172.4,263.2 L161.2,246.2 L201.4,217.2 L216.8,217.2 L216.8,354 L194.8,354 L194.8,247 Z M292.8,357.2 C286.1333,357.2 279.566699,355.833347 273.1,353.1 C266.633301,350.366653 260.933358,346.233361 256,340.7 C251.066642,335.166639 247.60001,328.333374 245.6,320.2 L265.4,312.4 C267.133342,319.600036 270.366643,325.399978 275.1,329.8 C279.833357,334.200022 285.666632,336.4 292.6,336.4 C300.066704,336.4 306.266642,334.033357 311.2,329.3 C316.133358,324.566643 318.6,318.466704 318.6,311 C318.6,303.533296 316.166691,297.366691 311.3,292.5 C306.433309,287.633309 300.200038,285.2 292.6,285.2 C288.333312,285.2 284.333352,286.133324 280.6,288 C276.866648,289.866676 273.800012,292.46665 271.4,295.8 L249.6,286.2 L258,217.2 L332.4,217.2 L332.4,237.2 L276.4,237.2 L271.4,273.2 L272.6,273.4 C279.533368,267.933306 287.599954,265.2 296.8,265.2 C304.533372,265.2 311.766633,267.133314 318.5,271 C325.233367,274.866686 330.59998,280.266632 334.6,287.2 C338.60002,294.133368 340.6,301.999956 340.6,310.8 C340.6,319.600044 338.533354,327.533298 334.4,334.6 C330.266646,341.666702 324.566703,347.19998 317.3,351.2 C310.033297,355.20002 301.866712,357.2 292.8,357.2 Z" id="15"></path>
        </g>
    </g>
</svg>