<?xml version="1.0" encoding="UTF-8"?>
<svg width="40px" height="35px" viewBox="0 0 40 35" version="1.1" xmlns="http://www.w3.org/2000/svg" xmlns:xlink="http://www.w3.org/1999/xlink">
    <!-- Generator: Sketch 51.1 (57501) - http://www.bohemiancoding.com/sketch -->
    <title>icon/image</title>
    <desc>Created with Sketch.</desc>
    <defs></defs>
    <g id="Field---Manage-Program" stroke="none" stroke-width="1" fill="none" fill-rule="evenodd">
        <g id="1.-form" transform="translate(-171.000000, -121.000000)" fill="#58595B">
            <g id="Group" transform="translate(129.000000, 80.000000)">
                <g id="icon/image" transform="translate(42.000000, 41.000000)">
                    <g id="photo">
                        <ellipse id="Oval" fill-rule="nonzero" cx="14.9905123" cy="11.327957" rx="2.73244782" ry="2.70967742"></ellipse>
                        <path d="M37.4193548,21.3010753 C36.1290323,20.0967742 34.4971537,19.3064516 32.7134725,19.0806452 L32.7134725,5.30645161 C32.7134725,3.83870968 32.1062619,2.52150538 31.1574953,1.54301075 C30.170778,0.564516129 28.8425047,0 27.3624288,0 L5.35104364,0 C3.87096774,0 2.5426945,0.602150538 1.55597723,1.54301075 C0.569259962,2.52150538 0,3.83870968 0,5.30645161 L0,22.655914 L0,24.2741935 L0,27.7741935 C0,29.2419355 0.607210626,30.5591398 1.55597723,31.5376344 C2.5426945,32.516129 3.87096774,33.0806452 5.35104364,33.0806452 L26.6413662,33.0806452 C28.0455408,34.2096774 29.7912713,34.9247312 31.7267552,34.9247312 C33.9658444,34.9247312 35.9772296,34.0215054 37.4193548,32.5913978 C38.8614801,31.1612903 39.772296,29.1666667 39.772296,26.9462366 C39.772296,24.7258065 38.8614801,22.7311828 37.4193548,21.3010753 Z M2.0113852,5.30645161 C2.0113852,4.40322581 2.39089184,3.57526882 2.99810247,2.97311828 C3.60531309,2.37096774 4.4402277,1.99462366 5.35104364,1.99462366 L27.3624288,1.99462366 C28.2732448,1.99462366 29.1081594,2.37096774 29.71537,2.97311828 C30.3225806,3.57526882 30.7020873,4.40322581 30.7020873,5.30645161 L30.7020873,17.0483871 L25.085389,11.516129 C24.7058824,11.1397849 24.0607211,11.1021505 23.6432638,11.516129 L15.1802657,19.9462366 L9.44971537,14.2258065 C9.07020873,13.8494624 8.42504744,13.811828 8.00759013,14.2258065 L2.0113852,20.2473118 L2.0113852,5.30645161 Z M5.31309298,31.1236559 L5.31309298,31.0860215 C4.40227704,31.0860215 3.56736243,30.7096774 2.9601518,30.1075269 C2.39089184,29.5053763 2.0113852,28.6774194 2.0113852,27.7741935 L2.0113852,24.2741935 L2.0113852,23.0698925 L8.76660342,16.3709677 L14.4971537,22.0537634 C14.8766603,22.4301075 15.5218216,22.4301075 15.9392789,22.0537634 L24.402277,13.6236559 L29.943074,19.155914 C29.829222,19.1935484 29.71537,19.2311828 29.601518,19.2688172 C29.4497154,19.3064516 29.2979127,19.344086 29.1081594,19.4193548 C28.9563567,19.4569892 28.8045541,19.5322581 28.6527514,19.5698925 C28.5388994,19.6075269 28.4629981,19.6451613 28.3491461,19.7204301 C28.1973435,19.7956989 28.0834915,19.8333333 27.9696395,19.9086022 C27.7798861,20.0215054 27.5901328,20.1344086 27.4003795,20.2473118 C27.2865275,20.3225806 27.2106262,20.3602151 27.0967742,20.4354839 C27.0208729,20.4731183 26.9829222,20.5107527 26.9070209,20.5483871 C26.5654649,20.7741935 26.2618596,21.0376344 25.9962049,21.3387097 C24.5540797,22.7688172 23.6432638,24.7634409 23.6432638,26.983871 C23.6432638,27.5483871 23.7191651,28.0752688 23.8330171,28.6397849 C23.8709677,28.7903226 23.9089184,28.9032258 23.9468691,29.0537634 C24.0607211,29.4301075 24.1745731,29.8064516 24.3263757,30.1827957 L24.3263757,30.2204301 C24.4781784,30.5215054 24.629981,30.8602151 24.8197343,31.1236559 L5.31309298,31.1236559 Z M35.9392789,31.1612903 C34.8387097,32.2526882 33.3586338,32.8924731 31.6888046,32.8924731 C30.0948767,32.8924731 28.6148008,32.2526882 27.5521822,31.2365591 C27.4003795,31.0860215 27.2485769,30.8978495 27.0967742,30.7473118 C26.9829222,30.6344086 26.8690702,30.483871 26.7552182,30.3709677 C26.6034156,30.1827957 26.4895636,29.9569892 26.3757116,29.7311828 C26.2998102,29.5806452 26.2239089,29.4677419 26.1480076,29.3172043 C26.0721063,29.1290323 25.9962049,28.9032258 25.9582543,28.6774194 C25.9203036,28.5268817 25.8444023,28.3387097 25.8064516,28.188172 C25.7305503,27.811828 25.6925996,27.3978495 25.6925996,26.983871 C25.6925996,25.327957 26.3757116,23.8602151 27.4383302,22.7688172 C28.5388994,21.6774194 30.0189753,21.0376344 31.6888046,21.0376344 C33.3586338,21.0376344 34.8387097,21.7150538 35.9392789,22.7688172 C37.0398482,23.8225806 37.6850095,25.327957 37.6850095,26.983871 C37.6850095,28.6021505 37.0018975,30.0698925 35.9392789,31.1612903 Z" id="Shape" fill-rule="nonzero"></path>
                        <path d="M34.9905123,25.9301075 L32.6755218,25.9301075 L32.6755218,23.6344086 C32.6755218,23.0698925 32.2201139,22.6182796 31.6508539,22.6182796 C31.0815939,22.6182796 30.626186,23.0698925 30.626186,23.6344086 L30.626186,25.9301075 L28.3111954,25.9301075 C27.7419355,25.9301075 27.2865275,26.3817204 27.2865275,26.9462366 C27.2865275,27.5107527 27.7419355,27.9623656 28.3111954,27.9623656 L30.626186,27.9623656 L30.626186,30.2580645 C30.626186,30.8225806 31.0815939,31.2741935 31.6508539,31.2741935 C32.2201139,31.2741935 32.6755218,30.8225806 32.6755218,30.2580645 L32.6755218,27.9623656 L34.9905123,27.9623656 C35.5597723,27.9623656 36.0151803,27.5107527 36.0151803,26.9462366 C36.0151803,26.3817204 35.5597723,25.9301075 34.9905123,25.9301075 Z" id="Shape" fill-rule="nonzero"></path>
                    </g>
                </g>
            </g>
        </g>
    </g>
</svg>