<?xml version="1.0" encoding="UTF-8"?>
<svg width="2179px" height="212px" viewBox="0 0 2179 212" version="1.1" xmlns="http://www.w3.org/2000/svg" xmlns:xlink="http://www.w3.org/1999/xlink">
    <!-- Generator: Sketch 50.2 (55047) - http://www.bohemiancoding.com/sketch -->
    <title>Group</title>
    <desc>Created with Sketch.</desc>
    <defs></defs>
    <g id="Page-1" stroke="none" stroke-width="1" fill="none" fill-rule="evenodd">
        <g id="Group" transform="translate(0.000000, -71.000000)">
            <g id="logo-kaskus-full" transform="translate(0.000000, 100.000000)" fill-rule="nonzero">
                <path d="M738.7546,106.060606 C735.232076,87.5 724.664503,69.8232323 693.842418,67.1717172 C692.961787,67.1717172 589.047326,67.1717172 589.047326,67.1717172 C585.524802,67.1717172 582.882909,66.2878788 580.241016,64.520202 C577.599123,62.7525253 575.837861,60.1010101 574.95723,55.6818182 C574.95723,54.7979798 574.95723,53.9141414 574.95723,53.030303 C574.95723,45.0757576 581.121647,38.8888889 589.047326,38.8888889 L654.214022,38.8888889 C673.587904,38.8888889 677.991059,42.4242424 679.752321,50.3787879 C680.632952,53.9141414 683.274845,57.4494949 687.678001,57.4494949 L732.590183,57.4494949 L732.590183,51.2626263 C732.590183,21.2121212 727.306396,0 665.662225,0 L572.315337,0 C570.554075,0 562.628396,0 559.986503,0.883838384 C543.254513,4.41919192 525.641893,18.5606061 523.880631,40.6565657 C523.880631,42.4242424 523,47.7272727 523,54.7979798 C523,60.1010101 523.880631,68.0555556 523.880631,69.8232323 C523.880631,71.5909091 524.761262,73.3585859 524.761262,75.1262626 C525.641893,77.7777778 526.522524,80.4292929 527.403155,83.0808081 C533.567572,97.2222222 549.418931,106.944444 568.792813,108.712121 C569.673444,108.712121 672.707273,108.712121 673.587904,108.712121 C681.513583,109.59596 687.678001,114.015152 687.678001,122.853535 C687.678001,129.040404 684.155476,132.575758 681.513583,134.343434 C677.991059,136.994949 672.707273,136.994949 672.707273,136.994949 L597.853637,136.994949 C584.644171,136.994949 577.599123,136.111111 575.837861,123.737374 C574.95723,120.20202 572.315337,116.666667 567.912182,116.666667 C567.912182,116.666667 567.912182,116.666667 567.912182,116.666667 C567.912182,116.666667 567.912182,116.666667 567.912182,116.666667 L523,116.666667 L523,128.156566 C523,165.277778 542.373882,175 589.927957,175 L690.319894,175 C692.081156,175 700.006835,175 702.648728,174.116162 C719.380717,170.580808 736.993338,156.439394 738.7546,134.343434 C738.7546,132.575758 739.635231,127.272727 739.635231,120.20202 C740.515862,115.782828 739.635231,107.828283 738.7546,106.060606" id="Shape" fill="#0B83C6"></path>
                <path d="M180.2,93.857868 C178.433333,92.0913706 177.55,90.3248731 177.55,88.5583756 C177.55,86.7918782 178.433333,84.142132 180.2,83.2588832 L265,2 L197.866667,2 C196.1,2 193.45,2.88324873 192.566667,4.64974619 L134.266667,63.8274112 C130.733333,66.4771574 126.316667,68.2436548 121.9,68.2436548 L104.233333,68.2436548 C102.466667,68.2436548 100.7,66.4771574 100.7,64.7106599 L100.7,9.94923858 C100.7,6.41624365 97.1666667,2.88324873 93.6333333,2.88324873 L49.4666667,2.88324873 L49.4666667,69.1269036 L0,69.1269036 L0,90.3248731 C0,100.923858 8.83333333,109.756345 19.4333333,109.756345 L48.5833333,109.756345 L48.5833333,176 L91.8666667,176 C96.2833333,176 99.8166667,172.467005 99.8166667,168.050761 L99.8166667,113.28934 C99.8166667,111.522843 101.583333,109.756345 103.35,109.756345 C103.35,109.756345 120.133333,109.756345 120.133333,109.756345 C125.433333,109.756345 129.85,111.522843 133.383333,115.055838 L190.8,173.350254 C192.566667,175.116751 194.333333,176 196.1,176 L265,176 L180.2,93.857868 Z" id="Shape" fill="#0B83C6"></path>
                <path d="M362.06383,107.918367 L396.5,40.8367347 L430.93617,107.918367 L362.06383,107.918367 Z M461.840426,170.586735 C462.723404,173.234694 465.37234,175 468.904255,175 L521,175 L434.468085,6.41326531 C433.585106,3.76530612 430.93617,2 427.404255,2 L397.382979,2 L395.617021,2 L364.712766,2 C362.06383,2 359.414894,3.76530612 357.648936,5.53061224 L272,174.117347 L323.212766,174.117347 C325.861702,174.117347 328.510638,172.352041 330.276596,169.704082 L342.638298,145.872449 C343.521277,144.107143 344.404255,143.22449 346.170213,143.22449 L446.829787,143.22449 C448.595745,143.22449 449.478723,144.107143 450.361702,145.872449 L461.840426,170.586735 Z" id="Shape" fill="#0B83C6"></path>
                <path d="M1438.21512,106.060606 C1434.68317,87.5 1424.08731,69.8232323 1393.18272,67.1717172 C1392.29973,67.1717172 1288.10711,67.1717172 1288.10711,67.1717172 C1284.57516,67.1717172 1281.92619,66.2878788 1279.27723,64.520202 C1276.62826,62.7525253 1274.86229,60.1010101 1273.9793,55.6818182 C1273.9793,54.7979798 1273.9793,53.9141414 1273.9793,53.030303 C1273.9793,45.0757576 1280.16022,38.8888889 1288.10711,38.8888889 L1353.44824,38.8888889 C1372.87399,38.8888889 1377.28893,42.4242424 1379.05491,50.3787879 C1379.93789,53.9141414 1382.58686,57.4494949 1387.0018,57.4494949 L1432.0342,57.4494949 L1432.0342,51.2626263 C1432.0342,21.2121212 1426.73627,0 1364.92709,0 L1270.44734,0 C1268.68137,0 1260.73447,0 1258.08551,0.883838384 C1241.30873,4.41919192 1223.64896,18.5606061 1221.88299,40.6565657 C1221.88299,42.4242424 1221,47.7272727 1221,54.7979798 C1221,60.1010101 1221.88299,68.0555556 1221.88299,69.8232323 C1221.88299,71.5909091 1222.76598,73.3585859 1222.76598,75.1262626 C1223.64896,77.7777778 1224.53195,80.4292929 1225.41494,83.0808081 C1231.59586,97.2222222 1247.48965,106.944444 1266.91539,108.712121 C1267.79838,108.712121 1371.10801,108.712121 1371.991,108.712121 C1379.93789,109.59596 1386.11881,114.015152 1386.11881,122.853535 C1386.11881,129.040404 1382.58686,132.575758 1379.93789,134.343434 C1376.40594,136.994949 1371.10801,136.994949 1371.10801,136.994949 L1296.05401,136.994949 C1282.80918,136.994949 1275.74527,136.111111 1273.9793,123.737374 C1273.09631,120.20202 1270.44734,116.666667 1266.0324,116.666667 C1266.0324,116.666667 1266.0324,116.666667 1266.0324,116.666667 C1266.0324,116.666667 1266.0324,116.666667 1266.0324,116.666667 L1221,116.666667 L1221,128.156566 C1221,165.277778 1240.42574,175 1288.10711,175 L1388.76778,175 C1390.53375,175 1398.48065,175 1401.12961,174.116162 C1417.90639,170.580808 1435.56616,156.439394 1437.33213,134.343434 C1437.33213,132.575758 1438.21512,127.272727 1438.21512,120.20202 C1439.9811,115.782828 1438.21512,107.828283 1438.21512,106.060606" id="Shape" fill="#FAA71B"></path>
                <path d="M757,175 L800.152263,175 C804.555556,175 808.078189,171.471795 808.078189,167.061538 L808.078189,112.374359 C808.078189,110.610256 809.839506,108.846154 811.600823,108.846154 C811.600823,108.846154 828.333333,108.846154 828.333333,108.846154 C833.617284,108.846154 838.020576,110.610256 841.54321,114.138462 L898.786008,172.353846 C900.547325,174.117949 902.308642,175 904.069959,175 L971,175 L886.45679,93.8512821 C884.695473,92.0871795 883.814815,90.3230769 883.814815,88.5589744 C883.814815,86.7948718 884.695473,84.1487179 886.45679,83.2666667 L971,3 L904.069959,3 C902.308642,3 899.666667,3.88205128 898.786008,5.64615385 L840.662551,64.7435897 C838.901235,66.5076923 834.497942,68.2717949 830.09465,68.2717949 L812.481481,68.2717949 C810.720165,68.2717949 808.958848,66.5076923 808.958848,64.7435897 L808.958848,10.0564103 C808.958848,6.52820513 805.436214,3 801.91358,3 L757.880658,3 L757.880658,175 L757,175 Z" id="Shape" fill="#FAA71B"></path>
                <path d="M1160.22267,2 C1155.80972,2 1152.27935,5.53768844 1152.27935,9.95979899 L1152.27935,113.437186 C1152.27935,124.050251 1143.45344,132.894472 1132.86235,132.894472 L1062.25506,132.894472 C1051.66397,132.894472 1042.83806,124.050251 1042.83806,113.437186 L1042.83806,102.824121 L1042.83806,101.939698 L1042.83806,9.95979899 C1042.83806,5.53768844 1039.30769,2.88442211 1034.89474,2.88442211 L989,2.88442211 L989,128.472362 C989.882591,155.005025 1011.06478,177.115578 1037.54251,178 L1156.69231,178 C1184.05263,178 1206.11741,155.889447 1207,128.472362 L1207,2 L1160.22267,2 Z" id="Shape" fill="#FAA71B"></path>
            </g>
            <text id="Wave" font-family="GoogleSans-Regular, Google Sans" font-size="288" font-weight="normal" fill="#777777">
                <tspan x="1473" y="278">Wave</tspan>
            </text>
        </g>
    </g>
</svg>