<?xml version="1.0" encoding="UTF-8"?>
<svg width="2189px" height="214px" viewBox="0 0 2189 214" version="1.1" xmlns="http://www.w3.org/2000/svg" xmlns:xlink="http://www.w3.org/1999/xlink">
    <!-- Generator: Sketch 50.2 (55047) - http://www.bohemiancoding.com/sketch -->
    <title>Group</title>
    <desc>Created with Sketch.</desc>
    <defs></defs>
    <g id="Page-1" stroke="none" stroke-width="1" fill="none" fill-rule="evenodd">
        <g id="Group" transform="translate(0.000000, -69.000000)">
            <g id="logo-kaskus-full" transform="translate(0.000000, 100.000000)" fill-rule="nonzero">
                <path d="M738.7546,106.060606 C735.232076,87.5 724.664503,69.8232323 693.842418,67.1717172 C692.961787,67.1717172 589.047326,67.1717172 589.047326,67.1717172 C585.524802,67.1717172 582.882909,66.2878788 580.241016,64.520202 C577.599123,62.7525253 575.837861,60.1010101 574.95723,55.6818182 C574.95723,54.7979798 574.95723,53.9141414 574.95723,53.030303 C574.95723,45.0757576 581.121647,38.8888889 589.047326,38.8888889 L654.214022,38.8888889 C673.587904,38.8888889 677.991059,42.4242424 679.752321,50.3787879 C680.632952,53.9141414 683.274845,57.4494949 687.678001,57.4494949 L732.590183,57.4494949 L732.590183,51.2626263 C732.590183,21.2121212 727.306396,0 665.662225,0 L572.315337,0 C570.554075,0 562.628396,0 559.986503,0.883838384 C543.254513,4.41919192 525.641893,18.5606061 523.880631,40.6565657 C523.880631,42.4242424 523,47.7272727 523,54.7979798 C523,60.1010101 523.880631,68.0555556 523.880631,69.8232323 C523.880631,71.5909091 524.761262,73.3585859 524.761262,75.1262626 C525.641893,77.7777778 526.522524,80.4292929 527.403155,83.0808081 C533.567572,97.2222222 549.418931,106.944444 568.792813,108.712121 C569.673444,108.712121 672.707273,108.712121 673.587904,108.712121 C681.513583,109.59596 687.678001,114.015152 687.678001,122.853535 C687.678001,129.040404 684.155476,132.575758 681.513583,134.343434 C677.991059,136.994949 672.707273,136.994949 672.707273,136.994949 L597.853637,136.994949 C584.644171,136.994949 577.599123,136.111111 575.837861,123.737374 C574.95723,120.20202 572.315337,116.666667 567.912182,116.666667 C567.912182,116.666667 567.912182,116.666667 567.912182,116.666667 C567.912182,116.666667 567.912182,116.666667 567.912182,116.666667 L523,116.666667 L523,128.156566 C523,165.277778 542.373882,175 589.927957,175 L690.319894,175 C692.081156,175 700.006835,175 702.648728,174.116162 C719.380717,170.580808 736.993338,156.439394 738.7546,134.343434 C738.7546,132.575758 739.635231,127.272727 739.635231,120.20202 C740.515862,115.782828 739.635231,107.828283 738.7546,106.060606" id="Shape" fill="#0B83C6"></path>
                <path d="M180.2,93.857868 C178.433333,92.0913706 177.55,90.3248731 177.55,88.5583756 C177.55,86.7918782 178.433333,84.142132 180.2,83.2588832 L265,2 L197.866667,2 C196.1,2 193.45,2.88324873 192.566667,4.64974619 L134.266667,63.8274112 C130.733333,66.4771574 126.316667,68.2436548 121.9,68.2436548 L104.233333,68.2436548 C102.466667,68.2436548 100.7,66.4771574 100.7,64.7106599 L100.7,9.94923858 C100.7,6.41624365 97.1666667,2.88324873 93.6333333,2.88324873 L49.4666667,2.88324873 L49.4666667,69.1269036 L0,69.1269036 L0,90.3248731 C0,100.923858 8.83333333,109.756345 19.4333333,109.756345 L48.5833333,109.756345 L48.5833333,176 L91.8666667,176 C96.2833333,176 99.8166667,172.467005 99.8166667,168.050761 L99.8166667,113.28934 C99.8166667,111.522843 101.583333,109.756345 103.35,109.756345 C103.35,109.756345 120.133333,109.756345 120.133333,109.756345 C125.433333,109.756345 129.85,111.522843 133.383333,115.055838 L190.8,173.350254 C192.566667,175.116751 194.333333,176 196.1,176 L265,176 L180.2,93.857868 Z" id="Shape" fill="#0B83C6"></path>
                <path d="M362.06383,107.918367 L396.5,40.8367347 L430.93617,107.918367 L362.06383,107.918367 Z M461.840426,170.586735 C462.723404,173.234694 465.37234,175 468.904255,175 L521,175 L434.468085,6.41326531 C433.585106,3.76530612 430.93617,2 427.404255,2 L397.382979,2 L395.617021,2 L364.712766,2 C362.06383,2 359.414894,3.76530612 357.648936,5.53061224 L272,174.117347 L323.212766,174.117347 C325.861702,174.117347 328.510638,172.352041 330.276596,169.704082 L342.638298,145.872449 C343.521277,144.107143 344.404255,143.22449 346.170213,143.22449 L446.829787,143.22449 C448.595745,143.22449 449.478723,144.107143 450.361702,145.872449 L461.840426,170.586735 Z" id="Shape" fill="#0B83C6"></path>
                <path d="M1438.21512,106.060606 C1434.68317,87.5 1424.08731,69.8232323 1393.18272,67.1717172 C1392.29973,67.1717172 1288.10711,67.1717172 1288.10711,67.1717172 C1284.57516,67.1717172 1281.92619,66.2878788 1279.27723,64.520202 C1276.62826,62.7525253 1274.86229,60.1010101 1273.9793,55.6818182 C1273.9793,54.7979798 1273.9793,53.9141414 1273.9793,53.030303 C1273.9793,45.0757576 1280.16022,38.8888889 1288.10711,38.8888889 L1353.44824,38.8888889 C1372.87399,38.8888889 1377.28893,42.4242424 1379.05491,50.3787879 C1379.93789,53.9141414 1382.58686,57.4494949 1387.0018,57.4494949 L1432.0342,57.4494949 L1432.0342,51.2626263 C1432.0342,21.2121212 1426.73627,0 1364.92709,0 L1270.44734,0 C1268.68137,0 1260.73447,0 1258.08551,0.883838384 C1241.30873,4.41919192 1223.64896,18.5606061 1221.88299,40.6565657 C1221.88299,42.4242424 1221,47.7272727 1221,54.7979798 C1221,60.1010101 1221.88299,68.0555556 1221.88299,69.8232323 C1221.88299,71.5909091 1222.76598,73.3585859 1222.76598,75.1262626 C1223.64896,77.7777778 1224.53195,80.4292929 1225.41494,83.0808081 C1231.59586,97.2222222 1247.48965,106.944444 1266.91539,108.712121 C1267.79838,108.712121 1371.10801,108.712121 1371.991,108.712121 C1379.93789,109.59596 1386.11881,114.015152 1386.11881,122.853535 C1386.11881,129.040404 1382.58686,132.575758 1379.93789,134.343434 C1376.40594,136.994949 1371.10801,136.994949 1371.10801,136.994949 L1296.05401,136.994949 C1282.80918,136.994949 1275.74527,136.111111 1273.9793,123.737374 C1273.09631,120.20202 1270.44734,116.666667 1266.0324,116.666667 C1266.0324,116.666667 1266.0324,116.666667 1266.0324,116.666667 C1266.0324,116.666667 1266.0324,116.666667 1266.0324,116.666667 L1221,116.666667 L1221,128.156566 C1221,165.277778 1240.42574,175 1288.10711,175 L1388.76778,175 C1390.53375,175 1398.48065,175 1401.12961,174.116162 C1417.90639,170.580808 1435.56616,156.439394 1437.33213,134.343434 C1437.33213,132.575758 1438.21512,127.272727 1438.21512,120.20202 C1439.9811,115.782828 1438.21512,107.828283 1438.21512,106.060606" id="Shape" fill="#FAA71B"></path>
                <path d="M757,175 L800.152263,175 C804.555556,175 808.078189,171.471795 808.078189,167.061538 L808.078189,112.374359 C808.078189,110.610256 809.839506,108.846154 811.600823,108.846154 C811.600823,108.846154 828.333333,108.846154 828.333333,108.846154 C833.617284,108.846154 838.020576,110.610256 841.54321,114.138462 L898.786008,172.353846 C900.547325,174.117949 902.308642,175 904.069959,175 L971,175 L886.45679,93.8512821 C884.695473,92.0871795 883.814815,90.3230769 883.814815,88.5589744 C883.814815,86.7948718 884.695473,84.1487179 886.45679,83.2666667 L971,3 L904.069959,3 C902.308642,3 899.666667,3.88205128 898.786008,5.64615385 L840.662551,64.7435897 C838.901235,66.5076923 834.497942,68.2717949 830.09465,68.2717949 L812.481481,68.2717949 C810.720165,68.2717949 808.958848,66.5076923 808.958848,64.7435897 L808.958848,10.0564103 C808.958848,6.52820513 805.436214,3 801.91358,3 L757.880658,3 L757.880658,175 L757,175 Z" id="Shape" fill="#FAA71B"></path>
                <path d="M1160.22267,2 C1155.80972,2 1152.27935,5.53768844 1152.27935,9.95979899 L1152.27935,113.437186 C1152.27935,124.050251 1143.45344,132.894472 1132.86235,132.894472 L1062.25506,132.894472 C1051.66397,132.894472 1042.83806,124.050251 1042.83806,113.437186 L1042.83806,102.824121 L1042.83806,101.939698 L1042.83806,9.95979899 C1042.83806,5.53768844 1039.30769,2.88442211 1034.89474,2.88442211 L989,2.88442211 L989,128.472362 C989.882591,155.005025 1011.06478,177.115578 1037.54251,178 L1156.69231,178 C1184.05263,178 1206.11741,155.889447 1207,128.472362 L1207,2 L1160.22267,2 Z" id="Shape" fill="#FAA71B"></path>
            </g>
            <path d="M1496.04,71.792 L1565.736,71.792 C1577.06406,71.792 1587.62395,74.3839741 1597.416,79.568 C1607.20805,84.7520259 1615.03197,91.9999534 1620.888,101.312 C1626.74403,110.624047 1629.672,121.135941 1629.672,132.848 C1629.672,142.448048 1627.51202,151.375959 1623.192,159.632 C1618.87198,167.888041 1612.92004,174.799972 1605.336,180.368 C1597.75196,185.936028 1589.35205,189.67999 1580.136,191.6 L1579.56,192.464 L1637.736,276.848 L1637.736,278 L1608.936,278 L1552.776,193.904 L1520.232,193.904 L1520.232,278 L1496.04,278 L1496.04,71.792 Z M1564.296,171.152 C1571.40004,171.152 1578.07197,169.520016 1584.312,166.256 C1590.55203,162.991984 1595.54398,158.432029 1599.288,152.576 C1603.03202,146.719971 1604.904,140.144036 1604.904,132.848 C1604.904,126.511968 1603.27202,120.464029 1600.008,114.704 C1596.74398,108.943971 1592.18403,104.240018 1586.328,100.592 C1580.47197,96.9439818 1573.70404,95.12 1566.024,95.12 L1520.232,95.12 L1520.232,171.152 L1564.296,171.152 Z M1704.264,282.608 C1693.51195,282.608 1683.91204,280.496021 1675.464,276.272 C1667.01596,272.047979 1660.48802,266.240037 1655.88,258.848 C1651.27198,251.455963 1648.968,243.056047 1648.968,233.648 C1648.968,218.095922 1654.82394,205.952044 1666.536,197.216 C1678.24806,188.479956 1693.03191,184.112 1710.888,184.112 C1719.72004,184.112 1727.92796,185.07199 1735.512,186.992 C1743.09604,188.91201 1748.90398,191.119988 1752.936,193.616 L1752.936,184.688 C1752.936,173.743945 1749.09604,164.960033 1741.416,158.336 C1733.73596,151.711967 1724.04006,148.4 1712.328,148.4 C1704.07196,148.4 1696.48803,150.175982 1689.576,153.728 C1682.66397,157.280018 1677.19202,162.223968 1673.16,168.56 L1654.728,154.736 C1660.48803,145.903956 1668.40795,138.992025 1678.488,134 C1688.56805,129.007975 1699.75194,126.512 1712.04,126.512 C1732.0081,126.512 1747.70394,131.743948 1759.128,142.208 C1770.55206,152.672052 1776.264,166.92791 1776.264,184.976 L1776.264,278 L1752.936,278 L1752.936,256.976 L1751.784,256.976 C1747.55998,264.080036 1741.22404,270.127975 1732.776,275.12 C1724.32796,280.112025 1714.82405,282.608 1704.264,282.608 Z M1706.568,261.008 C1714.82404,261.008 1722.50396,258.896021 1729.608,254.672 C1736.71204,250.447979 1742.37598,244.784036 1746.6,237.68 C1750.82402,230.575964 1752.936,222.800042 1752.936,214.352 C1748.32798,211.279985 1742.66403,208.78401 1735.944,206.864 C1729.22397,204.94399 1722.12004,203.984 1714.632,203.984 C1701.19193,203.984 1691.06403,206.767972 1684.248,212.336 C1677.43197,217.904028 1674.024,225.103956 1674.024,233.936 C1674.024,242.00004 1677.09597,248.527975 1683.24,253.52 C1689.38403,258.512025 1697.15995,261.008 1706.568,261.008 Z M1871.016,282.608 C1857.95993,282.608 1846.10405,279.248034 1835.448,272.528 C1824.79195,265.807966 1816.39203,256.544059 1810.248,244.736 C1804.10397,232.927941 1801.032,219.536075 1801.032,204.56 C1801.032,189.775926 1804.10397,176.43206 1810.248,164.528 C1816.39203,152.62394 1824.79195,143.312034 1835.448,136.592 C1846.10405,129.871966 1857.95993,126.512 1871.016,126.512 C1882.34406,126.512 1892.42396,129.055975 1901.256,134.144 C1910.08804,139.232025 1916.80798,145.519963 1921.416,153.008 L1922.568,153.008 L1921.416,132.56 L1921.416,71.792 L1945.896,71.792 L1945.896,278 L1922.568,278 L1922.568,256.4 L1921.416,256.4 C1916.80798,263.696036 1910.08804,269.887975 1901.256,274.976 C1892.42396,280.064025 1882.34406,282.608 1871.016,282.608 Z M1873.896,260.432 C1882.53604,260.432 1890.55196,258.128023 1897.944,253.52 C1905.33604,248.911977 1911.28798,242.384042 1915.8,233.936 C1920.31202,225.487958 1922.568,215.696056 1922.568,204.56 C1922.568,193.423944 1920.31202,183.632042 1915.8,175.184 C1911.28798,166.735958 1905.33604,160.208023 1897.944,155.6 C1890.55196,150.991977 1882.53604,148.688 1873.896,148.688 C1865.44796,148.688 1857.48004,150.991977 1849.992,155.6 C1842.50396,160.208023 1836.50402,166.783957 1831.992,175.328 C1827.47998,183.872043 1825.224,193.615945 1825.224,204.56 C1825.224,215.504055 1827.47998,225.247957 1831.992,233.792 C1836.50402,242.336043 1842.50396,248.911977 1849.992,253.52 C1857.48004,258.128023 1865.44796,260.432 1873.896,260.432 Z M1996.584,104.048 C1991.78398,104.048 1987.65602,102.320017 1984.2,98.864 C1980.74398,95.4079827 1979.016,91.280024 1979.016,86.48 C1979.016,81.679976 1980.74398,77.6000168 1984.2,74.24 C1987.65602,70.8799832 1991.78398,69.2 1996.584,69.2 C2001.38402,69.2 2005.51198,70.8799832 2008.968,74.24 C2012.42402,77.6000168 2014.152,81.679976 2014.152,86.48 C2014.152,91.280024 2012.47202,95.4079827 2009.112,98.864 C2005.75198,102.320017 2001.57602,104.048 1996.584,104.048 Z M1984.488,131.12 L2008.68,131.12 L2008.68,278 L1984.488,278 L1984.488,131.12 Z M2113.512,282.608 C2099.11193,282.608 2086.15206,279.152035 2074.632,272.24 C2063.11194,265.327965 2054.13603,255.92006 2047.704,244.016 C2041.27197,232.11194 2038.056,218.960072 2038.056,204.56 C2038.056,190.159928 2041.27197,177.00806 2047.704,165.104 C2054.13603,153.19994 2063.11194,143.792035 2074.632,136.88 C2086.15206,129.967965 2099.11193,126.512 2113.512,126.512 C2127.91207,126.512 2140.87194,129.967965 2152.392,136.88 C2163.91206,143.792035 2172.88797,153.19994 2179.32,165.104 C2185.75203,177.00806 2188.968,190.159928 2188.968,204.56 C2188.968,218.960072 2185.75203,232.11194 2179.32,244.016 C2172.88797,255.92006 2163.91206,265.327965 2152.392,272.24 C2140.87194,279.152035 2127.91207,282.608 2113.512,282.608 Z M2113.512,260.432 C2122.53605,260.432 2130.93596,258.176023 2138.712,253.664 C2146.48804,249.151977 2152.72798,242.672042 2157.432,234.224 C2162.13602,225.775958 2164.488,215.888057 2164.488,204.56 C2164.488,193.231943 2162.13602,183.344042 2157.432,174.896 C2152.72798,166.447958 2146.48804,159.968023 2138.712,155.456 C2130.93596,150.943977 2122.53605,148.688 2113.512,148.688 C2104.48795,148.688 2096.04004,150.943977 2088.168,155.456 C2080.29596,159.968023 2074.00802,166.447958 2069.304,174.896 C2064.59998,183.344042 2062.248,193.231943 2062.248,204.56 C2062.248,215.888057 2064.59998,225.775958 2069.304,234.224 C2074.00802,242.672042 2080.29596,249.151977 2088.168,253.664 C2096.04004,258.176023 2104.48795,260.432 2113.512,260.432 Z" id="Radio" fill="#777777"></path>
        </g>
    </g>
</svg>