<?xml version="1.0" encoding="UTF-8"?>
<svg width="130px" height="128px" viewBox="0 0 130 128" version="1.1" xmlns="http://www.w3.org/2000/svg" xmlns:xlink="http://www.w3.org/1999/xlink">
    <!-- Generator: Sketch 52.6 (67491) - http://www.bohemiancoding.com/sketch -->
    <title>Group 3</title>
    <desc>Created with Sketch.</desc>
    <defs>
        <polygon id="path-1" points="0 1.80728237e-05 129.932792 1.80728237e-05 129.932792 127.950769 0 127.950769"></polygon>
    </defs>
    <g id="web" stroke="none" stroke-width="1" fill="none" fill-rule="evenodd">
        <g id="landing-icinc-video-background" transform="translate(-1020.000000, -2586.000000)">
            <g id="phase" transform="translate(185.000000, 2487.000000)">
                <g id="Group-3" transform="translate(835.000000, 99.000000)">
                    <mask id="mask-2" fill="white">
                        <use xlink:href="#path-1"></use>
                    </mask>
                    <g id="Clip-2"></g>
                    <path d="M64.0229919,26.3138195 C64.1054309,26.3241979 64.1870772,26.3292541 64.2681951,26.3292541 C65.2542927,26.3292541 66.1085407,25.5881314 66.2321992,24.577437 L67.9618333,10.454859 C68.0957967,9.36113763 67.3239878,8.36481331 66.237748,8.22989439 C65.1557358,8.09444324 64.1625041,8.87255551 64.0285407,9.96627692 L62.2989065,24.0888549 C62.1649431,25.1825763 62.936752,26.1789006 64.0229919,26.3138195 Z M66.4636626,5.26433929 C66.5461016,5.27471767 66.627748,5.2797738 66.7088659,5.2797738 C67.6949634,5.2797738 68.5492114,4.53891726 68.6731341,3.52795676 L68.8306138,2.24050561 C68.9645772,1.14651809 68.1927683,0.150459875 67.1065285,0.0155409563 C66.0224024,-0.120974636 65.0312846,0.658202079 64.8973211,1.75192349 L64.7395772,3.03937464 C64.6056138,4.13336216 65.3774228,5.12968649 66.4636626,5.26433929 Z M7.8814878,40.0071584 L18.5634187,46.9643975 C18.8960813,47.1810129 19.2689065,47.2845306 19.6377683,47.2845306 C20.2877683,47.2845306 20.9242927,46.9628008 21.3034593,46.3720316 C21.8977073,45.4464931 21.6345366,44.2109339 20.7155528,43.6124474 L10.033622,36.6552083 C9.11437398,36.0561896 7.88782927,36.3215035 7.2935813,37.2475742 C6.69933333,38.1728466 6.96250407,39.4086719 7.8814878,40.0071584 Z M4.6314878,35.4821854 C5.22679268,34.5577114 4.96547154,33.32162 4.04728049,32.7218029 L3.06012602,32.0770129 C2.14219919,31.4766636 0.914861789,31.7401148 0.319292683,32.6653871 C-0.276276423,33.5901272 -0.0146910569,34.8259526 0.9035,35.4257696 L1.89065447,36.0705597 C2.2235813,36.2882395 2.59719919,36.3922894 2.96711789,36.3922894 C3.61606098,36.3922894 4.25205691,36.0716241 4.6314878,35.4821854 Z M30.4510203,16.2225763 L36.7362033,29.4339859 C37.0770569,30.1495617 37.7859797,30.5676241 38.5247602,30.5676241 C38.8119756,30.5676241 39.1034187,30.5045555 39.3798008,30.3712333 C40.3669553,29.8948923 40.7836423,28.7032416 40.3106748,27.70878 L34.0254919,14.4976366 C33.5525244,13.5034412 32.3687846,13.0837821 31.3818943,13.5601231 C30.3947398,14.036464 29.9780528,15.2283809 30.4510203,16.2225763 Z M27.1582154,9.30152848 C27.4990691,10.0176366 28.2079919,10.4354328 28.9467724,10.4354328 C29.2339878,10.4354328 29.5256951,10.3723642 29.801813,10.239042 C30.7889675,9.76270104 31.2056545,8.57051809 30.732687,7.57658877 L30.0945772,6.23564906 C29.6216098,5.24118753 28.4370772,4.82179459 27.4509797,5.29813555 C26.4640894,5.77447651 26.0471382,6.96665946 26.5201057,7.96058877 L27.1582154,9.30152848 Z M22.7849837,102.857021 C22.7849837,104.583824 24.1748211,105.98384 25.8896585,105.98384 C27.6042317,105.98384 28.9943333,104.583824 28.9943333,102.857021 C28.9943333,101.130219 27.6042317,99.7302021 25.8896585,99.7302021 C24.1748211,99.7302021 22.7849837,101.130219 22.7849837,102.857021 Z M116.51974,46.640805 C118.234313,46.640805 119.624415,45.2407884 119.624415,43.5139859 C119.624415,41.7871834 118.234313,40.3871667 116.51974,40.3871667 C114.804902,40.3871667 113.415065,41.7871834 113.415065,43.5139859 C113.415065,45.2407884 114.804902,46.640805 116.51974,46.640805 Z M19.7463659,80.7031751 L17.3588049,80.7031751 C16.2641098,80.7031751 15.3770976,81.5965139 15.3770976,82.699017 C15.3770976,83.8012541 16.2641098,84.694859 17.3588049,84.694859 L19.7463659,84.694859 C20.8407967,84.694859 21.7280732,83.8012541 21.7280732,82.699017 C21.7280732,81.5965139 20.8407967,80.7031751 19.7463659,80.7031751 Z M8.39408943,80.7031751 L6.00652846,80.7031751 C4.91183333,80.7031751 4.02482114,81.5965139 4.02482114,82.699017 C4.02482114,83.8012541 4.91183333,84.694859 6.00652846,84.694859 L8.39408943,84.694859 C9.48852033,84.694859 10.3757967,83.8012541 10.3757967,82.699017 C10.3757967,81.5965139 9.48852033,80.7031751 8.39408943,80.7031751 Z M12.8764472,85.2175035 C11.781752,85.2175035 10.8947398,86.1108424 10.8947398,87.2133455 L10.8947398,89.617936 C10.8947398,90.720173 11.781752,91.613778 12.8764472,91.613778 C13.970878,91.613778 14.8581545,90.720173 14.8581545,89.617936 L14.8581545,87.2133455 C14.8581545,86.1108424 13.970878,85.2175035 12.8764472,85.2175035 Z M12.8764472,73.7842561 C11.781752,73.7842561 10.8947398,74.677595 10.8947398,75.7800981 L10.8947398,78.1846886 C10.8947398,79.2869256 11.781752,80.1805306 12.8764472,80.1805306 C13.970878,80.1805306 14.8581545,79.2869256 14.8581545,78.1846886 L14.8581545,75.7800981 C14.8581545,74.677595 13.970878,73.7842561 12.8764472,73.7842561 Z M108.517341,19.2312416 L110.904902,19.2312416 C111.999333,19.2312416 112.88661,18.3376366 112.88661,17.2353996 C112.88661,16.1328965 111.999333,15.2395576 110.904902,15.2395576 L108.517341,15.2395576 C107.422646,15.2395576 106.535634,16.1328965 106.535634,17.2353996 C106.535634,18.3376366 107.422646,19.2312416 108.517341,19.2312416 Z M97.165065,19.2312416 L99.552626,19.2312416 C100.647057,19.2312416 101.534333,18.3376366 101.534333,17.2353996 C101.534333,16.1328965 100.647057,15.2395576 99.552626,15.2395576 L97.165065,15.2395576 C96.0703699,15.2395576 95.1833577,16.1328965 95.1833577,17.2353996 C95.1833577,18.3376366 96.0703699,19.2312416 97.165065,19.2312416 Z M104.034984,26.1501605 C105.129415,26.1501605 106.016691,25.2565555 106.016691,24.1543185 L106.016691,21.7497281 C106.016691,20.6472249 105.129415,19.7538861 104.034984,19.7538861 C102.940289,19.7538861 102.053276,20.6472249 102.053276,21.7497281 L102.053276,24.1543185 C102.053276,25.2565555 102.940289,26.1501605 104.034984,26.1501605 Z M104.034984,14.7169131 C105.129415,14.7169131 106.016691,13.8233081 106.016691,12.7210711 L106.016691,10.3164807 C106.016691,9.21397755 105.129415,8.32063867 104.034984,8.32063867 C102.940289,8.32063867 102.053276,9.21397755 102.053276,10.3164807 L102.053276,12.7210711 C102.053276,13.8233081 102.940289,14.7169131 104.034984,14.7169131 Z M121.629374,66.2921314 C121.041996,66.5782021 120.631915,67.1367717 120.533093,67.7863518 L120.222098,69.8255701 L118.803988,68.3366719 C118.427199,67.940963 117.909313,67.7222187 117.373988,67.7222187 C117.268033,67.7222187 117.16102,67.7310004 117.054537,67.7482977 L115.032931,68.080938 L116.000797,66.2623268 C116.308886,65.6832665 116.314171,64.9889796 116.015329,64.4051293 L115.076793,62.5710836 L117.093114,62.9361896 C117.734923,63.0516823 118.392585,62.8433164 118.851549,62.3765555 L120.293175,60.910543 L120.571671,62.9545514 C120.660451,63.6057281 121.06102,64.1709505 121.643642,64.466069 L123.473419,65.3940025 L121.629374,66.2921314 Z M128.84226,63.6477738 L124.356732,61.37278 L123.674496,56.3618861 C123.571976,55.6090545 123.054089,54.9804973 122.338561,54.7396657 C121.623561,54.4991002 120.834313,54.688306 120.303215,55.2282478 L116.768907,58.8218279 L111.826264,57.9268923 C111.084049,57.7938362 110.329943,58.094543 109.881813,58.7052707 C109.433419,59.3162644 109.368419,60.130568 109.714293,60.8056948 L112.015451,65.3013954 L109.642687,69.7595742 C109.286508,70.4288466 109.338297,71.2444807 109.776915,71.8623933 C110.215268,72.4805721 110.965146,72.7943185 111.708947,72.672173 L116.665065,71.8570711 L120.141772,75.5070669 C120.521203,75.9057031 121.040411,76.1215202 121.572037,76.1215202 C121.771528,76.1215202 121.972606,76.0911834 122.168927,76.028647 C122.888154,75.7997904 123.415817,75.1794827 123.530492,74.4285139 L124.292524,69.4290628 L128.813724,67.2269838 C129.492789,66.8962062 129.92665,66.205911 129.932728,65.4464266 C129.938805,64.68641 129.516041,63.9891958 128.84226,63.6477738 Z M36.9338455,77.0183185 C36.810187,78.1133705 37.5917724,79.1022437 38.6790691,79.2267842 C38.7551667,79.2352998 38.8304715,79.2398237 38.905248,79.2398237 C39.8995366,79.2398237 40.7569553,78.4877904 40.8718943,77.4688466 L41.5184593,71.7373206 C41.6164878,70.868464 41.1411423,70.0360649 40.3460813,69.6845306 L29.090248,64.7087634 L41.0999228,62.0713247 C41.9388455,61.8871751 42.5645366,61.1798486 42.6496179,60.3195077 L43.8700854,48.0006387 L50.0723008,58.689304 C50.5000854,59.426701 51.3466707,59.8072416 52.1766098,59.6385264 L56.735065,58.7089963 C57.8078293,58.4905181 58.5014268,57.4375119 58.2839675,56.3568299 C58.0673008,55.2766802 57.0206951,54.5786678 55.9484593,54.7968798 L52.779313,55.4430004 L44.2149024,40.6833497 C43.7818333,39.9369048 42.9215081,39.5560981 42.0817927,39.7402478 C41.2428699,39.9243975 40.6171789,40.63199 40.5320976,41.4920649 L38.8489675,58.4801397 L22.2869146,62.1176283 C21.4479919,62.301778 20.8223008,63.0093705 20.7372195,63.8697114 C20.651874,64.7297863 21.1264268,65.5478154 21.9125041,65.8950919 L37.4155325,72.7482811 L36.9338455,77.0183185 Z M96.9779919,122.401903 C92.456,123.083948 84.6684187,122.984689 74.3881138,118.034734 C69.3083374,115.588896 65.1050041,114.729088 61.7041301,114.729088 C58.449374,114.729088 55.9296992,115.517046 54.0830122,116.456955 C52.7312236,117.145121 51.6328293,117.962352 50.761935,118.761221 L49.2093333,112.55016 C53.7535203,108.581096 58.1190894,106.863075 62.8590691,107.153404 C67.7332764,107.453046 72.9100244,109.802285 78.3908984,112.289637 C83.9698008,114.821429 90.2050447,114.834202 95.052565,114.212032 L92.0731341,116.685013 C91.561061,117.109994 91.2941911,117.765429 91.362626,118.430709 C91.431061,119.095724 91.8258171,119.682235 92.4137236,119.992522 L96.9779919,122.401903 Z M104.426305,109.464589 C103.951752,108.621545 102.944516,108.243666 102.037951,108.568057 C101.9135,108.612763 89.5214878,112.962635 80.0190691,108.650285 C68.2974024,103.330967 58.1745772,98.7370711 45.6496585,110.403433 C45.1175041,110.898934 44.8966098,111.64804 45.073378,112.355899 L47.8765691,123.569869 C47.8884593,123.618568 47.9080122,123.664339 47.9236016,123.711707 C47.9288862,123.727408 47.9336423,123.743375 47.9394553,123.759075 C48.0026057,123.93604 48.0887439,124.099699 48.1952276,124.248722 C48.1962846,124.250052 48.196813,124.251383 48.1978699,124.252714 C48.4829715,124.650817 48.9044146,124.934759 49.3929715,125.037479 L60.1845569,127.885146 C60.3526057,127.929587 60.5217114,127.950876 60.6879106,127.950876 C61.5669959,127.950876 62.370248,127.356913 62.603561,126.460115 C62.881,125.393803 62.2473821,124.303275 61.188622,124.023857 L53.1944146,121.914385 C55.7513455,119.443533 61.5889268,116.296223 72.6782967,121.636032 C80.9108374,125.60004 87.7197195,126.729154 92.8071585,126.728888 C99.2918333,126.728622 102.979659,124.893512 103.245472,124.756464 C103.904455,124.416373 104.32035,123.734859 104.32352,122.989479 C104.326955,122.243832 103.917402,121.558593 103.261854,121.212381 L96.8976667,117.852714 L103.962585,111.988398 C104.705065,111.372348 104.900593,110.307632 104.426305,109.464589 Z M103.186285,96.2276324 C94.855187,99.8252042 87.9218537,97.305121 79.9268537,94.3994412 C74.9691504,92.5970628 69.8426057,90.7334786 63.930248,90.1592083 C53.1851667,89.117911 44.8033374,95.4979526 40.9670163,99.1359734 L36.7459797,87.9281231 C38.261061,86.6249713 41.4970569,84.0694952 45.8118943,81.9280898 C53.7471789,77.9896283 61.4182358,77.2290794 68.6105122,79.6674661 C69.8156545,80.0756823 70.9782561,80.4751168 72.1049228,80.8620441 C85.856122,85.5847385 94.6710203,88.6114994 108.670858,83.573462 L103.186285,96.2276324 Z M111.619638,78.0803726 C96.2640488,84.941279 88.1371992,82.1502936 73.3840488,77.0837821 C72.2523618,76.6952582 71.0850041,76.294227 69.8748415,75.884148 C61.731874,73.1242977 52.7658374,73.9963476 43.9448618,78.4050295 C37.3655935,81.6933788 33.2000447,85.7571792 33.0256545,85.9285555 C32.4623211,86.4831335 32.2784187,87.3216532 32.5579715,88.0638403 L38.3709797,103.498352 C38.3723008,103.502343 38.3746789,103.505537 38.376,103.509528 C38.4048008,103.584306 38.4378293,103.657221 38.4750854,103.727474 C38.4822195,103.741046 38.4904106,103.754086 38.4980732,103.767657 C38.5295163,103.823275 38.5633374,103.877296 38.5992724,103.92972 C38.6116911,103.947549 38.6241098,103.965113 38.6370569,103.98241 C38.6782764,104.038294 38.7221382,104.092314 38.769435,104.143674 C38.7744553,104.149262 38.7792114,104.155383 38.7842317,104.160971 C38.840248,104.22058 38.8999634,104.276198 38.9625854,104.328356 C38.9686626,104.333412 38.9747398,104.33767 38.9808171,104.34246 C39.0386829,104.389828 39.0997195,104.43347 39.1628699,104.473919 C39.1707967,104.478709 39.1789878,104.484032 39.1869146,104.489088 C39.3274837,104.576373 39.4799431,104.646892 39.6427073,104.697188 C39.6437642,104.697454 39.6453496,104.697986 39.6464065,104.698252 C39.7217114,104.721404 39.7991301,104.738967 39.8783984,104.753071 C39.8852683,104.754402 39.891874,104.756531 39.8987439,104.757861 C39.9042927,104.758659 39.9095772,104.758393 39.9153902,104.759192 C39.9426057,104.763716 39.9692927,104.769836 39.9967724,104.77303 L46.8666911,105.571366 C46.9438455,105.580414 47.0204715,105.584938 47.0963049,105.584938 C48.0890081,105.584938 48.9458984,104.834768 49.0624228,103.81742 C49.1879309,102.722635 48.4081951,101.732431 47.3208984,101.606294 L44.5465081,101.283765 C48.2057967,98.0693954 55.1504919,93.3163642 63.5500244,94.1327967 C68.9661626,94.6586345 73.8541098,96.4354661 78.5814065,98.153753 C87.2388252,101.301063 95.4164065,104.274069 105.529984,99.5444557 C105.968866,99.3392832 106.317911,98.9792333 106.511854,98.5326969 L114.239455,80.7031751 C114.566305,79.9487468 114.399841,79.0695119 113.820126,78.489121 C113.240675,77.9089963 112.36661,77.7466678 111.619638,78.0803726 Z M81.8245366,65.6710254 C81.0070163,64.9384183 79.754313,65.0115992 79.0266301,65.8346844 C78.2986829,66.6577696 78.3716098,67.919674 79.1888659,68.6525472 L85.0766504,73.9311501 C85.4542317,74.269911 85.9248211,74.4364973 86.393561,74.4364973 C86.9394553,74.4364973 87.4829715,74.210568 87.8745569,73.7677572 C88.6022398,72.9444058 88.5295772,71.6827676 87.7120569,70.9498944 L81.8245366,65.6710254 Z M58.2263659,70.6106012 C58.3391911,71.7067177 59.3107561,72.50399 60.4022805,72.3895617 C61.4908984,72.2753996 62.2814675,71.2942437 62.168378,70.1978611 C61.8869756,67.4702104 62.3131748,64.7436241 63.4015285,62.2408383 L70.9198618,64.2042146 C71.0865894,64.247857 71.2538455,64.2686137 71.4184593,64.2686137 C72.2996585,64.2686137 73.1039675,63.6722561 73.3354309,62.7733289 C73.6102276,61.7062187 72.9739675,60.6170212 71.9146789,60.3402644 L65.2733171,58.6060108 L66.8380732,55.655358 L74.4052886,57.6317738 C74.5722805,57.6754162 74.7395366,57.696173 74.9041504,57.696173 C75.7853496,57.696173 76.5896585,57.0998154 76.821122,56.2008881 C77.0959187,55.133778 76.4593943,54.0445805 75.4003699,53.7678237 L68.7590081,52.033304 L70.3237642,49.0831834 L77.8907154,51.0593331 C78.0577073,51.1029755 78.2249634,51.1237322 78.3895772,51.1237322 C79.2707764,51.1237322 80.0750854,50.5273746 80.3065488,49.6284474 C80.5813455,48.5616033 79.9450854,47.4724058 78.8857967,47.1956491 L72.244435,45.4611293 L72.531122,44.9206553 C75.8432154,38.676331 82.7445772,35.5769214 89.3132764,36.820464 C87.356935,38.0916823 86.2627683,39.6974037 86.1813862,39.8198154 C85.5747195,40.731516 85.8164878,41.9598902 86.7180325,42.5762062 C87.057565,42.8085222 87.4436016,42.9194911 87.825939,42.9194911 C88.4587642,42.9194911 89.0820772,42.6153247 89.4673211,42.0519651 C89.5605935,41.9151834 91.7912033,38.7221023 95.3144146,39.3408133 C95.9345569,39.7692541 96.5200854,40.2378778 97.067565,40.7448216 C94.8879512,41.5074994 93.3115691,43.0309921 93.2019146,43.1390337 C92.4190081,43.9091626 92.4044756,45.1729297 93.1694146,45.9611543 C93.557565,46.3613871 94.0720163,46.5623019 94.5869959,46.5623019 C95.086122,46.5623019 95.5863049,46.3733622 95.9715488,45.9938861 C95.995065,45.9710004 98.1881545,43.9224682 99.9722195,44.3860358 C100.583642,45.443832 101.079862,46.5788008 101.441854,47.7794994 C102.662057,51.8262686 102.244577,56.1096116 100.266305,59.8399734 L91.6767927,76.0366304 C91.1610203,77.0087385 91.5256545,78.2179526 92.4911423,78.7371376 C92.7883984,78.8973372 93.1078496,78.9731792 93.4230732,78.9731792 C94.130939,78.9729131 94.8158171,78.5897114 95.1727886,77.9169796 L103.762037,61.7205888 C106.239171,57.0495202 106.762077,51.6868258 105.234313,46.6197821 C103.706549,41.5527385 100.310695,37.3880815 95.6727073,34.893279 C86.0997398,29.7429422 74.149252,33.3977281 69.0353902,43.0400399 L60.445878,59.2366969 C58.587565,62.7405971 57.8199837,66.6737364 58.2263659,70.6106012 Z M89.8789878,67.8640565 C90.4251463,67.8640565 90.9686626,67.6381272 91.3599837,67.1953164 C92.0879309,66.3719651 92.0150041,65.1103268 91.197748,64.3774536 L85.3099634,59.0985846 C84.4927073,58.3657114 83.2400041,58.4391584 82.5123211,59.2619775 C81.784374,60.0853289 81.8570366,61.3469672 82.6745569,62.0798403 L88.5620772,67.3587094 C88.9399228,67.6974703 89.410248,67.8640565 89.8789878,67.8640565 Z M92.0475041,60.7865347 C92.4253496,61.1250295 92.8956748,61.2916158 93.3646789,61.2916158 C93.9105732,61.2916158 94.4540894,61.0659526 94.8454106,60.6231418 C95.5733577,59.7997904 95.5006951,58.5381522 94.6831748,57.805279 L88.7956545,52.52641 C87.9781341,51.7938029 86.7254309,51.8669838 85.997748,52.6898029 C85.2698008,53.5131543 85.3427276,54.7747925 86.1599837,55.5076657 L92.0475041,60.7865347 Z" id="Fill-1" fill="#FFFFFF" mask="url(#mask-2)"></path>
                </g>
            </g>
        </g>
    </g>
</svg>