<?xml version="1.0" encoding="UTF-8"?>
<svg width="110px" height="110px" viewBox="0 0 110 110" version="1.1" xmlns="http://www.w3.org/2000/svg" xmlns:xlink="http://www.w3.org/1999/xlink">
    <!-- Generator: Sketch 52.6 (67491) - http://www.bohemiancoding.com/sketch -->
    <title>Group 3</title>
    <desc>Created with Sketch.</desc>
    <g id="web" stroke="none" stroke-width="1" fill="none" fill-rule="evenodd">
        <g id="landing-icinc-video-background" transform="translate(-656.000000, -2603.000000)" fill="#FFFFFF">
            <g id="phase" transform="translate(185.000000, 2487.000000)">
                <g id="Group-3" transform="translate(471.000000, 116.000000)">
                    <path d="M4.46452008,53.5056855 C3.60373695,53.1956452 2.65504217,53.6458468 2.34624699,54.5105444 C2.03767269,55.3754637 2.48584538,56.3277621 3.34707028,56.6373589 L5.14108635,57.2825 C5.3255241,57.3490323 5.51415863,57.3805242 5.6997008,57.3805242 C6.37935944,57.3805242 7.01682932,56.9571573 7.25913855,56.2776411 C7.56793373,55.4129435 7.11976104,54.4606452 6.25831526,54.1508266 L4.46452008,53.5056855 Z M12.6687972,56.4566129 C11.8080141,56.1465726 10.8590984,56.5967742 10.5505241,57.4614718 C10.2417289,58.3261694 10.6901225,59.2784677 11.5513474,59.5882863 L26.5206245,64.9722984 C26.7050622,65.0388306 26.8936968,65.0703226 27.079239,65.0703226 C27.7588976,65.0703226 28.3963675,64.6467339 28.6386767,63.9674395 C28.9474719,63.1025202 28.4992992,62.1502218 27.6378534,61.840625 L12.6687972,56.4566129 Z M38.0483153,65.5850605 L36.7744799,65.126875 C35.9139177,64.8172782 34.965002,65.2668145 34.6564277,66.1319556 C34.3478534,66.9966532 34.7958052,67.9489516 35.657251,68.2585484 L36.9308655,68.7167339 C37.1155241,68.7832661 37.3041586,68.8145363 37.4897008,68.8145363 C38.1693594,68.8145363 38.8068293,68.3911694 39.0491386,67.711875 C39.3577129,66.8469556 38.9095402,65.8946573 38.0483153,65.5850605 Z M18.3899016,92.5190927 L8.07309438,91.9928226 C7.15223092,91.9449194 6.38068474,92.652379 6.33452008,93.5694153 C6.28813454,94.4868952 6.99098594,95.2684274 7.90478112,95.315 L18.2215884,95.8414919 C18.2503032,95.8428226 18.2787972,95.8434879 18.3070703,95.8434879 C19.1835361,95.8434879 19.9153233,95.1533266 19.9601627,94.2646774 C20.0065482,93.3471976 19.3036968,92.5656653 18.3899016,92.5190927 Z M71.0275522,95.2047782 L25.3185763,92.8728226 C24.3961667,92.8255847 23.6261667,93.5321573 23.580002,94.4494153 C23.5336165,95.3668952 24.2366888,96.1484274 25.1502631,96.195 L70.859239,98.5271774 C70.8879538,98.5287298 70.9164478,98.5293952 70.9447209,98.5293952 C71.8209659,98.5293952 72.5529739,97.8390121 72.5978133,96.9503629 C72.6441988,96.0331048 71.9411265,95.2513508 71.0275522,95.2047782 Z M19.3646606,77.0869355 L1.96809438,73.7463508 C1.06865663,73.5733669 0.201467871,74.1650605 0.0298413655,75.0674597 C-0.142006024,75.9696371 0.447090361,76.8409879 1.34564458,77.0135282 L18.7422108,80.3543347 C18.8473514,80.3742944 18.9520502,80.3840524 19.0554237,80.3840524 C19.834259,80.3840524 20.5289378,79.8296169 20.6804639,79.033004 C20.8523112,78.1308266 20.2632149,77.2594758 19.3646606,77.0869355 Z M37.5429337,80.5776613 L32.2920904,79.569254 C31.3924317,79.3967137 30.5254639,79.9881855 30.3538373,80.8903629 C30.18199,81.7927621 30.7710863,82.6641129 31.6696406,82.8366532 L36.9204839,83.8450605 C37.0256245,83.8652419 37.1303233,83.8747782 37.2334759,83.8747782 C38.0125321,83.8747782 38.70699,83.3203427 38.8587369,82.5239516 C39.0305843,81.6215524 38.441488,80.7504234 37.5429337,80.5776613 Z M92.5226124,15.7430847 C92.6955643,16.5164113 93.3794197,17.0420161 94.137492,17.0420161 C94.2578735,17.0420161 94.3798012,17.0287097 94.5021707,17.0009879 C95.394761,16.7996169 95.9558052,15.9100806 95.755243,15.0136694 L93.4903032,4.8941129 C93.2899618,3.99792339 92.4037771,3.43350806 91.510745,3.6359879 C90.6181546,3.83735887 90.0571104,4.72711694 90.2576727,5.62352823 L92.5226124,15.7430847 Z M95.2969096,20.5515927 C94.4043193,20.7529637 93.8432751,21.6427218 94.0438373,22.5391331 L104.078355,67.3732258 C104.251307,68.1467742 104.934942,68.672379 105.693014,68.672379 C105.813396,68.672379 105.935544,68.6590726 106.057693,68.6313508 C106.950283,68.4299798 107.511327,67.5402218 107.310765,66.6438105 L97.2764679,21.8097177 C97.0761265,20.91375 96.1910462,20.3491129 95.2969096,20.5515927 Z M84.6726325,42.4533468 L90.8995602,59.1012702 C91.1493795,59.7688105 91.7804438,60.1804234 92.4508253,60.1804234 C92.6443193,60.1804234 92.8411265,60.1460484 93.0330743,60.07375 C93.8896606,59.750625 94.3230341,58.7918952 94.0014277,57.9318548 L87.7745,41.2839315 C87.4524518,40.4238911 86.4980141,39.9887702 85.6412068,40.3114516 C84.7846205,40.6345766 84.3510261,41.5933065 84.6726325,42.4533468 Z M82.4249217,36.6932056 C82.66701,37.3736089 83.3047008,37.7974194 83.9850221,37.7974194 C84.1701225,37.7974194 84.3580944,37.7659274 84.5423112,37.6998387 C85.4039779,37.3909073 85.8528133,36.4390524 85.5449016,35.5741331 L84.6808052,33.1457056 C84.3731145,32.2805645 83.4253032,31.8305847 82.5634157,32.1390726 C81.7019699,32.4482258 81.2531345,33.4000806 81.5608253,34.265 L82.4249217,36.6932056 Z M55.2306245,25.3408065 C56.5468695,25.3408065 57.6590181,26.1396371 57.6590181,27.0848387 C57.6590181,28.0302621 56.5468695,28.828871 55.2306245,28.828871 C53.9143795,28.828871 52.8022309,28.0302621 52.8022309,27.0848387 C52.8022309,26.1396371 53.9143795,25.3408065 55.2306245,25.3408065 Z M60.9722711,9.58153226 L73.7477329,4.87171371 L73.7477329,7.18326613 L60.9722711,11.9043952 L60.9722711,9.58153226 Z M71.3193394,23.4060484 C70.0030944,23.4060484 68.8909458,22.6074395 68.8909458,21.6620161 C68.8909458,20.716371 70.0030944,19.9177621 71.3193394,19.9177621 C72.6355843,19.9177621 73.7477329,20.716371 73.7477329,21.6620161 C73.7477329,22.6074395 72.6355843,23.4060484 71.3193394,23.4060484 Z M55.2306245,32.1554839 C58.3965482,32.1554839 60.9722711,29.8809677 60.9722711,27.0848387 L60.9722711,15.4490121 L73.7477329,10.7278831 L73.7477329,17.0684073 C73.0095402,16.7628024 72.1869699,16.5911492 71.3193394,16.5911492 C68.1534157,16.5911492 65.5776928,18.8658871 65.5776928,21.6620161 C65.5776928,24.4579234 68.1534157,26.7326613 71.3193394,26.7326613 C74.4852631,26.7326613 77.0609859,24.4579234 77.0609859,21.6620161 C77.0609859,21.5568952 77.0563474,21.4531048 77.0488373,21.3497581 C77.0563474,21.2865524 77.0609859,21.2224597 77.0609859,21.1572581 L77.0609859,2.48919355 C77.0609859,1.945625 76.7965884,1.43643145 76.3526124,1.12550403 C75.9088574,0.814133065 75.3414076,0.740282258 74.8333755,0.927903226 L58.7446606,6.85925403 C58.0926124,7.09965726 57.6590181,7.72306452 57.6590181,8.42054435 L57.6590181,22.4914516 C56.9208253,22.1858468 56.098255,22.0141935 55.2306245,22.0141935 C52.0647008,22.0141935 49.4889779,24.2889315 49.4889779,27.0848387 C49.4889779,29.8809677 52.0647008,32.1554839 55.2306245,32.1554839 Z M8.45964056,33.1062298 C10.4517892,33.1062298 12.0726325,34.4983065 12.0726325,36.2095161 C12.0726325,37.920504 10.4517892,39.3125806 8.45964056,39.3125806 C6.46749197,39.3125806 4.84664859,37.920504 4.84664859,36.2095161 C4.84664859,34.4983065 6.46749197,33.1062298 8.45964056,33.1062298 Z M15.3858855,13.4670161 C15.3858855,12.9469556 15.7894398,12.5291331 16.304761,12.5153831 C18.5372309,12.4561694 19.9535361,12.0532056 21.357251,11.077621 C21.9481145,10.6668952 22.3496807,10.152379 22.6483153,9.61967742 C23.4242791,10.6560282 24.6963474,11.2346371 26.1769297,11.1264113 C28.1491988,10.9815927 29.480243,9.33358871 30.889259,7.5891129 C31.2981145,7.08280242 31.7102831,6.5725 32.1407851,6.08991935 C32.1078735,6.80358871 32.1871707,7.6166129 32.4385361,8.53320565 C32.8809659,10.1463911 32.3689578,12.1731855 31.1934157,13.4616935 C29.988496,14.783246 28.2028735,15.2704839 26.0318092,14.8717339 C25.5231145,14.7785887 24.9998414,14.9287298 24.6177129,15.2786895 C24.2355843,15.6282056 24.0378936,16.1371774 24.0833956,16.6545766 C24.0970904,16.8082661 24.190745,17.6201815 24.7076124,18.5048387 C24.7224116,18.5303427 24.7378735,18.5562903 24.7537771,18.5826815 C23.796247,18.5593952 22.8230341,18.3203226 22.0444197,17.6627621 C20.3853635,16.2620363 18.6202831,15.7865524 17.0429538,15.7865524 C16.4602631,15.7865524 15.9025321,15.8515323 15.3858855,15.958871 L15.3858855,13.4670161 Z M8.45964056,42.6391935 C12.2789378,42.6391935 15.3858855,39.7547984 15.3858855,36.2095161 L15.3858855,19.4005847 C16.3767691,19.0308871 18.1542189,18.7246169 19.91201,20.2087298 C23.9360663,23.6065323 29.8186365,20.881371 30.0673514,20.7638306 C30.7688775,20.4318347 31.1468092,19.655625 30.9771707,18.8958266 C30.8830743,18.4729032 30.6328133,18.1180645 30.2955241,17.8865323 C31.5753233,17.4587298 32.7075723,16.7270968 33.6368293,15.7087097 C35.6013675,13.5550605 36.3848414,10.3921169 35.6327329,7.64987903 C35.3265884,6.53280242 35.3888775,5.67032258 35.8235763,5.01254032 C36.5339378,3.93737903 38.1810663,3.50558468 38.746749,3.43084677 C39.5651225,3.33237903 40.1869096,2.64465726 40.2056847,1.81766129 C40.2244598,0.990221774 39.6347008,0.275 38.8218494,0.138608871 C33.3753032,-0.770665323 30.3308655,2.9983871 28.315745,5.49379032 C27.4971506,6.50729839 26.4782149,7.76875 25.9352831,7.80844758 C25.4223916,7.84681452 25.3203434,7.66141129 25.269761,7.57270161 C25.1323715,7.33207661 25.1414277,7.01050403 25.1942189,6.84239919 C25.8941988,6.61641129 26.3724116,5.94576613 26.3410462,5.190625 C26.3070301,4.36118952 25.6693394,3.68433468 24.8467691,3.60360887 C21.5516285,3.28048387 20.6572711,5.70092742 20.1766285,7.00096774 C19.9588373,7.59 19.7536365,8.14643145 19.4711265,8.34247984 C18.7329337,8.8558871 17.9956245,9.1428629 16.2172912,9.19010081 C13.8933755,9.25175403 12.0726325,11.1304032 12.0726325,13.4670161 L12.0726325,18.1987903 C12.0598213,18.3178831 12.0598213,18.4385282 12.0726325,18.5587298 L12.0726325,30.7261492 C11.0201225,30.12625 9.78273293,29.7796169 8.45964056,29.7796169 C4.64056426,29.7796169 1.53339558,32.6637903 1.53339558,36.2095161 C1.53339558,39.7547984 4.64056426,42.6391935 8.45964056,42.6391935 Z M105.82444,103.900544 L103.971227,105.761452 C102.881388,106.855907 101.116086,106.918226 99.9529137,105.902944 L79.5205241,88.0796169 C81.7901024,86.5258669 85.5409257,83.560746 88.2608855,79.4058065 L105.965143,99.86625 C106.976127,101.034335 106.914058,102.806532 105.82444,103.900544 Z M68.7418494,78.6775 C70.9584157,77.7853024 73.0349418,76.4400202 74.8280743,74.6401008 C76.6207651,72.8399597 77.9604237,70.7550605 78.849259,68.5293347 L85.9875522,76.7786694 C83.2781948,81.3609677 78.8651627,84.5551815 76.9211667,85.8126411 L68.7418494,78.6775 Z M51.3735562,72.2875202 C45.5530542,66.4437702 45.5530542,56.9349798 51.3735562,51.0910081 C54.2836968,48.1691331 58.1065281,46.7080847 61.9291386,46.7080847 C65.7521908,46.7080847 69.5748012,48.1691331 72.4849418,51.0910081 C78.3056647,56.9349798 78.3056647,66.4437702 72.4849418,72.2875202 C66.6651024,78.1317137 57.1940582,78.1317137 51.3735562,72.2875202 Z M108.466649,97.6844355 L79.913255,64.6862097 C80.8363273,59.0553629 79.1445803,53.0727823 74.8280743,48.7386492 C67.7154036,41.5975202 56.1433153,41.5979637 49.0306446,48.7386492 C41.9181948,55.8797782 41.9181948,67.4989718 49.0306446,74.6401008 C52.5868695,78.2104435 57.2581145,79.9957258 61.9293594,79.9957258 C62.9284157,79.9957258 63.9261466,79.9090121 64.9141586,79.7457863 L97.7798614,108.414093 C98.9556245,109.439798 100.420745,109.947661 101.883215,109.947661 C103.493677,109.947661 105.100604,109.331794 106.314139,108.11381 L108.167351,106.252903 C110.481769,103.928931 110.612974,100.165202 108.466649,97.6844355 Z" id="Fill-1"></path>
                </g>
            </g>
        </g>
    </g>
</svg>