<?xml version="1.0" encoding="UTF-8"?>
<svg width="100px" height="105px" viewBox="0 0 100 105" version="1.1" xmlns="http://www.w3.org/2000/svg" xmlns:xlink="http://www.w3.org/1999/xlink">
    <!-- Generator: Sketch 52.6 (67491) - http://www.bohemiancoding.com/sketch -->
    <title>Fill 1</title>
    <desc>Created with Sketch.</desc>
    <g id="web" stroke="none" stroke-width="1" fill="none" fill-rule="evenodd">
        <g id="Pop-up-thank-you" transform="translate(-670.000000, -342.000000)" fill="#FFFFFF">
            <g id="Group-4" transform="translate(384.000000, 287.000000)">
                <path d="M324.028424,127.079809 L324.028424,123.577661 L330.366317,123.577661 C331.532489,123.577661 332.478948,122.636284 332.478948,121.476372 C332.478948,120.316461 331.532489,119.375083 330.366317,119.375083 L324.028424,119.375083 L324.028424,112.370787 L330.366317,112.370787 C331.532489,112.370787 332.478948,111.42941 332.478948,110.269499 C332.478948,109.109587 331.532489,108.16821 330.366317,108.16821 L324.028424,108.16821 L324.028424,103.965632 L330.366317,103.965632 C331.532489,103.965632 332.478948,103.024255 332.478948,101.864343 C332.478948,100.704432 331.532489,99.7630547 330.366317,99.7630547 L324.028424,99.7630547 L324.028424,96.2609067 C324.028424,92.7867759 326.873434,89.9570403 330.366317,89.9570403 L341.633683,89.9570403 C345.126566,89.9570403 347.971576,92.7867759 347.971576,96.2609067 L347.971576,99.7630547 L341.633683,99.7630547 C340.467511,99.7630547 339.521052,100.704432 339.521052,101.864343 C339.521052,103.024255 340.467511,103.965632 341.633683,103.965632 L347.971576,103.965632 L347.971576,108.16821 L341.633683,108.16821 C340.467511,108.16821 339.521052,109.109587 339.521052,110.269499 C339.521052,111.42941 340.467511,112.370787 341.633683,112.370787 L347.971576,112.370787 L347.971576,119.375083 L341.633683,119.375083 C340.467511,119.375083 339.521052,120.316461 339.521052,121.476372 C339.521052,122.636284 340.467511,123.577661 341.633683,123.577661 L347.971576,123.577661 L347.971576,127.079809 C347.971576,130.55394 345.126566,133.383675 341.633683,133.383675 L330.366317,133.383675 C326.873434,133.383675 324.028424,130.55394 324.028424,127.079809 Z M341.633683,137.586253 C347.456094,137.586253 352.196838,132.870961 352.196838,127.079809 L352.196838,96.2609067 C352.196838,90.4697548 347.456094,85.7544627 341.633683,85.7544627 L330.366317,85.7544627 C324.543906,85.7544627 319.803162,90.4697548 319.803162,96.2609067 L319.803162,127.079809 C319.803162,132.870961 324.543906,137.586253 330.366317,137.586253 L341.633683,137.586253 Z M385.90598,90.6602716 C385.686267,89.9542386 385.108814,89.413507 384.384886,89.2398004 L354.729179,82.0870134 L337.777427,55.8993516 C336.997162,54.7002161 335.002838,54.7002161 334.222573,55.8993516 L317.270821,82.0870134 L287.615114,89.2398004 C286.891186,89.413507 286.313733,89.9542386 286.09402,90.6602716 C285.874306,91.3691064 286.046133,92.1367772 286.541897,92.6887157 L307.676659,116.018625 L304.3049,146.462097 C304.223211,147.210156 304.547148,147.944206 305.158403,148.386877 C305.769657,148.837954 306.572457,148.916402 307.262583,148.613816 L319.958088,143.01038 C321.022854,142.539691 321.504534,141.295728 321.031304,140.233877 C320.558075,139.174827 319.313031,138.695733 318.239815,139.166422 L308.907619,143.28775 L311.980793,115.542333 C312.04558,114.945567 311.854035,114.351602 311.451227,113.906129 L292.054456,92.4925955 L319.084867,85.9729968 C319.614433,85.8469194 320.070761,85.5247218 320.363713,85.0708435 L336,60.920031 L351.636287,85.0708435 C351.929239,85.5247218 352.385567,85.8469194 352.915133,85.9729968 L379.945544,92.4925955 L360.548773,113.906129 C360.145965,114.351602 359.95442,114.945567 360.019207,115.542333 L363.092381,143.28775 L353.760185,139.166422 C352.692603,138.698535 351.444742,139.172026 350.968696,140.233877 C350.495466,141.295728 350.977146,142.539691 352.041912,143.01038 L364.737417,148.613816 C365.013467,148.73429 365.303602,148.793126 365.596553,148.793126 C366.035981,148.793126 366.475408,148.655842 366.841597,148.386877 C367.452852,147.944206 367.776789,147.210156 367.6951,146.462097 L364.323341,116.018625 L385.458103,92.6887157 C385.953867,92.1367772 386.125694,91.3691064 385.90598,90.6602716 Z M347.267366,155.797422 L338.112631,155.797422 L338.112631,145.991408 L341.633683,145.991408 C342.799855,145.991408 343.746314,145.050031 343.746314,143.890119 C343.746314,142.730208 342.799855,141.78883 341.633683,141.78883 L330.366317,141.78883 C329.200145,141.78883 328.253686,142.730208 328.253686,143.890119 C328.253686,145.050031 329.200145,145.991408 330.366317,145.991408 L333.887369,145.991408 L333.887369,155.797422 L324.732634,155.797422 C323.566462,155.797422 322.620003,156.7388 322.620003,157.898711 C322.620003,159.058623 323.566462,160 324.732634,160 L347.267366,160 C348.433538,160 349.379997,159.058623 349.379997,157.898711 C349.379997,156.7388 348.433538,155.797422 347.267366,155.797422 Z" id="Fill-1"></path>
            </g>
        </g>
    </g>
</svg>