<?xml version="1.0" encoding="UTF-8"?>
<svg width="110px" height="100px" viewBox="0 0 110 100" version="1.1" xmlns="http://www.w3.org/2000/svg" xmlns:xlink="http://www.w3.org/1999/xlink">
    <!-- Generator: Sketch 52.6 (67491) - http://www.bohemiancoding.com/sketch -->
    <title>Group 3</title>
    <desc>Created with Sketch.</desc>
    <g id="web" stroke="none" stroke-width="1" fill="none" fill-rule="evenodd">
        <g id="landing-icinc-video-background" transform="translate(-278.000000, -2614.000000)" fill="#FFFFFF">
            <g id="phase" transform="translate(185.000000, 2487.000000)">
                <g id="Group-3" transform="translate(93.000000, 127.000000)">
                    <path d="M33.1275435,9.35089927 C33.2131655,9.36521779 33.2959334,9.3738089 33.3801283,9.3738089 C34.0765203,9.3738089 34.6929985,8.87266079 34.8171504,8.15959864 L35.9387981,1.71626588 C36.0772203,0.920156324 35.5463641,0.161274911 34.7529339,0.0223852936 C33.9580766,-0.117936175 33.2017492,0.416144517 33.0619,1.21225408 L31.9402522,7.65558683 C31.800403,8.45312824 32.3326863,9.2105778 33.1275435,9.35089927 Z M26.3577,11.0190065 C26.6459606,11.3755376 27.0669353,11.5602465 27.490764,11.5602465 C27.8132734,11.5602465 28.1400639,11.4528576 28.4097731,11.2323524 C29.0362405,10.7226132 29.1318517,9.79906886 28.623828,9.1719178 L24.1529343,3.65212941 C23.6449106,3.0235465 22.7259015,2.92904429 22.0994341,3.4387835 C21.4743938,3.94852272 21.3787826,4.87063523 21.8868062,5.49921813 L26.3577,11.0190065 Z M24.9577808,17.1000808 C25.7112541,17.1000808 26.3491378,16.5201808 26.4119272,15.755572 C26.4775707,14.9494395 25.881071,14.2421048 25.0762245,14.1762396 L18.5803712,13.640727 C17.7769518,13.57343 17.0705706,14.1733759 17.004927,14.9795084 C16.9392835,15.7870728 17.5372103,16.4929757 18.3420568,16.5602727 L24.836483,17.0957852 C24.879294,17.0986489 24.9192509,17.1000808 24.9577808,17.1000808 Z M84.4621942,55.4207285 L89.6851342,50.1801512 L99.3532814,59.8823784 C100.31082,60.8417191 101.131364,61.9084486 101.810632,63.0496344 L96.9373148,67.9379762 L84.4621942,55.4207285 Z M90.9452041,91.2585452 L89.3383652,92.8722421 L68.2382584,71.6994507 L69.8436702,70.0857538 L90.9452041,91.2585452 Z M67.787316,12.5739975 C67.785889,12.5754293 67.785889,12.5754293 67.7844619,12.5768612 L31.3737202,49.1091261 C29.7055189,50.7858244 26.9870214,50.7858244 25.315966,49.1091261 C23.6449106,47.4338595 23.6449106,44.706182 25.315966,43.0294836 L61.7267077,6.49721878 C62.5358353,5.68535886 63.611818,5.23718927 64.7562983,5.23718927 C65.9007786,5.23718927 66.9767614,5.68535886 67.785889,6.49721878 C68.5950166,7.30907871 69.0402508,8.38869491 69.0402508,9.53703999 C69.0402508,10.6839532 68.5950166,11.7635694 67.787316,12.5739975 Z M37.2559494,19.1676747 C38.5616844,17.8575304 40.2969563,17.1358771 42.1435367,17.1358771 C43.4949368,17.1358771 44.7849744,17.5239089 45.8909248,18.2426985 L36.3340862,27.8332413 C34.6073765,25.1470875 34.9141886,21.5187752 37.2559494,19.1676747 Z M90.8167712,71.8182944 C91.1021778,72.1046647 91.4760603,72.2478499 91.8485159,72.2478499 C92.2223985,72.2478499 92.5962811,72.1046647 92.8816876,71.8182944 L94.7782142,69.9153634 L95.9041431,71.0465263 C96.1895497,71.3328967 96.5634322,71.4760818 96.9373148,71.4760818 C97.3111974,71.4760818 97.683653,71.3328967 97.9690595,71.0465263 L103.136345,65.8632231 C103.700023,67.4425555 104.025387,69.1135265 104.081041,70.8288848 C104.105301,71.6364492 104.788849,72.2721914 105.585134,72.2449862 C106.392834,72.2192129 107.023583,71.5433789 106.999323,70.7343826 C106.842349,65.854632 104.861628,61.2641153 101.418198,57.810489 L90.7154519,47.0730329 C90.4428886,46.7981174 90.0718601,46.6434774 89.6851342,46.6434774 C89.2969813,46.6434774 88.9259527,46.7981174 88.6519624,47.0730329 L87.5931041,48.1354669 L84.6762491,42.2620111 C84.6691139,42.2476926 84.6619788,42.2319422 84.6534166,42.2176237 L70.5557596,13.8268678 C71.4676336,12.5926116 71.9599599,11.1020539 71.9599599,9.53703999 C71.9599599,7.60690387 71.2107677,5.79131589 69.8493784,4.42676119 C68.4894161,3.06077465 66.6813656,2.3090525 64.7562983,2.3090525 C62.8312311,2.3090525 61.0231806,3.06077465 59.6632183,4.42676119 L47.9900901,16.1364446 C46.3076184,14.8835743 44.2783778,14.2077403 42.1435367,14.2077403 C39.5192234,14.2077403 37.0490296,15.2329461 35.1910329,17.0972171 C31.7076459,20.5923671 31.3894176,26.0792229 34.234921,29.9380633 L23.2524766,40.9590261 C20.442649,43.7769102 20.442649,48.3631313 23.2524766,51.1810155 C24.6566769,52.5899576 26.5004032,53.2944286 28.3455566,53.2944286 C30.0808285,53.2944286 31.8146734,52.6715731 33.1831978,51.4258621 L41.0789703,55.3734773 C41.2887441,55.4780025 41.5113612,55.5281173 41.7296972,55.5281173 C42.2662615,55.5281173 42.7828474,55.2302922 43.0368592,54.7162574 C43.3964715,53.9917404 43.1039298,53.1125835 42.3818512,52.7517568 L35.369412,49.245152 L68.4166375,16.0877616 L76.6734492,32.7144238 L68.4494592,40.9661853 C67.8800731,41.5374942 67.8800731,42.4653341 68.4494592,43.0380748 C68.7348658,43.3244451 69.1087484,43.4661984 69.4826309,43.4661984 C69.8550865,43.4661984 70.2303961,43.3244451 70.5143757,43.0380748 L78.0476818,35.4807614 L78.886777,37.1732101 L73.9092867,42.1675089 C73.3399006,42.7388177 73.3399006,43.6666577 73.9092867,44.2393984 C74.1946932,44.5243368 74.5685758,44.6689539 74.9424584,44.6689539 C75.314914,44.6689539 75.6887966,44.5243368 75.9742031,44.2393984 L80.2610096,39.9381158 L81.5924312,42.6199741 L73.4854579,50.7543237 C72.9160718,51.3270644 72.9160718,52.2534724 73.4854579,52.8262131 C73.7708645,53.1111516 74.1447471,53.2557687 74.5186297,53.2557687 C74.8925123,53.2557687 75.2663949,53.1111516 75.5518014,52.8262131 L82.9666638,45.3863116 L85.4168791,50.3190408 L69.4883391,66.3013697 L47.202368,55.1601314 C46.4802894,54.7993048 45.6040912,55.0942663 45.244479,55.8173514 C44.8848667,56.5418684 45.1788355,57.4210253 45.899487,57.7818519 L67.310687,68.4863754 L65.1415972,70.66279 C64.8676069,70.9377056 64.7134874,71.309987 64.7134874,71.6980188 C64.7134874,72.0874825 64.8676069,72.459764 65.1415972,72.7346795 L71.0338156,78.6467953 C69.8607946,79.74073 67.4990554,81.507635 63.9371815,82.2063786 C63.1466054,82.3610186 62.6300195,83.1313549 62.784139,83.9260326 C62.9211342,84.6247762 63.5319042,85.1087421 64.2154529,85.1087421 C64.3096371,85.1087421 64.4038212,85.100151 64.4980054,85.0815369 C68.8133526,84.2353125 71.6545749,82.0975579 73.1030131,80.7229803 L78.6356193,86.2742694 C72.1426201,93.1256799 64.9960398,96.8499262 57.8994058,97.0604084 C53.8494867,97.1792521 50.8013447,96.1282729 49.4071336,95.5283271 L50.8470097,83.3489963 C53.5783505,84.4543858 56.2383396,85.1273562 58.7770309,85.3550206 C59.5761693,85.4237495 60.2882587,84.8309628 60.3596103,84.0248303 C60.432389,83.2201297 59.8387433,82.5070675 59.0353239,82.4354749 C56.2725884,82.1891964 53.3143494,81.3315172 50.2476559,79.8925063 C49.8238272,79.692047 49.3300739,79.7092292 48.9190884,79.9383255 C48.50953,80.1674218 48.2341127,80.5783632 48.1798854,81.0451469 L46.3846782,96.2184796 C46.3161806,96.7983795 46.595879,97.363961 47.0996216,97.6560587 C47.2665844,97.7548565 51.1766543,100 57.2515329,100 C57.431339,100 57.6125722,99.9985681 57.7966594,99.9942726 C63.3820658,99.8711333 71.8044133,97.7147647 80.7019628,88.3475907 L88.3066205,95.9779285 C88.5791838,96.252844 88.9516393,96.407484 89.3397923,96.407484 C89.7265181,96.407484 90.0975467,96.252844 90.371537,95.9779285 L101.418198,84.8939643 C103.705731,82.5972742 105.383922,79.7450255 106.270109,76.6422028 C106.491299,75.8632755 106.043211,75.0528474 105.268332,74.8294786 C104.493453,74.6075415 103.684326,75.057143 103.461709,75.8346385 C102.712517,78.4606545 101.292619,80.8776202 99.3532814,82.8220749 L93.0115476,89.1866558 L71.9100137,68.0152962 L82.3958507,57.4926179 L88.8531741,63.9703151 L86.9566475,65.873246 C86.3858344,66.4459867 86.3858344,67.3723948 86.9566475,67.9451355 C87.240627,68.2315058 87.6145096,68.374691 87.9883922,68.374691 C88.3622748,68.374691 88.7361574,68.2315058 89.0201369,67.9451355 L90.9166635,66.0422045 L92.7132978,67.8449059 L90.8167712,69.7478368 C90.2459581,70.3191456 90.2459581,71.2469856 90.8167712,71.8182944 Z" id="Fill-1"></path>
                    <path d="M107.369268,17 L104.981707,17 C103.887012,17 103,17.8933389 103,18.995842 C103,20.098079 103.887012,20.991684 104.981707,20.991684 L107.369268,20.991684 C108.463699,20.991684 109.350976,20.098079 109.350976,18.995842 C109.350976,17.8933389 108.463699,17 107.369268,17 Z" id="Path"></path>
                    <path d="M15.3692683,67 L12.9817073,67 C11.8870122,67 11,67.8933389 11,68.995842 C11,70.098079 11.8870122,70.991684 12.9817073,70.991684 L15.3692683,70.991684 C16.4636992,70.991684 17.3509756,70.098079 17.3509756,68.995842 C17.3509756,67.8933389 16.4636992,67 15.3692683,67 Z" id="Path-Copy-5"></path>
                    <path d="M96.3692683,17 L93.9817073,17 C92.8870122,17 92,17.8933389 92,18.995842 C92,20.098079 92.8870122,20.991684 93.9817073,20.991684 L96.3692683,20.991684 C97.4636992,20.991684 98.3509756,20.098079 98.3509756,18.995842 C98.3509756,17.8933389 97.4636992,17 96.3692683,17 Z" id="Path"></path>
                    <path d="M4.36926829,67 L1.98170732,67 C0.887012195,67 0,67.8933389 0,68.995842 C0,70.098079 0.887012195,70.991684 1.98170732,70.991684 L4.36926829,70.991684 C5.46369919,70.991684 6.35097561,70.098079 6.35097561,68.995842 C6.35097561,67.8933389 5.46369919,67 4.36926829,67 Z" id="Path-Copy-6"></path>
                    <path d="M100.981707,21 C99.8870122,21 99,21.8933389 99,22.995842 L99,25.4004324 C99,26.5026694 99.8870122,27.3962744 100.981707,27.3962744 C102.076138,27.3962744 102.963415,26.5026694 102.963415,25.4004324 L102.963415,22.995842 C102.963415,21.8933389 102.076138,21 100.981707,21 Z" id="Path"></path>
                    <path d="M8.98170732,71 C7.8870122,71 7,71.8933389 7,72.995842 L7,75.4004324 C7,76.5026694 7.8870122,77.3962744 8.98170732,77.3962744 C10.0761382,77.3962744 10.9634146,76.5026694 10.9634146,75.4004324 L10.9634146,72.995842 C10.9634146,71.8933389 10.0761382,71 8.98170732,71 Z" id="Path-Copy-7"></path>
                    <path d="M100.981707,10 C99.8870122,10 99,10.8933389 99,11.995842 L99,14.4004324 C99,15.5026694 99.8870122,16.3962744 100.981707,16.3962744 C102.076138,16.3962744 102.963415,15.5026694 102.963415,14.4004324 L102.963415,11.995842 C102.963415,10.8933389 102.076138,10 100.981707,10 Z" id="Path"></path>
                    <path d="M8.98170732,60 C7.8870122,60 7,60.8933389 7,61.995842 L7,64.4004324 C7,65.5026694 7.8870122,66.3962744 8.98170732,66.3962744 C10.0761382,66.3962744 10.9634146,65.5026694 10.9634146,64.4004324 L10.9634146,61.995842 C10.9634146,60.8933389 10.0761382,60 8.98170732,60 Z" id="Path-Copy-8"></path>
                </g>
            </g>
        </g>
    </g>
</svg>