<?xml version="1.0" encoding="UTF-8"?>
<svg width="124px" height="100px" viewBox="0 0 124 100" version="1.1" xmlns="http://www.w3.org/2000/svg" xmlns:xlink="http://www.w3.org/1999/xlink">
    <!-- Generator: Sketch 52.6 (67491) - http://www.bohemiancoding.com/sketch -->
    <title>Asset 1</title>
    <desc>Created with Sketch.</desc>
    <defs>
        <path d="M106.343284,50 C106.343284,77.6142375 83.9575211,100 56.3432836,100 C34.4389761,100 15.8244571,85.9147411 9.06296521,66.3074618 C7.3004057,61.1963122 2.23880597,63.9188852 2.23880597,58.2089552 C2.23880597,44.8755463 -2.98507463,27.6119403 2.98507463,16.2932836 C3.77983421,14.7865188 22.2360256,13.4067652 23.3921664,12.3929446 C32.1910776,4.67717264 43.7209745,2.31868056e-15 56.3432836,0 C69.6041081,-2.13250322e-15 82.3218037,5.26784202 91.6986226,14.6446609 C101.075442,24.0214799 106.343284,36.7391755 106.343284,50 Z" id="path-1"></path>
    </defs>
    <g id="Page-1" stroke="none" stroke-width="1" fill="none" fill-rule="evenodd">
        <g id="RFC-Success" transform="translate(-568.000000, -120.000000)">
            <g id="Asset-1" transform="translate(568.000000, 120.000000)">
                <path d="M123.507463,50 C123.507463,77.6142375 101.1217,100 73.5074627,100 C45.8932252,100 23.5074627,77.6142375 23.5074627,50 C23.5074627,22.3857625 45.8932252,5.07265313e-15 73.5074627,0 C86.7682872,-2.13250322e-15 99.4859828,5.26784202 108.862802,14.6446609 C118.239621,24.0214799 123.507463,36.7391755 123.507463,50 Z" id="Path" fill="#FDB913"></path>
                <g id="Group-2" transform="translate(17.164179, 0.000000)">
                    <mask id="mask-2" fill="white">
                        <use xlink:href="#path-1"></use>
                    </mask>
                    <use id="Path-Copy" fill="#FDB913" opacity="0" xlink:href="#path-1"></use>
                    <g id="Group" mask="url(#mask-2)">
                        <g transform="translate(-6.716418, 8.955224)">
                            <g id="Group" opacity="0" stroke-width="1" fill="none" fill-rule="evenodd">
                                <rect id="Rectangle" fill="#FFFFFF" x="0.5" y="0.268656716" width="111.813433" height="95.8432836"></rect>
                            </g>
                            <path d="M25.6567164,43.380597 C25.6567164,43.380597 40.4328358,71.4850746 54.4104478,76.261194 C68.3880597,81.0373134 76.0522388,69.2910448 76.0522388,69.2910448 L74.7537313,65.4776119 L77.1492537,62.4925373 C77.1492537,62.4925373 72.7537313,61.9626866 67.9626866,67.261194 C63.1716418,72.5597015 50.5447761,65.119403 51.0820896,38.6044776 L25.6567164,43.380597 Z" id="Path" fill="#0082C6" fill-rule="evenodd"></path>
                            <path d="M51.0820896,38.6044776 L31.6791045,44.238806 C31.6791045,44.238806 30.4477612,53.9850746 39.2313433,64.0597015 C42.2985075,61.6119403 43.0447761,53.9328358 45.7537313,53.1044776 C47.6716418,52.5149254 50,50.7313433 51.7238806,49.261194 C51.2213512,45.7322333 51.0067131,42.1682422 51.0820896,38.6044776 Z M77.2014925,62.4850746 C77.2014925,62.4850746 74.2164179,62.1343284 70.4850746,64.9776119 C70.6716418,68.5 69.1119403,73.0298507 67.9029851,75.9552239 C71.1757853,74.4982216 74.0070797,72.2048731 76.1119403,69.3059701 L74.8134328,65.4925373 L77.2014925,62.4850746 Z" id="Shape" fill="#006699" fill-rule="nonzero"></path>
                            <path d="M86.7537313,67.1641791 C86.7537313,67.1641791 95.7089552,78.5447761 97.5373134,86.1343284 C97.5373134,86.1343284 91.9477612,89.3283582 90.1492537,89.3283582 C90.1492537,89.3283582 88.5447761,76.641791 84.5597015,71.7313433 C84.5597015,71.7238806 84.1567164,67.1641791 86.7537313,67.1641791 Z" id="Path" fill="#0082C6" fill-rule="evenodd"></path>
                            <path d="M88.9104478,70.0522388 C87.641791,68.2761194 86.7537313,67.1567164 86.7537313,67.1567164 C84.1567164,67.1567164 84.5597015,71.7238806 84.5597015,71.7238806 C85.226373,72.5855361 85.789908,73.5222564 86.238806,74.5149254 C86.9839899,72.9450275 87.8786691,71.4505633 88.9104478,70.0522388 Z" id="Path" fill="#006699" fill-rule="evenodd"></path>
                            <path d="M75.880597,65.0820896 C75.880597,65.0820896 63.0597015,78.358209 67.5373134,95.5223881 C71.2014925,97.1940299 75.1268657,91.238806 79.4776119,91.238806 C82.1815036,91.2423832 84.8731582,90.875796 87.4776119,90.1492537 C85.5447761,81.7462687 83.8208955,69.5447761 88.5447761,64.8208955 L75.880597,65.0820896 Z" id="Path" fill="#0082C6" fill-rule="evenodd"></path>
                            <path d="M74.0522388,67.4253731 C76.6343284,68.9179104 80.5223881,70.3208955 85.9925373,70.3208955 C86.287249,68.2730818 87.1833182,66.3588703 88.5671642,64.8208955 L75.880597,65.0820896 C75.2278471,65.8284145 74.6174373,66.6107358 74.0522388,67.4253731 Z" id="Path" fill="#006699" fill-rule="evenodd"></path>
                            <path d="M107.291045,33.5820896 C110.518987,48.3514847 101.169313,62.9430208 86.4023315,66.1819874 C71.6353502,69.4209541 57.0368384,60.0821757 53.7868488,45.3176165 C50.5368591,30.5530573 59.8647368,15.947578 74.6268657,12.6865672 C81.7300115,11.117455 89.1655877,12.4386227 95.2934145,16.3586398 C101.421241,20.2786569 105.737845,26.4754474 107.291045,33.5820896 Z" id="Path" fill="#0082C6" fill-rule="evenodd"></path>
                            <path d="M57.3507463,45.4402985 C57.3507463,45.4402985 61.5223881,51.0895522 81.1119403,47.2089552 C103.798507,42.7313433 102.477612,34.0223881 102.477612,34.0223881 C102.477612,34.0223881 110.037313,51.3059701 97.4850746,60.3507463 C87.7014925,67.3955224 80.4179104,65.8507463 80.4179104,65.8507463 C80.4179104,65.8507463 66.0671642,67.7537313 57.3507463,45.4402985 Z" id="Path" fill="#510D3A" fill-rule="evenodd"></path>
                            <path d="M82.0895522,52.3656716 C99.0597015,48.6343284 102.067164,42.1044776 101.656716,37.0746269 C100.014925,40.0149254 95.1865672,44.4253731 81.1044776,47.2089552 C69.380597,49.5298507 63.1940299,48.4402985 60.0970149,47.2089552 C62.0895522,50.5671642 67.5447761,55.5671642 82.0895522,52.3656716 Z" id="Path" fill="#FFFFFF" fill-rule="evenodd"></path>
                            <path d="M92.0298507,54.7014925 C86.6641791,54.3134328 85.3134328,56.6567164 85.1268657,58.7238806 C84.0895522,56.9253731 81.8731343,55.3656716 77.1641791,57.9776119 C74.7564928,59.2535149 72.8210552,61.2674161 71.641791,63.7238806 C76.5746269,66.358209 80.4477612,65.8507463 80.4477612,65.8507463 C80.4477612,65.8507463 87.7313433,67.3955224 97.5149254,60.3507463 C98.4390492,59.686745 99.2985676,58.9371651 100.08209,58.1119403 C97.8917281,56.0495178 95.035209,54.8396667 92.0298507,54.7014925 Z" id="Path" fill="#ED125F" fill-rule="evenodd"></path>
                            <path d="M99.9328358,50.7835821 C97.3358209,49.7835821 97.738806,52.380597 98.1343284,54.1791045 C98.5298507,55.9776119 95.738806,58.7686567 90.1492537,61.7686567 C84.5597015,64.7686567 75.9701493,63.3656716 73.380597,62.1641791 C70.7910448,60.9626866 73.5746269,56.9402985 71.141791,58.1716418 C69.3731343,59.0522388 69.5671642,61.4626866 69.7835821,62.6492537 C70.3955224,63.0522388 70.9925373,63.3955224 71.5746269,63.7164179 C72.1865672,64.0447761 72.7761194,64.3208955 73.3507463,64.5597015 C75.5519514,65.5359486 77.9541642,65.9734123 80.358209,65.8358209 C80.358209,65.8358209 87.641791,67.380597 97.4253731,60.3358209 C97.8955224,60 98.3208955,59.641791 98.738806,59.2835821 L98.8880597,59.1492537 C99.2761194,58.8059701 99.6343284,58.4552239 99.9776119,58.0895522 C100.729681,57.2734377 101.397259,56.383334 101.970149,55.4328358 C101.858209,53.2835821 101.268657,51.2985075 99.9328358,50.7835821 Z" id="Path" fill="#FFFFFF" fill-rule="evenodd"></path>
                            <path d="M82.9626866,39.2014925 C82.8736478,39.2022691 82.7851887,39.1871046 82.7014925,39.1567164 C82.5022668,39.0888652 82.338293,38.9444196 82.2458555,38.7553429 C82.153418,38.5662663 82.1401384,38.348148 82.2089552,38.1492537 C84.1164782,33.2081211 89.1931622,30.2482717 94.4328358,31.0223881 C94.7327628,31.032895 95.0014714,31.2106854 95.1284241,31.4826221 C95.2553767,31.7545589 95.2191326,32.0747153 95.0346013,32.3113897 C94.8500701,32.5480642 94.5484167,32.6612853 94.2537313,32.6044776 C86.2313433,31.7089552 83.8059701,38.380597 83.7164179,38.6641791 C83.6051974,38.9854919 83.3027038,39.2011309 82.9626866,39.2014925 Z" id="Path" fill="#00374C" fill-rule="evenodd"></path>
                            <path d="M77.1716418,40.2014925 C76.9433855,40.2013859 76.7260867,40.1036014 76.5746269,39.9328358 C76.4179104,39.761194 72.7238806,35.8059701 65.5149254,39.9328358 C65.2669966,40.1046247 64.9434258,40.1220493 64.6784822,39.9778793 C64.4135387,39.8337093 64.2524428,39.5525513 64.2620431,39.2510751 C64.2716433,38.9495988 64.4503012,38.67926 64.7238806,38.5522388 C73.119403,33.7313433 77.7238806,38.8134328 77.7686567,38.8656716 C78.0611277,39.1954484 78.0310648,39.699836 77.7014925,39.9925373 C77.555829,40.1237671 77.3676691,40.1979709 77.1716418,40.2014925 Z" id="Path" fill="#00374C" fill-rule="evenodd"></path>
                            <path d="M81.2761194,91.1791045 C82.8731343,77.6343284 82.8507463,70.1641791 76.0522388,71.2985075 C70.0149254,72.3059701 70.6343284,86.1716418 70.9179104,89.9552239 C73.6955754,90.7985315 76.582217,91.2285103 79.4850746,91.2313433 C80.1044776,91.238806 80.6940299,91.2164179 81.2761194,91.1791045 Z" id="Path" fill="#00A9E9" fill-rule="evenodd"></path>
                            <path d="M33.119403,50.8059701 L32.8656716,45.5820896 L34.3283582,45.5223881 C36.9207415,45.3654212 39.4935044,44.9732622 42.0149254,44.3507463 C42.0149254,44.2462687 42.0895522,44.1119403 42.1268657,43.9626866 C42.3727894,42.7559951 42.510154,41.5297041 42.5373134,40.2985075 C42.6609053,36.6918849 42.5711966,33.08111 42.2686567,29.4850746 C42.0685049,26.4618912 41.6997723,23.4522355 41.1641791,20.4701493 L41.0597015,20.4701493 C40.2087931,20.381061 39.3509083,20.381061 38.5,20.4701493 C37.351245,20.5487338 36.2077104,20.6907414 35.0746269,20.8955224 L33.9552239,15.8507463 C35.3332852,15.5742195 36.7261437,15.3773754 38.1268657,15.261194 C39.41696,15.1391939 40.7169229,15.1692508 42,15.3507463 C43.2462687,15.5820896 44.9850746,15.9925373 45.9776119,17.9179104 C46.4654073,19.3223543 46.7811434,20.7807544 46.9179104,22.261194 C47.1865672,24.1567164 47.4402985,26.5447761 47.6641791,29.0970149 C48.0820896,34.880597 48.2910448,41.2462687 47.3731343,45.141791 C46.9477612,46.4104478 46.8059701,47.8208955 44.6791045,48.9179104 C41.6119403,50.1268657 37.2164179,50.4776119 34.7537313,50.6940299 L33.1492537,50.8059701 L33.119403,50.8059701 Z" id="Path" fill="#B3B3B3" fill-rule="evenodd"></path>
                            <path d="M40.4029851,24.6791045 C40.4029851,24.6791045 48.2462687,22.7089552 50.2462687,25.0671642 C52.2462687,27.4253731 51.3955224,28.1716418 52.9179104,30.1119403 C54.4402985,32.0522388 53.2313433,34.2014925 52.7761194,37.2014925 C52.3208955,40.2014925 51.1268657,42.5820896 47.7089552,42.6119403 C44.2910448,42.641791 40.880597,42.9029851 40.2462687,40.8955224 C39.6119403,38.8880597 40.4029851,24.6791045 40.4029851,24.6791045 Z" id="Path" fill="#006699" fill-rule="evenodd"></path>
                            <path d="M34.261194,21.9477612 C34.261194,21.9477612 31.1119403,25.6119403 32.9477612,28.6641791 C34.7835821,31.7164179 33.3656716,31.141791 34.3059701,34.4925373 C35.2462687,37.8432836 34.1119403,37.9328358 34.8059701,41.0820896 C35.5,44.2313433 35.238806,46.7537313 40.2014925,45.9179104 C45.1641791,45.0820896 46.9701493,44.9402985 49.1567164,43.6343284 C51.3432836,42.3283582 50.7462687,40.7761194 50,39.2462687 C50,39.2462687 51.6940299,37.5149254 50.9104478,36.2014925 C50.1994316,35.2427959 49.2810587,34.4570769 48.2238806,33.9029851 C49.512095,33.2462371 50.087868,31.7162336 49.5522388,30.3731343 C49.1355601,28.9770199 47.9914658,27.9187326 46.5671642,27.6119403 C46.5671642,27.6119403 49.7089552,26.9104478 48.8059701,23.7835821 C47.9029851,20.6567164 42.380597,20.3955224 39.8507463,20.358209 C37.3208955,20.3208955 34.261194,21.9477612 34.261194,21.9477612 Z" id="Path" fill="#00A9E9" fill-rule="evenodd"></path>
                            <path d="M50.8731343,36.2014925 C50.1621181,35.2427959 49.2437453,34.4570769 48.1865672,33.9029851 C49.4747816,33.2462371 50.0505546,31.7162336 49.5149254,30.3731343 C49.1046851,28.9869485 47.9771768,27.9308015 46.5671642,27.6119403 C46.5671642,27.6119403 49.7089552,26.9104478 48.8059701,23.7835821 C48.7647358,23.6500524 48.7123111,23.5202389 48.6492537,23.3955224 C48.4961075,24.4251315 47.8417905,25.3115352 46.9029851,25.761194 C44.6641791,26.6343284 38.0597015,27.1343284 38.0597015,27.1343284 C38.0597015,27.1343284 45.9328358,28.358209 46.7164179,29.6716418 C47.1856779,30.5968014 47.2688742,31.6703029 46.9477612,32.6567164 L39.2985075,34.1492537 C39.2985075,34.1492537 48.2014925,34.1492537 48.1119403,35.9925373 C48.0223881,37.8358209 41.5298507,39.4626866 41.5298507,39.4626866 C41.5298507,39.4626866 48.8656716,39.8134328 48.0597015,41.2462687 C47.5597015,42.1343284 44.3955224,44.2313433 42.0895522,45.641791 C45.6641791,45.0597015 47.3134328,44.7985075 49.1641791,43.6716418 C51.3432836,42.3358209 50.7462687,40.7761194 50,39.2462687 C50,39.2462687 51.6567164,37.5149254 50.8731343,36.2014925 Z" id="Path" fill="#0082C6" fill-rule="evenodd"></path>
                            <path d="M54.9850746,24.2462687 C54.9850746,24.2462687 54.8955224,20.1492537 51.5597015,21.3134328 C48.4552239,22.4029851 47.3731343,28.7313433 48.0671642,31.4626866 C49.8955224,38.6268657 56.5522388,28.8059701 54.9850746,24.2462687 Z" id="Path" fill="#00A9E9" fill-rule="evenodd"></path>
                            <path d="M8.68656716,13.9328358 C8.97014925,17.6641791 16.5223881,20.1865672 25.5447761,19.4925373 C34.5671642,18.7985075 41.6567164,15.2014925 41.3656716,11.4402985 C41.0746269,7.67910448 33.5298507,5.2238806 24.5074627,5.87313433 C15.4850746,6.52238806 8.39552239,10.1716418 8.68656716,13.9328358 Z" id="Path" fill="#FFFFFF" fill-rule="evenodd"></path>
                            <path d="M8.68656716,13.9328358 C8.97014925,17.6641791 16.5223881,20.1865672 25.5447761,19.4925373 C34.5671642,18.7985075 41.6567164,15.2014925 41.3656716,11.4402985 L44.1119403,47.2985075 C44.3955224,51.0298507 37.3134328,54.6641791 28.2910448,55.358209 C19.2686567,56.0522388 11.7089552,53.5522388 11.4253731,49.7985075 L8.68656716,13.9328358 Z" id="Path" fill="#FFFFFF" fill-rule="evenodd"></path>
                            <path d="M42.4402985,25.5074627 L44.1119403,47.2985075 C44.3955224,51.0298507 37.3134328,54.6641791 28.2910448,55.358209 C19.2686567,56.0522388 11.7089552,53.5522388 11.4253731,49.7985075 L9.76119403,28.0074627 L42.4402985,25.5074627 Z" id="Path" fill="#8CC63F" fill-rule="evenodd"></path>
                            <path d="M9.76119403,28.0074627 C9.97761194,30.8880597 17.4776119,32.6716418 26.5,31.9776119 C35.5223881,31.2835821 42.6641791,28.3955224 42.4402985,25.5074627 C42.2164179,22.619403 34.7313433,20.8507463 25.7014925,21.5373134 C16.6716418,22.2238806 9.53731343,25.1268657 9.76119403,28.0074627 Z" id="Path" fill="#D9E021" fill-rule="evenodd"></path>
                            <path d="M28.358209,56.1492537 C18.7462687,56.8955224 10.9626866,54.119403 10.6343284,49.858209 L7.8880597,13.9925373 L9.48507463,13.8731343 C9.70149254,16.7761194 16.2014925,19.4104478 25.4850746,18.7014925 C34.7686567,17.9925373 40.7910448,14.4029851 40.5746269,11.5 L42.1641791,11.3731343 L44.9029851,47.238806 C45.2313433,51.4925373 37.9552239,55.4179104 28.358209,56.1492537 Z M9.70149254,17.1641791 L12.1940299,49.7686567 C12.4104478,52.6791045 18.9104478,55.3059701 28.1940299,54.5970149 C37.4776119,53.8880597 43.5373134,50.261194 43.2835821,47.358209 L40.8208955,14.7537313 C38.3208955,17.5522388 32.5746269,19.761194 25.6119403,20.2910448 C18.6492537,20.8208955 12.6343284,19.5149254 9.70149254,17.1641791 Z" id="Shape" fill="#CCCCCC" fill-rule="nonzero"></path>
                            <path d="M25.6119403,20.2910448 C16,21.0373134 8.21641791,18.261194 7.8880597,13.9925373 C7.55970149,9.7238806 14.8358209,5.78358209 24.4477612,5.08208955 C34.0597015,4.38059701 41.8358209,7.1119403 42.1641791,11.3731343 C42.4925373,15.6343284 35.2164179,19.5597015 25.6119403,20.2910448 Z M24.5671642,6.67164179 C15.2686567,7.38059701 9.26119403,10.9701493 9.48507463,13.8731343 C9.70895522,16.7761194 16.2014925,19.4104478 25.4850746,18.7014925 C34.7686567,17.9925373 40.7910448,14.4029851 40.5746269,11.5 C40.358209,8.59701493 33.8656716,5.97014925 24.5671642,6.67164179 Z" id="Shape" fill="#E6E6E6" fill-rule="nonzero"></path>
                            <path d="M25.6119403,20.2910448 C16,21.0373134 8.21641791,18.261194 7.8880597,13.9925373 C7.55970149,9.7238806 14.8358209,5.78358209 24.4477612,5.08208955 C34.0597015,4.38059701 41.8358209,7.1119403 42.1641791,11.3731343 C42.4925373,15.6343284 35.2164179,19.5597015 25.6119403,20.2910448 Z M24.5671642,6.67164179 C15.2686567,7.38059701 9.26119403,10.9701493 9.48507463,13.8731343 C9.70895522,16.7761194 16.2014925,19.4104478 25.4850746,18.7014925 C34.7686567,17.9925373 40.7910448,14.4029851 40.5746269,11.5 C40.358209,8.59701493 33.8656716,5.97014925 24.5671642,6.67164179 Z" id="Shape" fill="#E6E6E6" fill-rule="nonzero"></path>
                            <path d="M27.1343284,45.2686567 C27.2847997,44.8104847 27.246578,44.3112479 27.0281139,43.8813216 C26.8096497,43.4513953 26.4289379,43.1261926 25.9701493,42.9776119 C25.0495935,42.6450357 24.2263251,42.0884961 23.5746269,41.358209 C23.5204294,41.2937451 23.4775349,41.2205722 23.4477612,41.141791 L23.6119403,41.0522388 C24.5189441,40.7223448 25.3510811,40.2149442 26.0597015,39.5597015 C26.9881379,38.5462973 27.4672498,37.2004774 27.3880597,35.8283582 C27.3433382,35.0153032 26.9911938,34.2496559 26.4029851,33.6865672 C25.7050065,33.0928712 24.789874,32.8194145 23.880597,32.9328358 C23.6940299,32.9328358 23.5373134,32.9328358 23.4029851,32.9925373 C22.9234322,33.0745192 22.4963282,33.3442469 22.2162061,33.7420203 C21.936084,34.1397936 21.8260462,34.6328073 21.9104478,35.1119403 C22.0638899,35.9521963 22.7807621,36.5728649 23.6343284,36.6044776 C23.5853877,36.7773208 23.4958339,36.935959 23.3731343,37.0671642 C22.9421948,37.3487118 22.4785864,37.576757 21.9925373,37.7462687 C20.6695484,38.302142 19.7939842,39.5804658 19.7537313,41.0149254 C19.7383556,41.1463179 19.7383556,41.2790553 19.7537313,41.4104478 C19.9561613,42.8020885 20.7261874,44.0476395 21.880597,44.8507463 C22.7490894,45.5343126 23.7250451,46.0689447 24.7686567,46.4328358 C24.9972393,46.5070108 25.2377645,46.5373929 25.4776119,46.5223881 C26.2108348,46.460791 26.8364428,45.9673537 27.0671642,45.2686567 L27.1343284,45.2686567 Z" id="Path" fill="#009900" fill-rule="evenodd"></path>
                            <path d="M38.5373134,40.0223881 C39.0823972,38.9816346 39.3057891,37.8023332 39.1791045,36.6343284 C39.0562483,34.8988946 38.4052016,33.2426316 37.3134328,31.8880597 C36.9976792,31.5224056 36.5490722,31.2978614 36.0671254,31.2642372 C35.5851786,31.230613 35.1097377,31.3906888 34.7462687,31.7089552 C34.3806146,32.0247089 34.1560703,32.4733158 34.1224462,32.9552626 C34.088822,33.4372094 34.2488977,33.9126503 34.5671642,34.2761194 C35.1323565,35.0458614 35.4709835,35.9583449 35.5447761,36.9104478 C35.5987374,37.357043 35.5344001,37.8099775 35.358209,38.2238806 C35.2238806,38.3880597 35.3134328,38.3880597 34.9104478,38.4626866 L34.5522388,38.4626866 C33.5487469,38.4032137 32.6869032,39.1681835 32.6268657,40.1716418 C32.5673853,41.1710148 33.3290181,42.0295219 34.3283582,42.0895522 C34.6164815,42.1119307 34.9059065,42.1119307 35.1940299,42.0895522 L35.2910448,42.0895522 C36.6485158,41.9861225 37.8655139,41.2139583 38.5373134,40.0298507 L38.5373134,40.0223881 Z" id="Path" fill="#009900" fill-rule="evenodd"></path>
                            <path d="M20.5522388,49.880597 C20.5366879,49.394259 20.3279175,48.934181 19.9721492,48.602224 C19.616381,48.270267 19.1429654,48.0938171 18.6567164,48.1119403 C18.1610013,47.9854133 17.7205365,47.6996355 17.4029851,47.2985075 C16.9094426,46.8008746 16.5766705,46.1665278 16.4477612,45.4776119 C16.4477612,45.2238806 16.4477612,45.2014925 16.4925373,45.1865672 C16.7935734,44.8086108 16.9320434,44.3265017 16.877455,43.846404 C16.8228666,43.3663063 16.5796965,42.9275906 16.2014925,42.6268657 C15.8243033,42.3238878 15.3416848,42.1841929 14.8609772,42.2388506 C14.3802696,42.2935083 13.9413326,42.5379866 13.641791,42.9179104 C13.0172575,43.7242792 12.7236855,44.7384368 12.8208955,45.7537313 C12.9991489,47.2678175 13.6704598,48.6812416 14.7313433,49.7761194 C15.7339545,50.9803481 17.2026166,51.6997482 18.7686567,51.7537313 L18.858209,51.7537313 C19.8274045,51.6822267 20.5679427,50.8594066 20.5373134,49.8880597 L20.5522388,49.880597 Z" id="Path" fill="#336600" fill-rule="evenodd"></path>
                            <path d="M38.0970149,29.3880597 C38.5397012,29.1934867 38.8868139,28.8308205 39.0618079,28.3800358 C39.236802,27.929251 39.2253045,27.4273728 39.0298507,26.9850746 C38.0442726,24.6290082 35.7623042,23.0755143 33.2089552,23.0223881 C32.7266017,23.0360206 32.2695726,23.2413366 31.9390273,23.5928911 C31.608482,23.9444456 31.4316823,24.4132442 31.4477612,24.8955224 C31.461418,25.3765416 31.6657019,25.8324094 32.0156277,26.1627394 C32.3655536,26.4930694 32.8324251,26.6707723 33.3134328,26.6567164 C34.0597015,26.5671642 35.2835821,27.4477612 35.7014925,28.4626866 C36.0107264,29.1675666 36.7327461,29.5989809 37.5,29.5373134 C37.7063715,29.5239345 37.9086265,29.4733707 38.0970149,29.3880597 Z" id="Path" fill="#66CC00" fill-rule="evenodd"></path>
                            <path d="M37.3134328,48.8880597 C37.7714723,48.3171223 38.1505033,47.6870774 38.4402985,47.0149254 C38.8284436,46.0875611 38.3950706,45.0207968 37.4701493,44.6268657 C36.5427849,44.2387206 35.4760207,44.6720936 35.0820896,45.5970149 C34.9299416,45.9623753 34.7263941,46.3041341 34.4776119,46.6119403 C33.4111606,48.073913 31.4089808,48.4872663 29.8507463,47.5671642 C29.4296066,47.3296238 28.9310434,47.2701019 28.4658189,47.4018221 C28.0005944,47.5335423 27.6072363,47.8455961 27.3731343,48.2686567 C27.1379238,48.6934406 27.0828889,49.194808 27.2203523,49.6605002 C27.3578156,50.1261924 27.6762937,50.517306 28.1044776,50.7462687 C31.1970714,52.5031664 35.1091176,51.7391444 37.3134328,48.9477612 L37.358209,48.8880597 L37.3134328,48.8880597 Z" id="Path" fill="#336600" fill-rule="evenodd"></path>
                            <path d="M28.0373134,32.4477612 C29.472989,31.7285854 30.2875652,30.1715726 30.0597015,28.5820896 C29.9674573,27.4001091 29.5403345,26.268881 28.8283582,25.3208955 C28.0372116,24.1753077 26.7116501,23.5181677 25.3208955,23.5820896 C25.0685764,23.599766 24.8186128,23.6422598 24.5746269,23.7089552 C23.606551,23.9774737 23.0388503,24.9792985 23.3059701,25.9477612 C23.5744886,26.915837 24.5763134,27.4835377 25.5447761,27.2164179 C25.5447761,27.2164179 25.5970149,27.1791045 25.880597,27.5223881 C26.1629149,27.9181637 26.3354254,28.3816248 26.380597,28.8656716 C26.3932304,28.9772555 26.3932304,29.0899087 26.380597,29.2014925 C25.5831996,29.6661422 25.2619612,30.6555566 25.6343284,31.5 C25.941799,32.2160321 26.6708207,32.6570453 27.4477612,32.5970149 C27.6459532,32.5826475 27.8402621,32.5347012 28.0223881,32.4552239 L28.0373134,32.4477612 Z" id="Path" fill="#66CC00" fill-rule="evenodd"></path>
                            <path d="M14.3134328,36.3656716 C15.2412603,35.9746247 15.6783091,34.9070246 15.2910448,33.9776119 C15.1342694,33.5585301 15.0411956,33.1183162 15.0149254,32.6716418 C14.8432836,31.0746269 15.4402985,28.8208955 16.0149254,28.2537313 C16.3277368,27.8856353 16.4814656,27.4083273 16.4422764,26.9268609 C16.4030873,26.4453944 16.1741922,25.9992302 15.8059701,25.6865672 C15.4378741,25.3737557 14.9605661,25.220027 14.4790997,25.2592161 C13.9976333,25.2984052 13.551469,25.5273003 13.238806,25.8955224 C11.6791045,27.8358209 11.2462687,30.5149254 11.3880597,32.9477612 C11.4448313,33.7848583 11.6311263,34.6080808 11.9402985,35.3880597 C12.2438194,36.1127232 12.9779052,36.5609968 13.761194,36.5 C13.9560249,36.4846136 14.1473229,36.4393061 14.3283582,36.3656716 L14.3134328,36.3656716 Z" id="Path" fill="#66CC00" fill-rule="evenodd"></path>
                            <path d="M17.2761194,36.7164179 C17.3296331,37.4211037 17.8026063,38.0240618 18.4742736,38.2438547 C19.1459408,38.4636476 19.8838657,38.2569376 20.3436134,37.7202088 C20.8033612,37.18348 20.8942808,36.4225623 20.5739346,35.7926225 C20.2535883,35.1626828 19.5851406,34.7879297 18.880597,34.8432836 C18.4189097,34.8775648 17.9899551,35.0945464 17.6887812,35.4461494 C17.3876074,35.7977523 17.2390834,36.2549434 17.2761194,36.7164179 Z" id="Path" fill="#FFFF00" fill-rule="evenodd"></path>
                            <path d="M21.8283582,49.5 C21.8700954,50.1047962 22.2735107,50.6242641 22.8491437,50.8144405 C23.4247767,51.0046169 24.0582567,50.8277162 24.4520757,50.3668181 C24.8458947,49.9059201 24.921806,49.2525991 24.6441586,48.7136814 C24.3665111,48.1747637 23.7904698,47.8573251 23.1865672,47.9104478 C22.3763494,47.9817191 21.772362,48.6885835 21.8283582,49.5 Z" id="Path" fill="#FFFF00" fill-rule="evenodd"></path>
                            <path d="M28.5820896,37.3134328 C28.6303167,38.1768609 29.1965294,38.9251273 30.0143492,39.2062052 C30.8321689,39.487283 31.7387547,39.2452051 32.3075972,38.5938588 C32.8764397,37.9425124 32.9942733,37.011591 32.6056623,36.2390527 C32.2170514,35.4665144 31.3993746,35.0061839 30.5373134,35.0746269 C29.3857164,35.1660574 28.5176646,36.1600098 28.5820896,37.3134328 Z" id="Path" fill="#FFFF00" fill-rule="evenodd"></path>
                            <path d="M31.0820896,44.1119403 C31.1273972,44.5159487 31.4877476,44.8093621 31.8925549,44.7718574 C32.2973623,44.7343527 32.5976733,44.3797301 32.5679854,43.9742746 C32.5382976,43.568819 32.1895349,43.2617222 31.7835821,43.2835821 C31.5784615,43.2946275 31.386964,43.3897352 31.2542127,43.5464947 C31.1214613,43.7032543 31.0591964,43.9078022 31.0820896,44.1119403 Z" id="Path" fill="#FFFF00" fill-rule="evenodd"></path>
                            <path d="M14.5895522,21.4701493 L16.7835821,50.2238806 C15.7796376,49.8613827 14.9241076,49.1764338 14.3507463,48.2761194 L12.261194,20.8955224 C12.261194,20.8955224 13.5522388,21.858209 14.5895522,21.4701493 Z" id="Path" fill="#FFFFFF" fill-rule="evenodd"></path>
                        </g>
                    </g>
                </g>
                <rect id="Rectangle" fill="#FFFFFF" x="58.5820896" y="12.6865672" width="1.49253731" height="3.73134328" rx="0.746268657"></rect>
                <rect id="Rectangle" fill="#FFFFFF" x="58.5820896" y="18.6567164" width="1.49253731" height="3.73134328" rx="0.746268657"></rect>
                <rect id="Rectangle" fill="#FFFFFF" x="54.4776119" y="16.7910448" width="3.73134328" height="1.49253731" rx="0.746268657"></rect>
                <rect id="Rectangle" fill="#FFFFFF" x="60.4477612" y="16.7910448" width="3.73134328" height="1.49253731" rx="0.746268657"></rect>
                <rect id="Rectangle" fill="#66CC00" x="10.0746269" y="36.5671642" width="1.49253731" height="3.73134328" rx="0.746268657"></rect>
                <rect id="Rectangle" fill="#66CC00" x="10.0746269" y="42.5373134" width="1.49253731" height="3.73134328" rx="0.746268657"></rect>
                <rect id="Rectangle" fill="#66CC00" x="5.97014925" y="40.6716418" width="3.73134328" height="1.49253731" rx="0.746268657"></rect>
                <rect id="Rectangle" fill="#66CC00" x="11.9402985" y="40.6716418" width="3.73134328" height="1.49253731" rx="0.746268657"></rect>
                <rect id="Rectangle" fill="#66CC00" x="2.20895522" y="27.6119403" width="1" height="2.00746269" rx="0.5"></rect>
                <rect id="Rectangle" fill="#66CC00" x="2.20895522" y="30.8283582" width="1" height="2.00746269" rx="0.5"></rect>
                <rect id="Rectangle" fill="#66CC00" x="0" y="29.8208955" width="2.00746269" height="1" rx="0.5"></rect>
                <rect id="Rectangle" fill="#66CC00" x="3.21641791" y="29.8208955" width="2.00746269" height="1" rx="0.5"></rect>
                <rect id="Rectangle" fill="#66CC00" x="41.0149254" y="4.47761194" width="1" height="2.00746269" rx="0.5"></rect>
                <rect id="Rectangle" fill="#66CC00" x="41.0149254" y="7.69402985" width="1" height="2.00746269" rx="0.5"></rect>
                <rect id="Rectangle" fill="#66CC00" x="38.8059701" y="6.68656716" width="2.00746269" height="1" rx="0.5"></rect>
                <rect id="Rectangle" fill="#66CC00" x="42.0223881" y="6.68656716" width="2.00746269" height="1" rx="0.5"></rect>
            </g>
        </g>
    </g>
</svg>