<?xml version="1.0" encoding="UTF-8"?>
<svg width="114px" height="33px" viewBox="0 0 114 33" version="1.1" xmlns="http://www.w3.org/2000/svg" xmlns:xlink="http://www.w3.org/1999/xlink">
    <!-- Generator: Sketch 52.6 (67491) - http://www.bohemiancoding.com/sketch -->
    <title>Group</title>
    <desc>Created with Sketch.</desc>
    <g id="Symbols" stroke="none" stroke-width="1" fill="none" fill-rule="evenodd">
        <g id="header" transform="translate(-167.000000, -29.000000)">
            <g id="Group" transform="translate(167.000000, 29.000000)">
                <path d="M30,33 C21.1780106,33 14,25.5982217 14,16.498785 C14,7.40177832 21.1780106,0 30,0 L30,6.30463357 C24.5484471,6.30463357 20.1137397,10.8781963 20.1137397,16.498785 C20.1137397,22.1199812 24.5484471,26.6944552 30,26.6944552 L30,33 Z" id="Fill-47" fill="#EC1D24"></path>
                <path d="M114,33 C105.179279,33 98,25.5982217 98,16.498785 C98,7.40177832 105.179279,0 114,0 L114,6.30463357 C108.549638,6.30463357 104.114832,10.8781963 104.114832,16.498785 C104.114832,22.1199812 108.549638,26.6944552 114,26.6944552 L114,33 Z" id="Fill-49" fill="#EC1D24"></path>
                <path d="M95,16 L88.6950046,16 C88.6950046,10.5491366 84.1217036,6.11362716 78.4992406,6.11362716 C72.8779927,6.11362716 68.3056029,10.5491366 68.3056029,16 L62,16 C62,7.17758386 69.4021502,0 78.4992406,0 C87.5984573,0 95,7.17758386 95,16" id="Fill-51" fill="#EC1D24"></path>
                <polygon id="Fill-53" fill="#EC1D24" points="0 16 6 16 6 0 0 0"></polygon>
                <polygon id="Fill-55" fill="#EC1D24" points="46 32 52 32 52 16 46 16"></polygon>
                <polygon id="Fill-56" fill="#58585B" points="62 22 62.3717 22 62.3717 19 62 19"></polygon>
                <polygon id="Fill-57" fill="#58585B" points="66.5783333 22 64.4116667 19.5915298 64.4116667 22 64 22 64 19 64.4276667 19 66.5933333 21.4126223 66.5933333 19 67 19 67 22"></polygon>
                <path d="M69.3200241,19 C70.2722518,19 71,19.6466138 71,20.5002768 C71,21.3528326 70.2674243,22 69.3067485,22 L68,22 L68,19 L69.3200241,19 Z M68.3723222,21.6742019 L69.3248517,21.6742019 C70.0529015,21.6742019 70.6216434,21.1726333 70.6216434,20.5049825 C70.6216434,19.8306883 70.0438499,19.3299502 69.3109725,19.3299502 L68.3723222,19.3299502 L68.3723222,21.6742019 Z" id="Fill-58" fill="#58585B"></path>
                <path d="M74,20.49657 C74,21.3337602 73.3362738,22 72.5021171,22 C71.662403,22 71,21.3337602 71,20.49657 C71,19.6555383 71.662403,19 72.5021171,19 C73.3362738,19 74,19.6593799 74,20.49657 M71.3313338,20.49657 C71.3313338,21.1504619 71.8637968,21.6731913 72.5021171,21.6731913 C73.1404375,21.6731913 73.663638,21.1504619 73.663638,20.49657 C73.663638,19.8413061 73.1404375,19.3237904 72.5021171,19.3237904 C71.8637968,19.3237904 71.3313338,19.8413061 71.3313338,20.49657" id="Fill-59" fill="#58585B"></path>
                <polygon id="Fill-60" fill="#58585B" points="78.5769017 22 76.4137701 19.5915298 76.4137701 22 76 22 76 19 76.4287618 19 78.5922265 21.4126223 78.5922265 19 79 19 79 22"></polygon>
                <polygon id="Fill-61" fill="#58585B" points="80.3273691 19.3299502 80.3273691 20.3153718 81.7749503 20.3153718 81.7749503 20.645322 80.3273691 20.645322 80.3273691 21.6742019 82 21.6742019 82 22 80 22 80 19 81.9469848 19 81.9469848 19.3299502"></polygon>
                <path d="M84.933768,19.2757958 L84.8032957,19.5944018 C84.5616987,19.4165752 84.2776858,19.3444018 84.0631259,19.3444018 C83.7171015,19.3444018 83.4911314,19.4892975 83.4911314,19.7392975 C83.4911314,20.5041164 85.0027248,20.1051043 84.9999963,21.1846872 C84.9999963,21.6808452 84.6041146,22 84.0288955,22 C83.6369826,22 83.2532551,21.812843 83,21.5450055 L83.1384098,21.2381998 C83.3876962,21.507135 83.7297518,21.659989 84.0326162,21.659989 C84.4200644,21.659989 84.6616613,21.48573 84.6616613,21.2006037 C84.6658781,20.419045 83.1545328,20.8356202 83.1545328,19.7692097 C83.1545328,19.3013172 83.526354,19 84.0824735,19 C84.3927793,19 84.7112706,19.1103183 84.933768,19.2757958" id="Fill-62" fill="#58585B"></path>
                <polygon id="Fill-63" fill="#58585B" points="86 22 86.3714 22 86.3714 19 86 19"></polygon>
                <path d="M87.6885246,21.2412807 L87.3584699,22 L87,22 L88.3265027,19 L88.6770492,19 L90,22 L89.6319672,22 L89.3027322,21.2412807 L87.6885246,21.2412807 Z M88.4909836,19.3902934 L87.8322404,20.9113305 L89.1584699,20.9113305 L88.4909836,19.3902934 Z" id="Fill-64" fill="#58585B"></path>
                <path d="M64.9956332,24.4337085 L64.7645041,24.6922866 C64.5040549,24.4589624 64.1381784,24.3184189 63.7663755,24.3184189 C63.0031192,24.3184189 62.3898939,24.8369476 62.3898939,25.4919023 C62.3898939,26.142465 63.0031192,26.6651112 63.7663755,26.6651112 C64.1381784,26.6651112 64.4987523,26.5286851 64.7645041,26.3079879 L65,26.5413121 C64.6684342,26.8177326 64.2145976,27 63.7473487,27 C62.7723019,27 62,26.3335163 62,25.4919023 C62,24.6587977 62.7813475,24 63.7607611,24 C64.2239551,24 64.6731129,24.1652484 64.9956332,24.4337085" id="Fill-65" fill="#58585B"></path>
                <path d="M67.7107526,26.0445613 C67.6291367,26.0489898 67.5415145,26.0525879 67.453539,26.0525879 L66.4374043,26.0525879 L66.4374043,27 L66,27 L66,24 L67.453539,24 C68.4096102,24 68.9625486,24.3683919 68.9625486,25.0066427 C68.9625486,25.5048436 68.6555176,25.8391918 68.1036391,25.9806255 L69,27 L68.5028854,27 L67.7107526,26.0445613 Z M67.453539,25.7232217 C68.1478036,25.7232217 68.5417501,25.4821478 68.5417501,25.0160531 C68.5417501,24.5624135 68.1478036,24.3301965 67.453539,24.3301965 L66.4374043,24.3301965 L66.4374043,25.7232217 L67.453539,25.7232217 Z" id="Fill-66" fill="#58585B"></path>
                <polygon id="Fill-67" fill="#58585B" points="69.327504 24.3307501 69.327504 25.3160808 70.7758347 25.3160808 70.7758347 25.6460006 69.327504 25.6460006 69.327504 26.6745087 71 26.6745087 71 27 69 27 69 24 70.9470058 24 70.9470058 24.3307501"></polygon>
                <path d="M72.6889233,26.2419042 L72.3588085,27 L72,27 L73.3267444,24 L73.6779013,24 L75,27 L74.63272,27 L74.3028785,26.2419042 L72.6889233,26.2419042 Z M73.4912552,24.3910877 L72.8323921,25.9117077 L74.159683,25.9117077 L73.4912552,24.3910877 Z" id="Fill-68" fill="#58585B"></path>
                <polygon id="Fill-69" fill="#58585B" points="76.1468144 24.3307501 76.1468144 27 75.8490907 27 75.8490907 24.3307501 75 24.3307501 75 24 77 24 77 24.3307501"></polygon>
                <polygon id="Fill-70" fill="#58585B" points="79 27 79.3714 27 79.3714 24 79 24"></polygon>
                <polygon id="Fill-71" fill="#58585B" points="81.304477 27 80 24 80.3946117 24 81.50208 26.6014392 82.6140055 24 83 24 81.6869057 27"></polygon>
                <polygon id="Fill-72" fill="#58585B" points="84.3282554 24.3307501 84.3282554 25.3160808 85.7748046 25.3160808 85.7748046 25.6460006 84.3282554 25.6460006 84.3282554 26.6745087 86 26.6745087 86 27 84 27 84 24 85.946483 24 85.946483 24.3307501"></polygon>
                <polygon id="Fill-73" fill="#58585B" points="62 32 62.3717 32 62.3717 29 62 29"></polygon>
                <polygon id="Fill-74" fill="#58585B" points="66.5783333 32 64.4116667 29.5924184 64.4116667 32 64 32 64 29 64.4276667 29 66.5933333 31.4125623 66.5933333 29 67 29 67 32"></polygon>
                <path d="M69.9950104,29.4334736 L69.7629938,29.6920754 C69.5022869,29.4584553 69.1367983,29.317899 68.7650728,29.317899 C68.0025988,29.317899 67.3904366,29.8364751 67.3904366,30.4912152 C67.3904366,31.142112 68.0025988,31.664806 68.7650728,31.664806 C69.1367983,31.664806 69.497921,31.528642 69.7629938,31.3076501 L70,31.5415447 C69.6669439,31.8179905 69.2128898,32 68.7451143,32 C67.770894,32 67,31.3323572 67,30.4912152 C67,29.6577599 67.7805613,29 68.7597713,29 C69.2225572,29 69.6716216,29.1647145 69.9950104,29.4334736" id="Fill-75" fill="#58585B"></path>
                <path d="M74,30.49657 C74,31.332937 73.3361263,32 72.502646,32 C71.6625507,32 71,31.332937 71,30.49657 C71,29.6549895 71.6625507,29 72.502646,29 C73.3361263,29 74,29.6585567 74,30.49657 M71.3320691,30.49657 C71.3320691,31.1504619 71.8628506,31.6720937 72.502646,31.6720937 C73.1403246,31.6720937 73.6642265,31.1504619 73.6642265,30.49657 C73.6642265,29.8410317 73.1403246,29.3237904 72.502646,29.3237904 C71.8628506,29.3237904 71.3320691,29.8410317 71.3320691,30.49657" id="Fill-76" fill="#58585B"></path>
                <path d="M76.7093393,31.0434422 C76.6284301,31.0492529 76.5408079,31.0534034 76.4542457,31.0534034 L75.4374043,31.0534034 L75.4374043,32 L75,32 L75,29 L76.4542457,29 C77.4092569,29 77.9625486,29.3688434 77.9625486,30.0069175 C77.9625486,30.5044272 77.6565776,30.8386829 77.1025792,30.9800775 L78,32 L77.5021788,32 L76.7093393,31.0434422 Z M76.4542457,30.7227449 C77.1470969,30.7227449 77.5410435,30.4825678 77.5410435,30.0163254 C77.5410435,29.5622579 77.1470969,29.331212 76.4542457,29.331212 L75.4374043,29.331212 L75.4374043,30.7227449 L76.4542457,30.7227449 Z" id="Fill-77" fill="#58585B"></path>
                <path d="M79.9808226,29 C80.6273067,29 81,29.3688434 81,30.0071942 C81,30.6715551 80.6273067,31.0534034 79.9808226,31.0534034 L79.2974309,31.0534034 L79.2974309,32 L79,32 L79,29 L79.9808226,29 Z M79.2974309,30.7227449 L79.9704499,30.7227449 C80.440357,30.7227449 80.7129417,30.4822911 80.7129417,30.0163254 C80.7129417,29.5622579 80.440357,29.3309353 79.9704499,29.3309353 L79.2974309,29.3309353 L79.2974309,30.7227449 Z" id="Fill-78" fill="#58585B"></path>
                <path d="M85,30.49657 C85,31.332937 84.3368616,32 83.5027785,32 C82.663403,32 82,31.332937 82,30.49657 C82,29.6549895 82.663403,29 83.5027785,29 C84.3368616,29 85,29.6585567 85,30.49657 M82.3320984,30.49657 C82.3320984,31.1504619 82.8634559,31.6720937 83.5027785,31.6720937 C84.140778,31.6720937 84.6644615,31.1504619 84.6644615,30.49657 C84.6644615,29.8410317 84.140778,29.3237904 83.5027785,29.3237904 C82.8634559,29.3237904 82.3320984,29.8410317 82.3320984,30.49657" id="Fill-79" fill="#58585B"></path>
                <path d="M87.7101978,31.0434422 C87.6289449,31.0492529 87.5409797,31.0534034 87.4537211,31.0534034 L86.4366463,31.0534034 L86.4366463,32 L86,32 L86,29 L87.4537211,29 C88.4096797,29 88.9618464,29.3688434 88.9618464,30.0069175 C88.9618464,30.5044272 88.6552049,30.8386829 88.1037447,30.9800775 L89,32 L88.5029439,32 L87.7101978,31.0434422 Z M87.4537211,30.7227449 C88.1471974,30.7227449 88.5414508,30.4825678 88.5414508,30.0163254 C88.5414508,29.5622579 88.1471974,29.331212 87.4537211,29.331212 L86.4366463,29.331212 L86.4366463,30.7227449 L87.4537211,30.7227449 Z" id="Fill-80" fill="#58585B"></path>
                <path d="M89.6887978,31.2410072 L89.3595628,32 L89,32 L90.3265027,29 L90.6778689,29 L92,32 L91.6333333,32 L91.3021858,31.2410072 L89.6887978,31.2410072 Z M90.4918033,29.3904261 L89.8327869,30.9114555 L91.1592896,30.9114555 L90.4918033,29.3904261 Z" id="Fill-81" fill="#58585B"></path>
                <polygon id="Fill-82" fill="#58585B" points="94.1476041 29.3309353 94.1476041 32 93.8492656 32 93.8492656 29.3309353 93 29.3309353 93 29 95 29 95 29.3309353"></polygon>
                <polygon id="Fill-83" fill="#58585B" points="96.3272824 29.3309353 96.3272824 30.3157167 97.7744799 30.3157167 97.7744799 30.6452684 96.3272824 30.6452684 96.3272824 31.6740454 98 31.6740454 98 32 96 32 96 29 97.9464688 29 97.9464688 29.3309353"></polygon>
                <path d="M100.319324,29 C101.272471,29 102,29.6483121 102,30.5008301 C102,31.3530714 101.267042,32 100.305751,32 L99,32 L99,29 L100.319324,29 Z M99.3728132,31.6740454 L100.325659,31.6740454 C101.052282,31.6740454 101.621757,31.1729386 101.621757,30.5044272 C101.621757,29.8314887 101.04263,29.3309353 100.311482,29.3309353 L99.3728132,29.3309353 L99.3728132,31.6740454 Z" id="Fill-84" fill="#58585B"></path>
            </g>
        </g>
    </g>
</svg>