<?xml version="1.0" encoding="UTF-8"?>
<svg width="226px" height="132px" viewBox="0 0 226 132" version="1.1" xmlns="http://www.w3.org/2000/svg" xmlns:xlink="http://www.w3.org/1999/xlink">
    <!-- Generator: Sketch 52.2 (67145) - http://www.bohemiancoding.com/sketch -->
    <title>Slice</title>
    <desc>Created with Sketch.</desc>
    <g id="Page-1" stroke="none" stroke-width="1" fill="none" fill-rule="evenodd">
        <g id="image-popup-external-url" transform="translate(8.000000, 3.000000)">
            <path d="M189.18,33.4 C200.87,24.6 209.74,17.4 208.66,16.63 C207.821945,16.4764374 206.965241,16.4528275 206.12,16.56 C199.701327,16.5465638 193.331666,17.6775934 187.31,19.9 L186.86,19.9 L186.44,19.96 L186.27,19.96 C186.069075,20.0244822 185.874841,20.1082036 185.69,20.21 L185.61,20.27 C185.442287,20.3710492 185.284869,20.488275 185.14,20.62 L184.97,20.78 C183.810516,21.2643457 182.684677,21.8255949 181.6,22.46 C176.92,25.46 169.34,30.52 160.31,36.75 L160.12,36.75 L159.83,36.98 C157.05,37.52 153.96,38.13 151.74,38.62 C150.32,38.93 148.94,39.06 148.52,39.21 C146.26,38.32 141.46,36.78 138.61,38.41 C137.296798,39.1405797 136.105775,40.0718045 135.08,41.17 C134.977829,36.0937243 131.015494,31.9360937 125.95,31.59 C123.969828,31.4101869 121.980524,31.8170901 120.23,32.76 C119.884244,32.5164153 119.597257,32.1986806 119.39,31.83 C118.92,30.75 120.39,29.25 120.39,29.25 C117.06,30.1 117.67,33.17 118.04,34.34 C116.400772,35.9086323 115.387841,38.0197935 115.19,40.28 C115.017214,42.2068446 115.458243,44.1389751 116.45,45.8 C114.939841,46.6331708 113.492647,47.5756854 112.12,48.62 C111.975435,48.3428658 111.994637,48.0087475 112.17,47.75 C112.3,47.57 112.56,47.55 112.73,47.41 C113.028387,47.2053689 113.283291,46.9436674 113.48,46.64 C113.736654,46.2621436 113.843587,45.8023312 113.78,45.35 C113.667869,45.1982413 113.479855,45.1225326 113.293847,45.1542384 C113.10784,45.1859442 112.955524,45.3196638 112.9,45.5 C112.72,45.87 112.75,45.93 112.44,46.16 C112.365019,46.2257047 112.276128,46.2735693 112.18,46.3 C111.9,46.35 111.68,46.02 111.7,45.74 C111.754235,45.4586281 111.838033,45.1837705 111.95,44.92 C112.017895,44.4318759 111.878024,43.9376464 111.564399,43.5574956 C111.250775,43.1773449 110.792132,42.9461022 110.3,42.92 C108.3,42.82 107.72,44.77 108.3,46.3 C108.852149,47.6120618 109.729808,48.7616234 110.85,49.64 C107.62425,52.3129162 104.825356,55.4625149 102.55,58.98 C97.31,60.07 92.32,60.67 87.41,59.23 C90.0858117,56.3676391 92.1029748,52.9545036 93.32,49.23 C94.41,45.87 93.1,45.32 91.02,45.86 L90.9,45.86 L90.25,46.07 L90.11,46.07 L89.28,46.4 C89.2082491,46.4257377 89.138121,46.4557926 89.07,46.49 C88.84,46.58 88.62,46.68 88.39,46.79 L88.15,46.9 L87.31,47.47 C85.8750808,48.1976628 84.5094369,49.0545373 83.23,50.03 C82.44,50.62 81.68,51.23 80.94,51.85 C80.2,52.47 79.23,53.31 78.45,54 C72.86,49.35 68.21,45.66 62.81,45.34 C62.47,45.34 62.13,45.34 61.81,45.34 L60.81,45.34 L60.39,45.34 L59.81,45.34 L59.31,45.47 L58.78,45.55 L58.33,45.62 L57.86,45.72 L57.4,45.83 L56.98,45.94 L56.52,46.08 L56.18,46.2 C55.6040698,46.4007458 55.0482905,46.655199 54.52,46.96 L54.33,47.07 L53.93,47.35 L53.73,47.49 L53.39,47.79 L53.22,47.96 C53.1154878,48.0592848 53.0185506,48.16625 52.93,48.28 L52.8,48.46 C52.72,48.58 52.64,48.69 52.57,48.81 L52.48,49 C52.4182388,49.1229507 52.3647857,49.2499017 52.32,49.38 C52.3153378,49.4399094 52.3153378,49.5000906 52.32,49.56 C52.1550863,50.1452715 52.1550863,50.7647285 52.32,51.35 C53.12,54.22 55.49,64.87 60.67,71.25 L60.59,71.31 C60.59,71.31 56.2,74.92 52.66,78.25 C51.85,79.02 51.08,79.77 50.42,80.46 C49.9743305,80.8831227 49.6321459,81.4032433 49.42,81.98 L49.52,81.98 C49.02,84.37 55.31,84.25 61.31,81.07 C63.8887611,79.6043455 66.3554999,77.9498255 68.69,76.12 C82.6,76.12 92.37,77.69 102.13,78.41 C88.98,87.59 69.13,102.34 49.57,117.13 C57.7882272,118.569929 66.2292073,118.069976 74.22,115.67 C80.05,112.75 111.96,90.78 130.22,76.88 C132.84,76.37 135.6,75.75 138.55,74.99 C140.06,74.6 141.55,74.23 142.98,73.88 C143.742393,76.7045018 144.330171,79.5732615 144.74,82.47 L144.51,82.56 C144.28,82.65 144.05,82.74 143.84,82.84 C143.63,82.94 143.58,82.99 143.46,83.06 C143.260108,83.1580496 143.066411,83.2682561 142.88,83.39 L142.56,83.62 C142.38,83.75 142.19,83.88 142.02,84.02 L141.78,84.25 C141.6,84.4 141.42,84.56 141.25,84.73 L141.09,84.91 C140.91,85.1 140.73,85.29 140.57,85.49 C140.540868,85.5248085 140.514139,85.5615602 140.49,85.6 C140.31,85.82 140.14,86.05 139.98,86.28 C139.03836,87.65358 138.332033,89.1743805 137.89,90.78 C137.84,91.97 139.69,92.78 142.32,93.56 C143.619189,95.1842485 145.592017,96.1223033 147.671865,96.1047436 C149.751712,96.0871839 151.708421,95.1159529 152.98,93.47 C153.434678,93.2119578 153.863339,92.9105553 154.26,92.57 L154.36,92.48 C154.504059,92.3509316 154.640932,92.2140594 154.77,92.07 L154.93,91.9 L155.23,91.51 C155.28,91.42 155.34,91.34 155.39,91.26 C155.467602,91.137686 155.53773,91.0107874 155.6,90.88 C155.66,90.77 155.7,90.66 155.75,90.55 C155.795989,90.4354735 155.836043,90.3186518 155.87,90.2 C155.87,90.07 155.94,89.93 155.97,89.79 L156.03,89.47 C156.040098,89.2934776 156.040098,89.1165224 156.03,88.94 C156.035012,88.8534058 156.035012,88.7665942 156.03,88.68 C156.010979,88.3993746 155.964081,88.1213382 155.89,87.85 C155.188652,84.6429317 152.497711,82.2550242 149.23,81.94 C149.46,78.28 149.51,75.19 149.46,72.37 C154.04,71.37 158.06,70.49 161.23,69.73 L161.23,69.91 C161.225084,69.9498489 161.225084,69.9901511 161.23,70.03 C161.23,70.28 161.17,70.53 161.15,70.78 C161.069542,72.2511324 161.238595,73.7252738 161.65,75.14 C162.16,76.06 163.94,75.83 166.26,75.14 C167.991574,75.7641963 169.913842,75.559067 171.474705,74.583528 C173.035567,73.6079889 174.062296,71.9699949 174.26,70.14 C174.484233,69.7390645 174.668455,69.3170296 174.81,68.88 C174.81,68.88 174.81,68.8 174.81,68.76 C174.81,68.72 174.89,68.43 174.93,68.27 L174.93,68.07 C174.95653,67.9246227 174.973234,67.7776232 174.98,67.63 C174.999434,67.4171093 174.999434,67.2028907 174.98,66.99 C174.984953,66.9100767 174.984953,66.8299233 174.98,66.75 C176.65,66.35 178.25,65.92 179.54,65.5 L179.73,65.5 C178.93,69.89 178.37,74.15 178.73,76.12 C178.73,76.12 178.73,76.34 178.88,76.71 L178.94,76.85 C178.99,76.98 179.04,77.1 179.1,77.22 C179.16,77.34 179.22,77.49 179.29,77.62 L179.5,77.94 C179.58,78.06 179.66,78.17 179.75,78.28 C179.828166,78.3714914 179.911643,78.4583079 180,78.54 C180.09262,78.6378762 180.192942,78.7281657 180.3,78.81 C180.38919,78.8822843 180.482696,78.9490744 180.58,79.01 C180.687476,79.0861575 180.801217,79.1530639 180.92,79.21 L181.22,79.35 C181.339971,79.3971514 181.463755,79.4339523 181.59,79.46 C181.694081,79.4938898 181.801276,79.5173387 181.91,79.53 C182.036457,79.5403019 182.163543,79.5403019 182.29,79.53 L182.62,79.53 C182.75,79.53 182.87,79.53 183,79.47 C183.13,79.41 183.22,79.47 183.33,79.38 C183.460098,79.3352143 183.587049,79.2817612 183.71,79.22 C183.820669,79.1712121 183.927621,79.1143938 184.03,79.05 C184.157025,78.9697687 184.277411,78.8794793 184.39,78.78 C184.494437,78.7021404 184.594584,78.618685 184.69,78.53 C184.810979,78.4103875 184.924524,78.2834837 185.03,78.15 C185.12,78.03 185.22,77.93 185.31,77.8 C185.4,77.67 185.51,77.47 185.61,77.29 C185.71,77.11 185.77,77.01 185.84,76.86 C185.940357,76.6456423 186.027194,76.425211 186.1,76.2 C186.16,76.03 186.23,75.87 186.29,75.69 C186.35,75.51 186.43,75.14 186.49,74.86 C186.55,74.58 186.59,74.49 186.63,74.28 C186.67,74.07 186.73,73.57 186.77,73.19 C186.77,73 186.82,72.83 186.84,72.62 C186.84,72.03 186.9,71.39 186.89,70.71 C186.89,69.8 186.89,68.94 186.89,68.1 C186.89,67.88 186.89,67.67 186.89,67.45 C186.89,66.73 186.89,66.03 186.89,65.36 L186.89,65.08 C186.89,64.32 186.89,63.61 186.83,62.92 C186.83,62.74 186.83,62.58 186.83,62.4 C186.83,61.87 186.83,61.4 186.78,60.87 C186.78,60.77 186.78,60.67 186.78,60.58 C187.323119,59.8641765 187.795342,59.0972339 188.19,58.29 L188.19,58.21 C189.213799,56.0406107 189.736696,53.6687779 189.72,51.27 C191.43,49.88 192.64,48.27 192.72,46.89 C192.72,46.82 192.72,46.76 192.72,46.69 L192.72,46.53 C192.707947,46.3630363 192.674334,46.1983349 192.62,46.04 C191.98,44.21 190.11,43.22 188.03,42.7 C187.84,42.25 187.65,41.82 187.44,41.4 C187.95,39.32 188.61,36.37 189.18,33.4 Z" id="Path" fill="#A6CDD4"></path>
            <path d="M118.2,44.86 C119.05,43.78 126.7,39.29 126.7,39.29 C132.32,38.29 136.31,42.62 137.45,47.17 C145.25,44.53 150.2,44.32 152.83,35.46 C154.764691,37.6394421 155.531463,40.6171981 154.89,43.46 C153.97,48.63 151.03,55.27 139.46,57.35 C127.89,59.43 118.62,61.98 116.31,57.12 C114,52.26 118.2,44.86 118.2,44.86 Z" id="Path" fill="#414142"></path>
            <path d="M124.01,46.88 C124.01,46.88 120.2,51.96 121.16,57.04 C122.12,62.12 123.06,64.04 121.79,64.67 C121.071293,65.0487198 120.329882,65.3826889 119.57,65.67 C119.57,65.67 122.11,68.21 124.65,67.57 C127.19,66.93 126.87,65.03 126.56,62.49 C126.25,59.95 126.24,58.36 128.14,58.68 C130.04,59 130.68,60.27 130.05,63.76 C129.42,67.25 131.96,68.84 135.77,66.3 C135.77,66.3 133.86,65.03 134.5,63.13 C135.14,61.23 137.99,55.5 134.5,47.88 C131.01,40.26 124.01,46.88 124.01,46.88 Z" id="Path" fill="#4890CD"></path>
            <path d="M151.63,80.95 C148.14,80.95 145.31,83.47 145.31,86.47 C145.31,89.47 148.14,92.03 151.63,92.03 C155.12,92.03 157.96,89.54 157.96,86.47 C157.96,83.4 155.13,80.95 151.63,80.95 Z" id="Path" fill="#414142"></path>
            <path d="M141.89,86.73 C141.82,88.44 145.67,89.41 150.14,90.49 C154.61,91.57 161.14,88.49 159.92,83.8 C158.7,79.11 154.58,77.15 150.08,78.03 C143.65,79.27 141.89,86.73 141.89,86.73 Z" id="Path" fill="#FDB913"></path>
            <path d="M159.92,83.8 C158.67,79.07 154.58,77.15 150.08,78.03 C147.264638,78.6674091 144.862054,80.4903111 143.49,83.03 C150.35,76.36 157.81,85.32 157.75,89.03 C159.565535,87.9716082 160.452952,85.8328118 159.92,83.8 Z" id="Path" fill="#F7941D"></path>
            <path d="M144.63,63.75 C145.91,66.38 147.73,71.31 148.97,79.75 C150.457683,80.5589353 152.317882,80.0730951 153.22,78.64 L153.06,62.58 L144.63,63.75 Z" id="Path" fill="#FDB913"></path>
            <path d="M148.24,63.23 C149.38,67.07 151.24,73.8 151.33,79.98 C152.109925,79.7715288 152.783928,79.2793998 153.22,78.6 C153.602972,73.2468408 153.602972,67.8731592 153.22,62.52 L148.24,63.23 Z" id="Path" fill="#F7941D"></path>
            <path d="M151.06,39.47 C152.84,36.95 153.75,35.8 153.75,35.8 C153.75,35.8 146.4,32.28 142.59,34.47 C140.357096,35.7007357 138.500876,37.5154755 137.22,39.72 C132.66,47.59 138.85,50.96 138.85,50.96 L140.17,50.45 C145.97,47.94 149.4,41.84 151.06,39.47 Z" id="Path" fill="#DCEFE2"></path>
            <path d="M81.37,50.94 C84.07,48.6 87.5,45.35 91.28,43.49 C95.06,41.63 99.02,40.18 97.35,45.34 C95.68,50.5 92.08,55.34 89.29,57.12 C86.5,58.9 81.37,50.94 81.37,50.94 Z" id="Path" fill="#F7941D"></path>
            <path d="M85.67,56.06 C89.04,52.76 89.67,52.57 93.31,47.75 C96.95,42.93 96.69,41.82 95.02,41.97 C93.7399412,42.3551434 92.4980387,42.8572603 91.31,43.47 C87.53,45.33 84.1,48.58 81.4,50.92 C82.6069118,52.8021412 84.041041,54.52847 85.67,56.06 Z" id="Path" fill="#FDB913"></path>
            <path d="M185.57,18.47 C187.16,17.47 198.11,11.79 212.57,12.47 C216.41,12.67 153.76,58.47 145.27,62.71 C135.81,65.58 123.62,64.71 120.62,64.17 C145.38,45.47 174.15,25.84 185.57,18.47 Z" id="Path" fill="#FDB913"></path>
            <path d="M210.03,12.47 C210.895053,12.3583653 211.772207,12.3819809 212.63,12.54 C216.24,13.86 153.74,58.54 145.25,62.76 C137.259272,65.160342 128.818206,65.6602997 120.6,64.22 C128.427982,61.9538804 136.565373,60.9413474 144.71,61.22 L210.03,12.47 Z" id="Path" fill="#F7941D"></path>
            <path d="M170.31,62.26 C167.67,63.87 166.68,67.06 168.09,69.37 C169.5,71.68 172.79,72.26 175.43,70.65 C178.07,69.04 179.06,65.86 177.65,63.54 C176.24,61.22 172.97,60.65 170.31,62.26 Z" id="Path" fill="#414142"></path>
            <path d="M165.64,71.11 C166.37,72.44 169.73,71.39 173.64,70.11 C177.55,68.83 181.06,63.55 177.94,60.55 C174.82,57.55 170.84,58 167.85,60.73 C163.53,64.67 165.64,71.11 165.64,71.11 Z" id="Path" fill="#FDB913"></path>
            <path d="M177.9,60.59 C174.77,57.59 170.8,58.04 167.81,60.77 C165.974818,62.5344935 164.993724,65.0072877 165.12,67.55 C167.22,59.36 176.98,62.68 178.63,65.47 C179.48178,63.8590236 179.185917,61.8811979 177.9,60.59 Z" id="Path" fill="#F7941D"></path>
            <path d="M157.12,52.47 C159.3,53.86 162.94,56.74 167.74,62.52 C169.238225,62.4461785 170.42069,61.219918 170.44,59.72 L162.92,47.67 L157.12,52.47 Z" id="Path" fill="#FDB913"></path>
            <path d="M159.6,50.47 C163.415705,53.7576504 166.793338,57.5217794 169.65,61.67 C170.143057,61.1546171 170.424945,60.4730906 170.44,59.76 C168.265705,55.5390089 165.792749,51.4786815 163.04,47.61 L159.6,50.47 Z" id="Path" fill="#F7941D"></path>
            <path d="M106.03,55.93 C96.95,57.25 89.91,56.24 83.72,51.09 C77.53,45.94 72.6,41.7 66.78,41.36 C60.96,41.02 55.16,43.36 56.29,47.36 C57.42,51.36 61.58,70.59 72.29,72.1 C101.41,72.1 112.38,78.77 142.52,70.97 C157.58,67.07 169.9,65.27 172.29,63.31 C168.51,61.44 164.29,55.6 163.18,47.96 C162.07,40.32 167.64,33.02 168.88,32.07 C164.82,32.91 153.94,34.92 152.88,35.47 C144,40.53 145.83,49.22 135.59,50.97 C127.31,52.38 106.03,55.93 106.03,55.93 Z" id="Path" fill="#FAA61A"></path>
            <path d="M155.72,34.71 C154.731812,34.8877267 153.758895,35.1418219 152.81,35.47 C143.93,40.53 145.76,49.22 135.52,50.97 L117.97,53.97 C118.15,55.28 118.66,56.1 119.69,55.92 C120.91,55.69 132.57,54.13 136.17,53.38 C139.77,52.63 142.75,51.58 144.27,48.9 C148.7,41.07 150.18,39.47 155.72,34.71 Z" id="Path" fill="#F7941D"></path>
            <path d="M155.72,34.71 C154.21,35.04 152.72,35.16 152.43,35.32 C143.55,40.38 145.76,49.22 135.52,50.97 L117.97,53.97 C118.15,55.28 118.66,56.1 119.69,55.92 C120.91,55.69 132.57,54.13 136.17,53.38 C139.77,52.63 142.75,51.58 144.27,48.9 C148.7,41.07 150.18,39.47 155.72,34.71 Z" id="Path" fill="#FED09D"></path>
            <path d="M64.56,67.32 C66.56,65.53 71.85,62.64 77.03,61.2 C82.21,59.76 85.24,58.87 85.37,60.28 C85.5,61.69 72.31,73.31 65.31,77.05 C58.31,80.79 50.72,80.31 54.39,76.47 C57.91,72.79 64.56,67.32 64.56,67.32 Z" id="Path" fill="#F7941D"></path>
            <path d="M164.09,32.84 C164.09,32.84 156.77,37.97 158.19,50.13 C159.61,62.29 167.19,64.32 168.9,64.91 C168.9,64.91 179.64,62.97 184.34,61.28 C189.04,59.59 194.89,53.36 193.53,44.07 C192.17,34.78 186.24,29.62 178.83,30.33 C173.868746,30.8556761 168.945624,31.6940098 164.09,32.84 Z" id="Path" fill="#FDB913"></path>
            <path d="M192.22,54.19 C187.22,51.3 178.86,47.11 174.29,48.49 C168.86,50.13 161.1,50.73 158.29,50.9 C159.92,62.37 167.18,64.34 168.9,64.9 C168.9,64.9 179.64,62.96 184.34,61.27 C187.70803,59.894906 190.493558,57.3921724 192.22,54.19 Z" id="Path" fill="#FDB913"></path>
            <path d="M193.53,44.07 C192.22,35.16 186.7,29.36 179.73,30.29 C175.1,30.91 170.07,35.5 170.98,45.95 C171.78,55.14 176.38,62.83 183.61,61.53 C187.19,60.88 195.22,55.56 193.53,44.07 Z" id="Path" fill="#595A5C"></path>
            <path d="M182.31,33.73 C177.47,34.55 175.57,43.51 177.85,49.73 C180.13,55.95 188.04,58.84 190.26,51.04 C192.48,43.24 188.82,36.78 186.98,35.1 C185.648738,34.076763 183.983064,33.5881177 182.31,33.73 Z" id="Path" fill="#DCE2D0"></path>
            <path d="M180.67,46.29 C180.8,47.07 180.5,47.76 180,47.85 C179.5,47.94 179,47.38 178.84,46.6 C178.68,45.82 179.01,45.14 179.52,45.05 C180.03,44.96 180.54,45.52 180.67,46.29 Z" id="Path" fill="#595A5C"></path>
            <path d="M184.81,35.91 C185.01,36.51 184.86,37.07 184.49,37.16 C184.12,37.25 183.65,36.86 183.49,36.26 C183.33,35.66 183.49,35.11 183.82,35.01 C184.15,34.91 184.62,35.32 184.81,35.91 Z" id="Path" fill="#595A5C"></path>
            <path d="M187.47,53.05 C187.484595,53.5782363 187.085677,54.0266493 186.559334,54.0736552 C186.032991,54.1206611 185.560927,53.7500326 185.481688,53.2275694 C185.402449,52.7051062 185.743389,52.2111736 186.26,52.1 C186.546816,52.063366 186.836344,52.1432717 187.06377,52.3218294 C187.291196,52.500387 187.437525,52.7626833 187.47,53.05 Z" id="Path" fill="#9AA08C"></path>
            <path d="M190.77,40.29 C190.77,40.29 195.11,23.29 194.27,18.92 C193.43,14.55 186.94,13.81 187.05,23.68 C187.16,33.55 187.54,39.17 187.54,39.17 C187.54,39.17 189.89,38.58 190.77,40.29 Z" id="Path" fill="#929497"></path>
            <path d="M193.05,16.67 C190.92,14.74 186.96,15.95 187.05,23.67 C187.17,33.54 187.54,39.16 187.54,39.16 C188.019654,39.0566547 188.513483,39.0363603 189,39.1 C188.42,32.3 187.71,19.43 191.74,17.01 C192.141525,16.7893065 192.591828,16.6724339 193.05,16.67 Z" id="Path" fill="#A7A9AC"></path>
            <path d="M99.31,57.05 C101.31,56.8 109.39,55.74 112.25,55.26 L113.47,53.52 C102.74,55.86 93.24,59.01 83.72,51.09 C77.53,45.95 72.6,41.7 66.78,41.36 C61.66,41.06 56.55,42.83 56.17,46 C73.31,32.07 80.49,59.83 99.31,57.05 Z" id="Path" fill="#FDB913"></path>
            <path d="M184.39,38.24 C182.743971,39.8909228 182.027859,42.2529654 182.48,44.54 C182.830779,47.2021253 184.728248,49.4020896 187.31,50.14 C191.99,49.68 197.63,44.79 196.66,42.02 C194.94,37.1 184.39,38.24 184.39,38.24 Z" id="Path" fill="#595A5C"></path>
            <path d="M184.39,38.24 C183.249452,39.4092763 182.543643,40.9338233 182.39,42.56 C186.648283,43.7540557 191.125243,43.9457298 195.47,43.12 C195.91,43.05 196.35,42.96 196.79,42.87 C196.815188,42.5820467 196.77766,42.2920554 196.68,42.02 C194.94,37.1 184.39,38.24 184.39,38.24 Z" id="Path" fill="#6E6F71"></path>
            <path d="M186.78,47.94 C186.78,47.94 181.87,67.16 182.78,72.09 C183.69,77.02 191.08,77.88 190.94,66.72 C190.8,55.56 190.39,49.2 190.39,49.2 C190.39,49.2 187.98,49.11 186.78,47.94 Z" id="Path" fill="#929497"></path>
            <path d="M115.11,68.3 C116.71,67.27 136.31,57.47 146.76,61.47 C150.35,62.84 86.68,107.41 78.19,111.66 C68.73,114.53 56.54,113.66 53.54,113.12 C78.31,94.34 103.69,75.62 115.11,68.3 Z" id="Path" fill="#FDB913"></path>
            <path d="M145.36,61.02 C145.834288,61.1412129 146.301643,61.2880959 146.76,61.46 C150.37,62.78 86.68,107.4 78.19,111.65 C70.1992073,114.049976 61.7582272,114.549929 53.54,113.11 C61.3689966,110.848818 69.5055991,109.836383 77.65,110.11 L145.36,61.02 Z" id="Path" fill="#F7941D"></path>
            <path d="M186.73,73.89 C190.09,73.27 190.36,64.75 190.06,57.46 L190.06,57.39 C190.064991,57.2967334 190.064991,57.2032666 190.06,57.11 C189.99,55.6 189.9,54.11 189.81,52.85 L189.81,52.41 C189.74,51.41 189.66,50.41 189.61,49.62 C189.61,49.44 189.61,49.27 189.61,49.1 C189.910886,49.1527383 190.214842,49.1861401 190.52,49.2 L190.52,49.27 C190.52,49.39 190.52,49.67 190.57,50.11 C190.57,50.8 190.66,51.87 190.72,53.31 C190.72,54.15 190.79,55.11 190.83,56.2 C190.83,56.32 190.83,56.45 190.83,56.58 C190.92,59.28 191.01,62.68 191.05,66.71 C191.18,77.4 184.44,77.06 183.05,72.71 C182.96,72.34 182.9,72.11 182.9,72.11 C182.9,72.11 184.65,74.28 186.73,73.89 Z" id="Path" fill="#A7A9AC"></path>
            <path d="M126.7,39.29 C117.11,42.05 109.89,49.47 106.03,55.93 C105.9,56.39 109.19,56.46 112.3,55.93 C115.76,55.32 120.01,54.42 120.66,54.29 C118.07,48.02 122.57,41.55 126.7,39.29 Z" id="Path" fill="#F7941D"></path>
            <path d="M126.7,39.29 C124.707959,39.8658589 122.780991,40.6467 120.95,41.62 C120.502581,42.2609368 120.09514,42.9288728 119.73,43.62 C118.84,45.33 117.25,52.07 118.16,54.76 L120.66,54.25 C118.07,48.02 122.57,41.55 126.7,39.29 Z" id="Path" fill="#FED09D"></path>
            <path d="M81.4,60.16 C80.1,60.4 78.62,60.76 77.03,61.16 C71.85,62.6 66.58,65.49 64.56,67.28 C64.56,67.28 57.91,72.75 54.39,76.43 C53.9443305,76.8531227 53.6021459,77.3732433 53.39,77.95 C54.4549181,77.840682 55.5131344,77.6737709 56.56,77.45 C57.71,77.21 65.91,74.37 69.24,71.45 C72.38,68.76 78.19,63.18 81.4,60.16 Z" id="Path" fill="#FDB913"></path>
            <path d="M145.31,34.95 C145.31,34.95 137.4,43.29 138.15,48.26 C135.22,43.28 142.36,34.76 145.31,34.95 Z" id="Path" fill="#F3F3F3"></path>
            <path d="M125.31,45.85 C123.75,46.6 123.99,46.85 120.98,46.53 C119.7,46.38 116.92,45.76 116.25,44.95 C115.967493,44.6460735 115.926362,44.1895252 116.15,43.84 C116.28,43.66 116.54,43.64 116.71,43.5 C117.008387,43.2953689 117.263291,43.0336674 117.46,42.73 C117.716654,42.3521436 117.823587,41.8923312 117.76,41.44 C117.647869,41.2882413 117.459855,41.2125326 117.273847,41.2442384 C117.08784,41.2759442 116.935524,41.4096638 116.88,41.59 C116.7,41.96 116.73,42.02 116.42,42.25 C116.345019,42.3157047 116.256128,42.3635693 116.16,42.39 C115.88,42.39 115.67,42.11 115.68,41.83 C115.738915,41.5498102 115.822577,41.2754007 115.93,41.01 C115.997895,40.5218759 115.858024,40.0276464 115.544399,39.6474956 C115.230775,39.2673449 114.772132,39.0361022 114.28,39.01 C112.28,38.91 111.7,40.86 112.28,42.39 C112.833112,43.7070409 113.714474,44.8603857 114.84,45.74 C116.63,47.02 121.34,49.38 123.46,49.41 L125.61,46.07 L125.31,45.85 Z" id="Path" fill="#4890CD"></path>
            <path d="M131.68,46.53 C133.273241,47.7467701 133.985689,49.7975174 133.49,51.74 L130.71,51.91 C130.71,51.91 132.31,48.3 131.02,47.08 L131.68,46.53 Z" id="Path" fill="#F79228"></path>
            <path d="M124.31,44.86 C125.183447,46.3499243 126.472858,47.5524482 128.02,48.32 C130.87,49.93 134.21,44.61 134.21,44.61 L124.31,44.86 Z" id="Path" fill="#F79228"></path>
            <path d="M122.21,30.89 C122.21,30.89 120.21,26.4 124.39,25.34 C124.39,25.34 122.9,26.84 123.39,27.92 C123.88,29 126.53,30.2 126.53,30.2 L122.21,30.89 Z" id="Path" fill="#4890CD"></path>
            <ellipse id="Oval" fill="#4890CD" transform="translate(129.982000, 36.797500) rotate(-84.857235) translate(-129.982000, -36.797500) " cx="129.982" cy="36.7975" rx="9.61872075" ry="10.0002566"></ellipse>
            <ellipse id="Oval" fill="#B6DCDF" transform="translate(129.201942, 36.110016) rotate(-85.090000) translate(-129.201942, -36.110016) " cx="129.201942" cy="36.1100157" rx="5.14" ry="6.93"></ellipse>
            <ellipse id="Oval" fill="#2B2E65" transform="translate(127.043933, 35.734979) rotate(-82.550000) translate(-127.043933, -35.734979) " cx="127.043933" cy="35.7349793" rx="2.22" ry="1.39"></ellipse>
            <ellipse id="Oval" fill="#FFFFFF" transform="translate(126.967190, 35.308550) rotate(-82.550000) translate(-126.967190, -35.308550) " cx="126.96719" cy="35.3085497" rx="1" ry="1"></ellipse>
            <ellipse id="Oval" fill="#2B2E65" transform="translate(132.505635, 36.477020) rotate(-82.550000) translate(-132.505635, -36.477020) " cx="132.505635" cy="36.4770196" rx="2.22" ry="1.39"></ellipse>
            <ellipse id="Oval" fill="#FFFFFF" transform="translate(132.418892, 36.050590) rotate(-82.550000) translate(-132.418892, -36.050590) " cx="132.418892" cy="36.05059" rx="1" ry="1"></ellipse>
            <path d="M2.53,101.78 C1.35,101.78 0.66,101.78 0.63,101.78 C0.452116637,101.767223 0.286667598,101.684054 0.170295553,101.548912 C0.0539235089,101.41377 -0.00376735199,101.237809 0.01,101.06 C0.0202141865,100.88298 0.101227386,100.717514 0.234786932,100.600885 C0.368346478,100.484256 0.543217244,100.426273 0.72,100.44 C0.72,100.44 1.72,100.51 3.34,100.44 C3.51676906,100.437321 3.68722313,100.505673 3.81316844,100.629738 C3.93911374,100.753804 4.01002029,100.923211 4.01,101.1 C4.01015915,101.46788 3.71772067,101.76918 3.35,101.78 L2.53,101.78 Z" id="Path" fill="#4890CD"></path>
            <path d="M8.81,101.47 C8.46910935,101.450266 8.19759494,101.177324 8.17964813,100.836334 C8.16170132,100.495345 8.40306429,100.19541 8.74,100.14 C10.55,99.94 12.35,99.65 14.08,99.29 C14.4416079,99.2161627 14.794834,99.4486659 14.87,99.81 C14.9442411,100.17393 14.7127297,100.530101 14.35,100.61 C12.58,100.97 10.74,101.26 8.88,101.47 L8.81,101.47 Z M19.51,99.24 C19.2157423,99.2435338 18.9546954,99.0518275 18.87,98.77 C18.7583959,98.4194309 18.95035,98.0444509 19.3,97.93 C21.0051771,97.3912611 22.6750866,96.746676 24.3,96 C24.6370707,95.8505002 25.0318751,95.9968884 25.19,96.33 C25.2645896,96.4917379 25.2717106,96.6765189 25.2097898,96.8435176 C25.1478689,97.0105163 25.0220027,97.1459873 24.86,97.22 C23.1755929,97.9913416 21.4457158,98.6592479 19.68,99.22 L19.51,99.24 Z M38.51,95.16 C38.1779293,95.1631001 37.8952699,94.9189851 37.85,94.59 C37.8243222,94.4135558 37.8700342,94.2341542 37.9770159,94.0915119 C38.0839976,93.9488696 38.2434238,93.8547537 38.42,93.83 C39.6294877,93.6552249 40.8256104,93.3979583 42,93.06 L43.64,92.59 C43.8773957,92.4929938 44.1493376,92.540007 44.3403874,92.7110827 C44.5314373,92.8821583 44.608074,93.1472798 44.5377656,93.3939043 C44.4674572,93.6405289 44.2625398,93.8253842 44.01,93.87 L42.37,94.35 C41.1336353,94.7070898 39.8739282,94.9777431 38.6,95.16 L38.51,95.16 Z M33.06,95.16 L32.95,95.16 C31.9545233,95.006587 30.9787519,94.7450401 30.04,94.38 L29.74,94.58 C29.4271948,94.77734 29.0140253,94.6884864 28.81,94.38 C28.7032496,94.206109 28.6776858,93.9942954 28.74,93.8 C28.3558412,93.6061954 27.9820046,93.3925745 27.62,93.16 C27.3115136,92.9559747 27.22266,92.5428052 27.42,92.23 C27.5144323,92.0802491 27.6650684,91.974715 27.8380667,91.9371067 C28.011065,91.8994984 28.1919195,91.9329693 28.34,92.03 C28.8380602,92.3489609 29.35955,92.6297631 29.9,92.87 C31.0929171,92.0398021 32.2318783,91.1346452 33.31,90.16 C33.586897,89.9192162 34.0059637,89.9459651 34.25,90.22 C34.3896749,90.3487436 34.4691313,90.5300421 34.4691313,90.72 C34.4691313,90.9099579 34.3896749,91.0912564 34.25,91.22 C33.38,91.99 32.45,92.73 31.48,93.43 C32.0541335,93.6007934 32.6386786,93.7344037 33.23,93.83 C33.571457,93.8896029 33.8110808,94.1998047 33.7825105,94.5452452 C33.7539402,94.8906858 33.4666095,95.1573048 33.12,95.16 L33.06,95.16 Z M49.06,92.33 C48.7657423,92.3335338 48.5046954,92.1418275 48.42,91.86 C48.3668117,91.6902623 48.3833027,91.5063408 48.4658384,91.3487725 C48.5483742,91.1912043 48.6901795,91.0729236 48.86,91.02 C50.6,90.49 52.35,89.94 54.08,89.4 C54.4331679,89.2877859 54.8111609,89.4790059 54.93,89.83 C54.9831883,89.9997377 54.9666973,90.1836592 54.8841616,90.3412275 C54.8016258,90.4987957 54.6598205,90.6170764 54.49,90.67 C52.7833333,91.2033333 51.0566667,91.73 49.31,92.25 C49.2453839,92.270705 49.1778472,92.2808355 49.11,92.28 L49.06,92.33 Z M24.21,89.34 C23.9818651,89.3421051 23.7693275,89.2244503 23.65,89.03 C22.627844,87.4162383 21.9062127,85.6307938 21.52,83.76 C21.4461627,83.3983921 21.6786659,83.045166 22.04,82.97 C22.212505,82.9314961 22.393246,82.9637928 22.5417407,83.0596565 C22.6902355,83.1555202 22.7940745,83.3069396 22.83,83.48 C23.1816329,85.1949569 23.8423957,86.8316154 24.78,88.31 C24.9698642,88.6262936 24.877354,89.0359815 24.57,89.24 C24.4616912,89.3062936 24.3369833,89.3409347 24.21,89.34 Z M59.55,88.98 C59.227895,88.9716277 58.9573672,88.7351622 58.9059834,88.4170719 C58.8545996,88.0989817 59.0369141,87.7893647 59.34,87.68 L64.54,85.97 C64.8826872,85.8787943 65.2370936,86.0704084 65.3484376,86.4070915 C65.4597817,86.7437746 65.2894967,87.1089086 64.96,87.24 L59.75,88.95 C59.6853446,88.9705366 59.6178353,88.980663 59.55,88.98 Z M37.55,87.37 C37.2907244,87.3783181 37.0506196,87.2339819 36.9363366,87.0011033 C36.8220536,86.7682248 36.8547882,86.4899952 37.02,86.29 C38.1339855,84.9274202 39.0404481,83.4076633 39.71,81.78 C39.8519566,81.4492547 40.2298659,81.2897591 40.5658671,81.4187836 C40.9018683,81.5478081 41.0758982,81.9192483 40.96,82.26 C40.2460898,84.015887 39.2718331,85.6542565 38.07,87.12 C37.9441019,87.28407 37.7466823,87.3771924 37.54,87.37 L37.55,87.37 Z M69.95,85.53 C69.6261171,85.5261778 69.3513453,85.2912063 69.297299,84.9718417 C69.2432527,84.6524771 69.4254096,84.3401792 69.73,84.23 L74.9,82.47 C75.2478472,82.3500923 75.6273065,82.5331256 75.75,82.88 C75.8695844,83.2333416 75.6821877,83.6170587 75.33,83.74 L70.15,85.47 C70.0832538,85.5000062 70.0125236,85.5202148 69.94,85.53 L69.95,85.53 Z M21.95,78.85 L21.87,78.85 C21.5057831,78.803108 21.2445917,78.4755121 21.28,78.11 C21.461639,76.3523393 21.9489657,74.6399276 22.72,73.05 C22.79,72.91 22.86,72.77 22.94,72.64 C23.1232332,72.3209371 23.5294779,72.2093314 23.85,72.39 C24.1703483,72.5771226 24.2815872,72.9864819 24.1,73.31 C24.0374084,73.4134119 23.980653,73.5202456 23.93,73.63 C23.2257578,75.0847831 22.7823622,76.6518988 22.62,78.26 C22.5781885,78.6143462 22.2660125,78.87376 21.91,78.85 L21.95,78.85 Z M40.95,77.33 C40.6334563,77.3284865 40.359823,77.1087506 40.29,76.8 C39.9272634,75.150167 39.009514,73.6747083 37.69,72.62 C37.5394486,72.5028199 37.4450468,72.3277855 37.429833,72.1376134 C37.4146192,71.9474412 37.479993,71.7596248 37.61,71.62 C37.8482759,71.339872 38.2678125,71.3041668 38.55,71.54 C40.1035477,72.7877725 41.1804885,74.5320635 41.6,76.48 C41.6382823,76.6539407 41.6046408,76.8359701 41.5067175,76.9847381 C41.4087943,77.1335062 41.2549023,77.2363834 41.08,77.27 L40.95,77.33 Z M27.78,70.47 C27.4380112,70.4794722 27.1438185,70.2297654 27.0975936,69.8907827 C27.0513686,69.5517999 27.2679614,69.2324406 27.6,69.15 C29.4737326,68.6850005 31.4314848,68.6747145 33.31,69.12 C33.4826213,69.1556949 33.6333432,69.259968 33.7276137,69.4089154 C33.8218842,69.5578627 33.8516184,69.7387103 33.81,69.91 C33.7740745,70.0830604 33.6702355,70.2344798 33.5217407,70.3303435 C33.373246,70.4262072 33.192505,70.4585039 33.02,70.42 C31.3387771,70.0401626 29.5918215,70.0607151 27.92,70.48 C27.8730996,70.4824469 27.8260765,70.4790881 27.78,70.47 Z" id="Shape" fill="#4890CD" fill-rule="nonzero"></path>
            <path d="M80.36,81.94 C80.0740241,81.9371282 79.8194605,81.7581382 79.72,81.49 C79.5994433,81.1395014 79.7817904,80.757017 80.13,80.63 L82.65,79.74 C83.0004986,79.6194433 83.382983,79.8017904 83.51,80.15 C83.6299077,80.4978472 83.4468744,80.8773065 83.1,81 L80.58,81.9 C80.5085423,81.9221329 80.4346752,81.9355633 80.36,81.94 Z" id="Path" fill="#4890CD"></path>
            <path d="M57.74,8.16 C58.4102715,8.16028165 59.0723843,8.3070386 59.68,8.59 C60.3025527,7.4916252 61.4229082,6.76712863 62.68,6.65 C62.674777,6.57342229 62.674777,6.49657771 62.68,6.42 C62.8443821,4.56524663 64.4509066,3.17558081 66.31,3.28 C66.8700067,3.27916574 67.424417,3.39140831 67.94,3.61 C68.8120409,1.91174719 70.6042139,0.888208514 72.51,1 C74.51357,0.864974967 76.3832113,2.01243726 77.17,3.86 L77.31,3.86 C78.98849,3.84322233 80.3671706,5.1817472 80.4,6.86 C80.4102973,7.02317104 80.4102973,7.18682896 80.4,7.35 C80.49,7.44 80.58,7.55 80.67,7.66 C81.1221635,7.44177645 81.617932,7.32894638 82.12,7.33 C83.5971576,7.29099043 84.8938709,8.30653938 85.21,9.75 C85.5509734,9.57520875 85.9269536,9.4795047 86.31,9.47 C87.9196252,9.5768725 89.1565619,10.9375029 89.11,12.55 C89.1620567,14.1663203 87.9236165,15.5330275 86.31,15.64 C85.7434668,15.6357024 85.1932233,15.4499515 84.74,15.11 C84.3035654,15.6775292 83.6259009,16.0071037 82.91,16 C82.6692137,15.9984227 82.4299752,15.9613576 82.2,15.89 C81.5547921,16.7202369 80.5590448,17.201744 79.5076219,17.1919359 C78.4561989,17.1821279 77.4696074,16.6821288 76.84,15.84 C75.7970153,16.5029313 74.4726745,16.5337299 73.4,15.92 C72.8840637,16.2100189 72.3018604,16.3615985 71.71,16.36 C70.896644,16.3659101 70.1084342,16.0783201 69.49,15.55 C68.835096,16.1490826 67.9775462,16.4778101 67.09,16.47 C66.4187069,16.4706675 65.7605991,16.2836263 65.19,15.93 C64.5803884,16.2755218 63.8907055,16.4548393 63.19,16.45 C62.5365583,16.4508375 61.8922434,16.2966132 61.31,16 C60.7546261,16.2906427 60.1368258,16.4416605 59.51,16.44 C59.2380717,16.4391256 58.9668455,16.4123378 58.7,16.36 C58.3708711,16.4268333 58.0358458,16.4603359 57.7,16.46 C55.3529649,16.5103926 53.4054331,14.656664 53.34,12.31 C53.3713532,11.175591 53.8529959,10.1003256 54.6785612,9.32166734 C55.5041266,8.54300908 56.6056971,8.12501658 57.74,8.16 Z" id="Path" fill="#A6CDD4"></path>
        </g>
    </g>
</svg>