<?xml version="1.0" encoding="UTF-8"?>
<svg width="18px" height="18px" viewBox="0 0 18 18" version="1.1" xmlns="http://www.w3.org/2000/svg" xmlns:xlink="http://www.w3.org/1999/xlink">
    <!-- Generator: Sketch 52.6 (67491) - http://www.bohemiancoding.com/sketch -->
    <title>Group 2</title>
    <desc>Created with Sketch.</desc>
    <g id="web" stroke="none" stroke-width="1" fill="none" fill-rule="evenodd">
        <g id="landing-icinc-video-background" transform="translate(-543.000000, -1846.000000)" fill="#FFFFFF">
            <g id="criteria-copy" transform="translate(258.000000, 1714.000000)">
                <g id="Group-2" transform="translate(285.000000, 132.000000)">
                    <path d="M15.3692683,7 L12.9817073,7 C11.8870122,7 11,7.89333888 11,8.995842 C11,10.098079 11.8870122,10.991684 12.9817073,10.991684 L15.3692683,10.991684 C16.4636992,10.991684 17.3509756,10.098079 17.3509756,8.995842 C17.3509756,7.89333888 16.4636992,7 15.3692683,7 Z" id="Path"></path>
                    <path d="M4.36926829,7 L1.98170732,7 C0.887012195,7 -4.61852778e-14,7.89333888 -4.61852778e-14,8.995842 C-4.61852778e-14,10.098079 0.887012195,10.991684 1.98170732,10.991684 L4.36926829,10.991684 C5.46369919,10.991684 6.35097561,10.098079 6.35097561,8.995842 C6.35097561,7.89333888 5.46369919,7 4.36926829,7 Z" id="Path"></path>
                    <path d="M8.98170732,11 C7.8870122,11 7,11.8933389 7,12.995842 L7,15.4004324 C7,16.5026694 7.8870122,17.3962744 8.98170732,17.3962744 C10.0761382,17.3962744 10.9634146,16.5026694 10.9634146,15.4004324 L10.9634146,12.995842 C10.9634146,11.8933389 10.0761382,11 8.98170732,11 Z" id="Path"></path>
                    <path d="M8.98170732,-7.10542736e-15 C7.8870122,-7.10542736e-15 7,0.893338877 7,1.995842 L7,4.40043243 C7,5.50266944 7.8870122,6.39627443 8.98170732,6.39627443 C10.0761382,6.39627443 10.9634146,5.50266944 10.9634146,4.40043243 L10.9634146,1.995842 C10.9634146,0.893338877 10.0761382,-7.10542736e-15 8.98170732,-7.10542736e-15 Z" id="Path"></path>
                </g>
            </g>
        </g>
    </g>
</svg>