<?xml version="1.0" encoding="UTF-8"?>
<svg width="116px" height="15px" viewBox="0 0 116 15" version="1.1" xmlns="http://www.w3.org/2000/svg" xmlns:xlink="http://www.w3.org/1999/xlink">
    <!-- Generator: Sketch 52.6 (67491) - http://www.bohemiancoding.com/sketch -->
    <title>Group</title>
    <desc>Created with Sketch.</desc>
    <g id="Symbols" stroke="none" stroke-width="1" fill="none" fill-rule="evenodd">
        <g id="footer" transform="translate(-1060.000000, -150.000000)" fill="#FEFEFE">
            <g id="SPONSOR">
                <g id="Group-32" transform="translate(165.000000, 95.000000)">
                    <g id="Group-8" transform="translate(0.000000, 0.170302)">
                        <g id="Group" transform="translate(895.000000, 55.000000)">
                            <path d="M31.6597748,3.27687023 L28.8071031,8.61927481 L34.4997366,8.5769084 L31.6597748,3.27687023 Z M55.4485153,0.00759541985 C55.5487824,0.00759541985 55.6589351,0.0146564885 55.7705,0.0259541985 C55.8806527,0.0414885496 55.9978664,0.0598473282 56.1193168,0.0852671756 C56.2407672,0.112099237 56.3622176,0.145992366 56.4864924,0.185534351 C56.6150038,0.225076336 56.7435153,0.271679389 56.8706145,0.325343511 C56.9977137,0.37759542 57.1205763,0.438320611 57.2434389,0.50610687 C57.3663015,0.576717557 57.4877519,0.650152672 57.6077901,0.734885496 C57.8408053,0.901526718 58.0526374,1.09923664 58.241874,1.32660305 C58.4296985,1.55538168 58.5808053,1.81805344 58.6966069,2.11179389 C58.8067595,2.40412214 58.8660725,2.73175573 58.8717214,3.09751908 L58.8858435,4.33320611 L58.8773702,4.3430916 L54.786187,4.3430916 L54.739584,4.19057252 C54.7240496,4.14114504 54.7028664,4.09030534 54.6774466,4.02534351 C54.6506145,3.96603053 54.6153092,3.90248092 54.5771794,3.83187023 C54.5362252,3.76267176 54.4896221,3.69206107 54.4331336,3.6228626 C54.376645,3.55083969 54.3130954,3.47881679 54.2410725,3.40679389 C54.0984389,3.26274809 53.9049656,3.13706107 53.6733626,3.03961832 L46.7888206,3.03961832 L46.6518359,3.05374046 C46.6122939,3.0579771 46.5671031,3.0678626 46.5162634,3.08480916 C46.4682481,3.10599237 46.4159962,3.13 46.3623321,3.16389313 C46.249355,3.22744275 46.1519122,3.34183206 46.0671794,3.50141221 C45.9838588,3.66099237 45.9358435,3.88694656 45.9330191,4.18209924 L45.9414924,4.37557252 C45.9429046,4.43347328 45.9542023,4.4970229 45.9655,4.57328244 C45.9796221,4.64389313 45.9979809,4.72156489 46.0234008,4.79641221 C46.0474084,4.87408397 46.084126,4.9489313 46.1236679,5.02377863 C46.1646221,5.0929771 46.2182863,5.16076336 46.276187,5.21866412 C46.3397366,5.27515267 46.4117595,5.32175573 46.500729,5.35423664 C46.586874,5.3909542 46.6885534,5.40931298 46.8029427,5.40931298 L56.3269122,5.40931298 L56.4610725,5.42625954 L56.8084771,5.50958015 C56.8790878,5.52935115 56.9553473,5.55759542 57.0372557,5.58725191 C57.1177519,5.62255725 57.2053092,5.65927481 57.2928664,5.69881679 C57.3846603,5.74400763 57.4764542,5.79343511 57.5724847,5.85274809 C57.6656908,5.91064885 57.7617214,5.9770229 57.8577519,6.0490458 C57.9537824,6.1210687 58.0484008,6.20015267 58.1401947,6.29335878 C58.2334008,6.38232824 58.3280191,6.48400763 58.4169885,6.59416031 C58.5087824,6.70431298 58.5935153,6.82152672 58.6768359,6.9528626 C58.7573321,7.08419847 58.836416,7.22824427 58.9098511,7.38217557 C58.9832863,7.53610687 59.0482481,7.70416031 59.1061489,7.88492366 C59.1640496,8.06427481 59.2134771,8.25633588 59.2558435,8.46110687 C59.2939733,8.66587786 59.3306908,8.89041985 59.3490496,9.12767176 C59.371645,9.36351145 59.3871794,9.61064885 59.3871794,9.87614504 L59.2939733,10.5314122 C59.2812634,10.6274427 59.2600802,10.7333588 59.2360725,10.8463359 L59.1541641,11.1993893 C59.120271,11.3236641 59.0835534,11.4479389 59.0383626,11.5778626 C58.9988206,11.7077863 58.9508053,11.8377099 58.9013779,11.9690458 C58.849126,12.1017939 58.7926374,12.2317176 58.7305,12.3616412 C58.664126,12.4887405 58.5935153,12.6144275 58.5186679,12.7372901 C58.3661489,12.9872519 58.1867977,13.2089695 57.9777901,13.4052672 C57.7687824,13.6058015 57.5287061,13.7625573 57.2589733,13.879771 C56.9835916,13.9983969 56.6729046,14.0577099 56.3269122,14.0619466 L45.351187,14.0619466 L44.7128664,13.9772137 L43.9333244,13.7795038 L43.084584,13.4363359 C43.0139733,13.3982061 42.9447748,13.3614885 42.879813,13.3191221 C42.8106145,13.2809924 42.7470649,13.2428626 42.6849275,13.1976718 C42.6213779,13.1524809 42.5606527,13.1087023 42.5027519,13.0592748 C42.4434389,13.0098473 42.3869504,12.9561832 42.3346985,12.9067557 C42.2824466,12.8530916 42.2330191,12.7966031 42.186416,12.7372901 C42.1426374,12.6808015 42.0988588,12.6172519 42.0550802,12.5579389 C42.0183626,12.4943893 41.9844695,12.4266031 41.9505763,12.3559924 C41.9251565,12.2896183 41.8969122,12.2175954 41.875729,12.1455725 C41.8531336,12.0735496 41.8347748,11.9958779 41.8206527,11.9153817 C41.8121794,11.8377099 41.8079427,11.7572137 41.8079427,11.6724809 L41.8079427,9.47507634 L41.8121794,9.46942748 L45.9217214,9.46942748 L45.9287824,9.47507634 C45.9287824,9.53580153 45.9330191,9.61206107 45.9414924,9.71091603 L45.9880954,10.0159542 C46.0008053,10.0724427 46.0135153,10.1261069 46.0346985,10.1840076 C46.0502328,10.2376718 46.0756527,10.2941603 46.0996603,10.3506489 C46.1236679,10.4057252 46.1519122,10.4579771 46.1858053,10.510229 C46.2182863,10.5638931 46.256416,10.6119084 46.2945458,10.6613359 C46.3764542,10.754542 46.4767214,10.8293893 46.5953473,10.8887023 C46.6574847,10.9183588 46.7266832,10.9437786 46.7987061,10.9579008 C46.8693168,10.9776718 46.9469885,10.9875573 47.0331336,10.9960305 L54.4430191,11.0143893 C54.5065687,11.0129771 54.5630573,11.0030916 54.620958,10.9875573 C54.6746221,10.9762595 54.726874,10.9579008 54.7777137,10.9310687 C54.8765687,10.8830534 54.9613015,10.8082061 55.0347366,10.7121756 C55.070042,10.6669847 55.1025229,10.6119084 55.1307672,10.5554198 C55.1604237,10.4961069 55.1816069,10.431145 55.2013779,10.3619466 C55.2211489,10.2941603 55.2366832,10.2164885 55.2451565,10.1331679 C55.2564542,10.0526718 55.2592786,9.96652672 55.2592786,9.87614504 C55.2578664,9.78293893 55.2508053,9.69820611 55.2423321,9.61206107 C55.2296221,9.53015267 55.2155,9.44824427 55.1914924,9.37339695 C55.1717214,9.30278626 55.1463015,9.23358779 55.116645,9.17003817 C55.0855763,9.10507634 55.0516832,9.04576336 55.0149656,8.99492366 C54.9415305,8.88477099 54.8567977,8.8028626 54.7565305,8.7421374 C54.7071031,8.71671756 54.6619122,8.69553435 54.6082481,8.68141221 C54.5588206,8.66587786 54.5065687,8.66022901 54.4543168,8.66022901 L44.8526756,8.66022901 C44.7820649,8.66022901 44.6705,8.63763359 44.5208053,8.59526718 C44.4501947,8.57408397 44.366874,8.54583969 44.280729,8.51053435 C44.1903473,8.47805344 44.0985534,8.43568702 43.996874,8.38908397 C43.8980191,8.34530534 43.7949275,8.28881679 43.6904237,8.22667939 C43.5845076,8.1659542 43.4785916,8.0939313 43.3698511,8.01767176 C43.2667595,7.94 43.1580191,7.85385496 43.0492786,7.76064885 C42.9433626,7.66461832 42.8388588,7.56293893 42.7371794,7.45278626 C42.529584,7.22824427 42.3474084,6.96839695 42.186416,6.66900763 C42.0240115,6.37103053 41.9011489,6.02927481 41.8121794,5.64656489 C41.7684008,5.40931298 41.7373321,5.16782443 41.7133244,4.92633588 C41.6921412,4.68484733 41.6766069,4.44759542 41.6751947,4.2089313 C41.670958,3.72736641 41.7175611,3.24862595 41.8121794,2.7698855 C41.8305382,2.69080153 41.8531336,2.60465649 41.8856145,2.51427481 C41.9166832,2.42248092 41.9534008,2.32927481 42.0000038,2.23041985 C42.0451947,2.13438931 42.0974466,2.03412214 42.1525229,1.93385496 C42.2118359,1.83358779 42.2753855,1.73049618 42.344584,1.62881679 C42.4123702,1.5271374 42.4858053,1.4240458 42.5648893,1.32236641 C42.6397366,1.22209924 42.7230573,1.12324427 42.8092023,1.02862595 C42.8939351,0.93259542 42.9843168,0.839389313 43.0761107,0.753244275 C43.1664924,0.665687023 43.2667595,0.589427481 43.3613779,0.511755725 C43.4602328,0.432671756 43.5619122,0.36629771 43.6621794,0.305572519 C43.765271,0.244847328 43.8669504,0.189770992 43.9686298,0.148816794 C44.0717214,0.103625954 44.174813,0.0654961832 44.280729,0.0414885496 C44.3824084,0.0203053435 44.4869122,0.00759541985 44.5900038,0.00759541985 L55.4485153,0.00759541985 Z M8.16618702,0.00759541985 L8.17324809,0.0188931298 L8.17324809,5.19324427 L10.4384389,5.19324427 L15.6523321,0.00759541985 L21.6485916,0.00759541985 L21.6556527,0.0188931298 L14.5155,6.77068702 C14.4816069,6.80316794 14.4604237,6.83564885 14.449126,6.86671756 C14.4335916,6.89637405 14.4265305,6.92744275 14.429355,6.95427481 C14.4307672,6.98675573 14.4378282,7.01782443 14.4519504,7.0460687 C14.4674847,7.0771374 14.4886679,7.10255725 14.5098511,7.13362595 L21.6485916,14.0040458 L28.6588206,0.0188931298 L34.5082099,0.0132442748 L41.5876374,14.0012214 L41.5834008,14.0096947 L37.4131336,14.0096947 L36.1562634,11.679542 L27.1632863,11.679542 L25.9007672,14.0167557 L15.7667214,14.0167557 L10.531645,8.87629771 L8.16053817,8.87629771 L8.16053817,13.615687 L7.94023282,14.0153435 L4.05946947,14.0167557 L4.04958397,14.0096947 L4.04958397,8.67293893 L1.0415687,8.67293893 C0.973782443,8.66870229 0.907408397,8.66164122 0.843858779,8.6489313 C0.784545802,8.63339695 0.729469466,8.61503817 0.678629771,8.59103053 C0.569889313,8.54583969 0.47809542,8.47805344 0.39901145,8.38343511 C0.360881679,8.33965649 0.328400763,8.28881679 0.300156489,8.23232824 C0.269087786,8.17442748 0.243667939,8.10946565 0.223896947,8.04026718 C0.20271374,7.9710687 0.188591603,7.89480916 0.175881679,7.81148855 C0.164583969,7.73099237 0.156110687,7.6420229 0.156110687,7.54881679 L0.156110687,5.40507634 L0.158935115,5.39801527 L4.04958397,5.39801527 L4.05664504,0.0188931298 L4.05946947,0.00759541985 L8.16618702,0.00759541985 Z" id="Fill-6"></path>
                            <path d="M111.660836,0.00703053435 C111.76534,0.00703053435 111.872668,0.0155038168 111.985645,0.0268015267 C112.09721,0.0409236641 112.214424,0.0592824427 112.33305,0.0861145038 C112.4545,0.111534351 112.577363,0.146839695 112.700225,0.184969466 C112.827324,0.22451145 112.95866,0.271114504 113.084347,0.32619084 C113.211447,0.378442748 113.335721,0.439167939 113.45576,0.506954198 C113.578622,0.576152672 113.700073,0.649587786 113.820111,0.735732824 C114.053126,0.902374046 114.269195,1.09867176 114.454195,1.32745038 C114.646256,1.55622901 114.79595,1.81748855 114.908927,2.11122901 C115.023317,2.40355725 115.079805,2.73260305 115.086866,3.0969542 L115.103813,4.33264122 L115.091103,4.34252672 L111.001332,4.34252672 L110.951905,4.19141985 C110.937782,4.14199237 110.918011,4.09115267 110.889767,4.02619084 C110.864347,3.96687786 110.829042,3.90332824 110.790912,3.83130534 C110.749958,3.76210687 110.703355,3.69149618 110.645454,3.62370992 C110.590378,3.55168702 110.52824,3.47825191 110.454805,3.40622901 C110.309347,3.26359542 110.117286,3.1379084 109.885683,3.03905344 L103.003966,3.03905344 L102.866981,3.05317557 C102.826027,3.05741221 102.779424,3.06729771 102.729996,3.08565649 C102.681981,3.10542748 102.628317,3.13084733 102.576065,3.16332824 C102.4645,3.22687786 102.367057,3.34126718 102.278088,3.50225954 C102.197592,3.66183969 102.150989,3.88638168 102.146752,4.18153435 L102.15805,4.37641985 C102.159462,4.43432061 102.167935,4.49787023 102.179233,4.57271756 C102.194767,4.64332824 102.214538,4.72241221 102.237134,4.79725954 C102.263966,4.87351908 102.296447,4.94836641 102.337401,5.02462595 C102.378355,5.09382443 102.430607,5.16019847 102.491332,5.21809924 C102.553469,5.27458779 102.628317,5.32260305 102.717286,5.35367176 C102.803431,5.39180153 102.903698,5.40874809 103.018088,5.40874809 L112.539233,5.40874809 L112.673393,5.42710687 L113.023622,5.50901527 C113.095645,5.52878626 113.16908,5.55844275 113.252401,5.58668702 C113.335721,5.62340458 113.420454,5.65870992 113.509424,5.69825191 C113.601218,5.74344275 113.693011,5.79428244 113.789042,5.85359542 C113.879424,5.91149618 113.976866,5.97787023 114.072897,6.04848092 C114.168927,6.12050382 114.263546,6.201 114.353927,6.29279389 C114.448546,6.38317557 114.54034,6.48344275 114.632134,6.59359542 C114.723927,6.70374809 114.80866,6.82096183 114.890569,6.95229771 C114.972477,7.0850458 115.050149,7.22767939 115.123584,7.3830229 C115.198431,7.53554198 115.261981,7.70359542 115.322706,7.88435878 C115.377782,8.06370992 115.425798,8.25718321 115.470989,8.46054198 C115.510531,8.66672519 115.544424,8.88985496 115.564195,9.12710687 C115.589615,9.36294656 115.600912,9.61149618 115.602324,9.87558015 L115.511943,10.5308473 C115.494996,10.6282901 115.472401,10.7342061 115.449805,10.8471832 C115.425798,10.9587481 115.398966,11.0759618 115.369309,11.2002366 C115.336828,11.3245115 115.295874,11.4487863 115.253508,11.5772977 C115.213966,11.7058092 115.16595,11.837145 115.113698,11.9698931 C115.064271,12.101229 115.007782,12.2311527 114.944233,12.3610763 C114.877859,12.4895878 114.80866,12.6152748 114.732401,12.7381374 C114.579882,12.986687 114.400531,13.2098168 114.191523,13.4047023 C113.98534,13.6066489 113.745263,13.7619924 113.471294,13.8792061 C113.200149,13.9978321 112.886637,14.057145 112.539233,14.0613817 L101.567744,14.0613817 L100.947782,13.9780611 L99.9549962,13.7083282 L99.3096145,13.4371832 C99.2375916,13.3976412 99.1698053,13.3609237 99.1048435,13.3199695 C99.0370573,13.2804275 98.9720954,13.2422977 98.9085458,13.1985191 C98.8464084,13.1533282 98.784271,13.1081374 98.7263702,13.0587099 C98.6670573,13.0092824 98.6105687,12.9570305 98.5540802,12.9076031 C98.5018282,12.8539389 98.4509885,12.7974504 98.4057977,12.7381374 C98.3591947,12.6816489 98.3168282,12.6180992 98.275874,12.5587863 C98.2377443,12.4952366 98.2038511,12.4260382 98.1713702,12.3554275 C98.1403015,12.2890534 98.1134695,12.2170305 98.0894618,12.1464198 C98.0696908,12.0743969 98.0527443,11.995313 98.0414466,11.916229 C98.0315611,11.8385573 98.0245,11.7566489 98.0245,11.6733282 L98.0245,9.47451145 L102.135454,9.4688626 L102.143927,9.47451145 C102.143927,9.53523664 102.146752,9.6129084 102.15805,9.71035115 L102.204653,10.0168015 C102.21595,10.0718779 102.22866,10.125542 102.247019,10.1834427 C102.26679,10.2371069 102.287973,10.2935954 102.316218,10.350084 C102.364233,10.4602366 102.427782,10.5647405 102.511103,10.660771 C102.550645,10.707374 102.594424,10.7511527 102.642439,10.7892824 C102.694691,10.826 102.748355,10.8584809 102.811905,10.8881374 C102.871218,10.9192061 102.937592,10.9432137 103.011027,10.9587481 C103.085874,10.9785191 103.162134,10.9869924 103.245454,10.9954656 L110.656752,11.0138244 C110.717477,11.0124122 110.778202,11.0025267 110.833279,10.9869924 C110.888355,10.9771069 110.942019,10.9559237 110.990034,10.9305038 C111.093126,10.8824885 111.176447,10.8076412 111.248469,10.7116107 C111.283775,10.6678321 111.31908,10.6127557 111.343088,10.5562672 C111.375569,10.4969542 111.398164,10.4319924 111.415111,10.3613817 C111.434882,10.2935954 111.450416,10.2159237 111.460302,10.1340153 C111.470187,10.0521069 111.474424,9.96737405 111.474424,9.87558015 C111.474424,9.78378626 111.467363,9.69764122 111.454653,9.6129084 C111.446179,9.52958779 111.430645,9.4490916 111.405225,9.37424427 C111.385454,9.30222137 111.361447,9.2330229 111.33179,9.16947328 C111.302134,9.10451145 111.269653,9.04519847 111.231523,8.99435878 C111.155263,8.88420611 111.069118,8.80370992 110.975912,8.74298473 C110.926485,8.71615267 110.874233,8.69496947 110.824805,8.68225954 C110.773966,8.66672519 110.720302,8.65966412 110.66805,8.65966412 L101.067821,8.65966412 C101.032515,8.65966412 100.987324,8.65542748 100.93366,8.64271756 C100.877172,8.63141985 100.810798,8.61870992 100.738775,8.59470229 C100.662515,8.57351908 100.580607,8.54668702 100.495874,8.50996947 C100.406905,8.47748855 100.315111,8.43653435 100.216256,8.3899313 C100.115989,8.34474046 100.010073,8.28825191 99.9083931,8.2261145 C99.8024771,8.16538931 99.6951489,8.09477863 99.5849962,8.01851908 C99.4762557,7.93943511 99.3717519,7.85470229 99.2686603,7.76008397 C99.1599198,7.66546565 99.0511794,7.56378626 98.9495,7.45222137 C98.744729,7.23050382 98.5639656,6.96924427 98.3987366,6.66985496 C98.2391565,6.37187786 98.1148817,6.03012214 98.0301489,5.646 C97.984958,5.40874809 97.9496527,5.16725954 97.9284695,4.92577099 C97.905874,4.68569466 97.8931641,4.44844275 97.8889275,4.20977863 C97.8875153,3.72821374 97.9312939,3.24947328 98.0301489,2.76932061 C98.044271,2.69023664 98.0696908,2.60550382 98.1007595,2.51370992 C98.1318282,2.42191603 98.169958,2.33012214 98.2151489,2.22985496 C98.2603397,2.13523664 98.3097672,2.03496947 98.3676679,1.93329008 C98.4283931,1.8330229 98.4905305,1.73134351 98.5583168,1.62825191 C98.6275153,1.52657252 98.698126,1.42489313 98.7757977,1.32321374 C98.8577061,1.22153435 98.9410267,1.12267939 99.0271718,1.02947328 C99.1119046,0.932030534 99.2036985,0.840236641 99.2954924,0.752679389 C99.3872863,0.666534351 99.4790802,0.588862595 99.5751107,0.51119084 C99.6753779,0.433519084 99.7742328,0.367145038 99.8773244,0.305007634 C99.9790038,0.244282443 100.080683,0.190618321 100.182363,0.149664122 C100.286866,0.103061069 100.389958,0.0649312977 100.495874,0.0409236641 C100.597553,0.0211526718 100.699233,0.00703053435 100.805149,0.00703053435 L111.660836,0.00703053435 Z M96.5557977,0.00703053435 L96.5614466,0.0140916031 L96.5035458,9.82756489 C96.4993092,10.0549313 96.4837748,10.2695878 96.4611794,10.4729466 C96.4399962,10.680542 96.4075153,10.8726031 96.3679733,11.050542 C96.3312557,11.2327176 96.2846527,11.400771 96.2324008,11.5631756 C96.1759122,11.7269924 96.1208359,11.8752748 96.0544618,12.0164962 C95.9895,12.1563053 95.9203015,12.286229 95.8426298,12.4105038 C95.7691947,12.5333664 95.6844618,12.6477557 95.6011412,12.7536718 C95.5178206,12.8553511 95.4302634,12.9513817 95.3370573,13.0403511 C95.2452634,13.1293206 95.1534695,13.2098168 95.0560267,13.2804275 C94.9599962,13.3552748 94.859729,13.4230611 94.7580496,13.4851985 C94.6606069,13.5445115 94.5617519,13.5967634 94.4643092,13.6461908 C94.364042,13.6956183 94.2623626,13.7393969 94.1606832,13.7747023 C94.060416,13.8128321 93.9629733,13.845313 93.8655305,13.8707328 C93.7680878,13.8975649 93.6748817,13.9187481 93.5788511,13.9385191 C93.485645,13.9568779 93.3995,13.971 93.313355,13.9808855 L93.0704542,14.0034809 C92.9956069,14.010542 92.923584,14.0119542 92.8586221,14.0147786 L82.5311031,14.0147786 C82.4435458,14.0147786 82.3475153,14.0091298 82.2458359,14.0006565 C82.1399198,13.990771 82.0340038,13.9780611 81.9167901,13.9568779 C81.7953397,13.9385191 81.6668282,13.9088626 81.5383168,13.8707328 C81.4069809,13.8340153 81.2770573,13.7902366 81.1428969,13.7393969 C81.0045,13.6829084 80.8717519,13.6179466 80.740416,13.5402748 C80.6076679,13.4668397 80.4763321,13.3806947 80.3478206,13.2804275 C80.0879733,13.0869542 79.8507214,12.8355802 79.6360649,12.5277176 C79.4242328,12.219855 79.2547672,11.8456183 79.1220191,11.400771 C78.9878588,10.9559237 78.9158359,10.4319924 78.903126,9.82756489 L78.843813,0.0140916031 L78.8466374,0.00703053435 L82.8657977,0.0140916031 C82.8982786,0.019740458 82.9349962,0.0268015267 82.9759504,0.0409236641 C83.0211412,0.057870229 83.0663321,0.0804656489 83.1101107,0.108709924 C83.1553015,0.139778626 83.1962557,0.172259542 83.2343855,0.217450382 C83.2725153,0.265465649 83.3064084,0.321954198 83.3290038,0.391152672 C83.3530115,0.458938931 83.3628969,0.538022901 83.3628969,0.629816794 L83.3628969,9.14687786 C83.3657214,9.19065649 83.3671336,9.24149618 83.3741947,9.29374809 C83.3798435,9.34317557 83.3854924,9.39683969 83.3982023,9.45050382 C83.4066756,9.50699237 83.4207977,9.55924427 83.4349198,9.6129084 C83.4518664,9.66657252 83.4702252,9.71741221 83.4942328,9.77107634 C83.5140038,9.82332824 83.5408359,9.87840458 83.5676679,9.93065649 C83.5987366,9.98008397 83.6298053,10.0309237 83.6636985,10.0789389 C83.7328969,10.172145 83.8119809,10.2554656 83.9023626,10.3317252 C83.9503779,10.3656183 83.9983931,10.3995115 84.050645,10.4319924 C84.1043092,10.4602366 84.1593855,10.4870687 84.2186985,10.5096641 C84.2765992,10.5336718 84.3401489,10.5492061 84.4036985,10.5605038 C84.4700725,10.5718015 84.539271,10.5774504 84.6112939,10.5774504 L90.7939656,10.5774504 C91.0086221,10.5732137 91.1964466,10.5237863 91.3517901,10.4319924 C91.5071336,10.337374 91.6398817,10.2201603 91.7387366,10.0789389 C91.7909885,10.0055038 91.8361794,9.93065649 91.8743092,9.85157252 C91.9124389,9.77531298 91.9449198,9.69481679 91.9703397,9.6129084 C91.9929351,9.531 92.0098817,9.45191603 92.0225916,9.37424427 C92.0338893,9.29516031 92.0409504,9.21748855 92.0409504,9.14687786 L92.0409504,0.629816794 C92.0409504,0.538022901 92.0508359,0.458938931 92.0734313,0.391152672 C92.0974389,0.321954198 92.1285076,0.265465649 92.170874,0.217450382 C92.2075916,0.172259542 92.2485458,0.139778626 92.2923244,0.108709924 C92.3361031,0.0804656489 92.3798817,0.057870229 92.4236603,0.0409236641 C92.4674389,0.0268015267 92.5055687,0.019740458 92.5380496,0.0140916031 L92.6114847,0.00703053435 L96.5557977,0.00703053435 Z M65.028126,0.00703053435 L65.0337748,0.019740458 L65.0337748,5.1940916 L67.3003779,5.1940916 L72.5170954,0.00703053435 L78.5077061,0.00703053435 L78.513355,0.019740458 L71.3802634,6.77012214 C71.3463702,6.80260305 71.3237748,6.83508397 71.3068282,6.86615267 C71.2969427,6.89722137 71.2912939,6.92687786 71.2941183,6.95512214 C71.2969427,6.98619084 71.3025916,7.01867176 71.318126,7.04550382 C71.3308359,7.07798473 71.3506069,7.10199237 71.3746145,7.13447328 L78.513355,14.0091298 L78.5077061,14.0176031 L72.6272481,14.0176031 L67.3893473,8.87573282 L65.0196527,8.87573282 L65.0196527,13.6165344 L64.7993473,14.0147786 L60.918584,14.0176031 L60.9129351,14.0091298 L60.9129351,0.019740458 L60.9228206,0.00703053435 L65.028126,0.00703053435 Z" id="Fill-7"></path>
                        </g>
                    </g>
                </g>
            </g>
        </g>
    </g>
</svg>