<?xml version="1.0" encoding="UTF-8"?>
<svg width="200px" height="100px" viewBox="0 0 200 100" version="1.1" xmlns="http://www.w3.org/2000/svg" xmlns:xlink="http://www.w3.org/1999/xlink">
    <!-- Generator: Sketch 52.6 (67491) - http://www.bohemiancoding.com/sketch -->
    <title>logo program rev</title>
    <desc>Created with Sketch.</desc>
    <defs>
        <polygon id="path-1" points="0 99.7094421 199.868522 99.7094421 199.868522 0 0 0"></polygon>
    </defs>
    <g id="Symbols" stroke="none" stroke-width="1" fill="none" fill-rule="evenodd">
        <g id="footer" transform="translate(-165.000000, -869.000000)">
            <g id="SPONSOR">
                <g id="footer" transform="translate(0.000000, 834.000000)">
                    <g id="logo-program-rev" transform="translate(165.000000, 35.000000)">
                        <path d="M46.7391435,8.39034335 L46.7485653,13.5401288 C46.7794004,13.5461373 46.8119486,13.5508584 46.8462099,13.5542918 C46.8800428,13.5572961 46.9280086,13.5585837 46.9901071,13.5585837 C47.2068094,13.5585837 47.3584154,13.5070815 47.4453533,13.4049356 C47.5322912,13.3027897 47.575546,13.1242489 47.575546,12.8697425 L47.575546,9.04227468 C47.575546,8.79377682 47.5305782,8.61995708 47.4406424,8.52081545 C47.3507066,8.42167382 47.1943897,8.37188841 46.9712634,8.37188841 C46.9468522,8.37188841 46.9078801,8.3748927 46.8552034,8.38133047 C46.8025268,8.38733906 46.7639829,8.39034335 46.7391435,8.39034335 Z M46.7391435,2.1139485 L46.7391435,6.11824034 C46.7639829,6.11824034 46.8025268,6.12124464 46.8552034,6.1276824 C46.9078801,6.13369099 46.9468522,6.13712446 46.9712634,6.13712446 C47.1943897,6.13712446 47.3507066,6.08562232 47.4406424,5.98304721 C47.5305782,5.88090129 47.575546,5.70536481 47.575546,5.45729614 L47.575546,2.76587983 C47.575546,2.52982833 47.5352891,2.36244635 47.4547752,2.26287554 C47.3742612,2.16373391 47.2316488,2.1139485 47.0273662,2.1139485 L46.7391435,2.1139485 Z M44.1001713,0.0929184549 L47.3524197,0.0929184549 C48.4676231,0.0929184549 49.2217987,0.279613734 49.6149465,0.652145923 C50.0085225,1.02424893 50.2050964,1.75386266 50.2050964,2.84012876 L50.2050964,4.87961373 C50.2050964,5.55 50.1151606,6.06244635 49.9357173,6.41609442 C49.7558458,6.77017167 49.4586296,7.03412017 49.0436403,7.20793991 C49.4710493,7.40021459 49.7716916,7.66716738 49.9451392,8.0083691 C50.1185867,8.35 50.2050964,8.88390558 50.2050964,9.61008584 L50.2050964,12.4504292 C50.2050964,13.8040773 50.0038116,14.6637339 49.601242,15.0298283 C49.1986724,15.3963519 48.3652677,15.5791845 47.1014561,15.5791845 L44.1001713,15.5791845 L44.1001713,0.0929184549 Z" id="Fill-1" fill="#FEFEFE"></path>
                        <polygon id="Fill-3" fill="#FEFEFE" points="51.5061242 0.0930901288 55.7249679 0.0930901288 55.7249679 2.11369099 54.1450964 2.11369099 54.1450964 6.06218884 55.7249679 6.06218884 55.7249679 8.10167382 54.1450964 8.10167382 54.1450964 13.5398712 55.7249679 13.5398712 55.7249679 15.5793562 51.5061242 15.5793562"></polygon>
                        <polygon id="Fill-5" fill="#FEFEFE" points="56.9884368 0.0930901288 59.5533191 0.0930901288 59.5533191 6.27635193 59.6462527 6.257897 60.6029979 0.0930901288 63.2051392 0.0930901288 61.7087794 6.93772532 63.4 15.5793562 60.7520343 15.5793562 59.6462527 8.06433476 59.5533191 8.06433476 59.5533191 15.5793562 56.9884368 15.5793562"></polygon>
                        <path d="M66.8939615,2.11390558 L66.8939615,6.84437768 C66.9247966,6.84437768 66.9667666,6.84781116 67.0194433,6.85381974 C67.0721199,6.86025751 67.107666,6.8632618 67.1260814,6.8632618 C67.3616274,6.8632618 67.5213704,6.80875536 67.6048822,6.70017167 C67.688394,6.59158798 67.730364,6.37914163 67.730364,6.06240343 L67.730364,3.09158798 C67.730364,2.62592275 67.6871092,2.34652361 67.6001713,2.25381974 C67.5132334,2.16025751 67.336788,2.11390558 67.0708351,2.11390558 L66.8939615,2.11390558 Z M64.2549893,0.093304721 L67.4888223,0.093304721 C68.6408565,0.093304721 69.4074518,0.287296137 69.7886081,0.67527897 C70.1693362,1.0632618 70.3599143,1.91819742 70.3599143,3.24051502 L70.3599143,5.26154506 C70.3599143,6.13064378 70.2716916,6.74223176 70.0952463,7.09587983 C69.9183726,7.44995708 69.6074518,7.72892704 69.1611991,7.93407725 C69.5950321,8.10188841 69.902955,8.36111588 70.0858244,8.71175966 C70.2686938,9.06240343 70.3599143,9.59759657 70.3599143,10.3177682 L70.3599143,15.5795708 L67.730364,15.5795708 L67.730364,9.84309013 C67.730364,9.58858369 67.6823983,9.40703863 67.5864668,9.29845494 C67.4901071,9.18987124 67.3307923,9.13536481 67.107666,9.13536481 C67.0828266,9.13536481 67.0472805,9.1383691 67.0010278,9.14480687 C66.9543469,9.15081545 66.9188009,9.15381974 66.8939615,9.15381974 L66.8939615,15.5795708 L64.2549893,15.5795708 L64.2549893,0.093304721 Z" id="Fill-7" fill="#FEFEFE"></path>
                        <path d="M74.5508779,3.16613734 L74.1324625,10.2249356 L75.0245396,10.2249356 L74.6253961,3.16613734 L74.5508779,3.16613734 Z M72.8223983,0.0931759657 L76.3350321,0.0931759657 L77.89606,15.5794421 L75.331606,15.5794421 L75.1363169,12.2828755 L74.0399572,12.2828755 L73.8446681,15.5794421 L71.2986296,15.5794421 L72.8223983,0.0931759657 Z" id="Fill-9" fill="#FEFEFE"></path>
                        <polygon id="Fill-11" fill="#FEFEFE" points="78.9832548 0.0930901288 83.2020985 0.0930901288 83.2020985 2.11369099 81.622227 2.11369099 81.622227 6.06218884 83.2020985 6.06218884 83.2020985 8.10167382 81.622227 8.10167382 81.622227 15.5793562 78.9832548 15.5793562"></polygon>
                        <path d="M107.671649,8.93978541 L107.671649,12.9067382 C107.671649,13.1427897 107.70591,13.3136052 107.774004,13.4191845 C107.842099,13.5243348 107.947452,13.5771245 108.090064,13.5771245 C108.238672,13.5771245 108.34531,13.5277682 108.410835,13.4281974 C108.475503,13.3290558 108.508051,13.1552361 108.508051,12.9067382 L108.508051,8.93978541 C108.508051,8.71618026 108.475503,8.55351931 108.410835,8.45094421 C108.34531,8.3483691 108.238672,8.29729614 108.090064,8.29729614 C107.935032,8.29729614 107.826681,8.34064378 107.765011,8.42776824 C107.702484,8.51446352 107.671649,8.68527897 107.671649,8.93978541 Z M107.671649,5.35437768 C107.671649,5.5844206 107.70591,5.75008584 107.774004,5.85266094 C107.842099,5.95523605 107.947452,6.00630901 108.090064,6.00630901 C108.244668,6.00630901 108.353448,5.95824034 108.415118,5.862103 C108.477216,5.76596567 108.508051,5.59643777 108.508051,5.35437768 L108.508051,2.74708155 C108.508051,2.51103004 108.475503,2.34064378 108.410835,2.23506438 C108.34531,2.12948498 108.238672,2.07669528 108.090064,2.07669528 C107.941456,2.07669528 107.83439,2.12347639 107.769722,2.21618026 C107.704197,2.3093133 107.671649,2.48656652 107.671649,2.74708155 L107.671649,5.35437768 Z M106.250236,7.18914163 C105.822827,7.10201717 105.514475,6.88957082 105.325182,6.55137339 C105.136317,6.21274678 105.042099,5.69300429 105.042099,4.99128755 L105.042099,3.11017167 C105.042099,1.73849785 105.232677,0.880128755 105.613405,0.535493562 C105.994561,0.190858369 106.832248,0.0187553648 108.126895,0.0187553648 C109.396702,0.0187553648 110.2194,0.200300429 110.594133,0.563390558 C110.968865,0.926480687 111.156445,1.77583691 111.156445,3.11017167 L111.156445,4.99128755 C111.156445,5.68055794 111.061799,6.19429185 110.873362,6.53248927 C110.684069,6.87111588 110.372719,7.08957082 109.939315,7.18914163 C110.385139,7.33806867 110.699486,7.58012876 110.882355,7.91532189 C111.065225,8.25094421 111.156445,8.77841202 111.156445,9.49858369 L111.156445,12.562103 C111.156445,13.9217597 110.967152,14.7771245 110.589422,15.1273391 C110.211692,15.478412 109.365867,15.6539485 108.052805,15.6539485 C106.801413,15.6539485 105.986424,15.4771245 105.609122,15.1230472 C105.230964,14.7693991 105.042099,13.9157511 105.042099,12.562103 L105.042099,9.49858369 C105.042099,8.76596567 105.131606,8.23206009 105.311478,7.89686695 C105.491349,7.56167382 105.804411,7.32562232 106.250236,7.18914163 Z" id="Fill-13" fill="#FEFEFE"></path>
                        <path d="M114.93833,8.93978541 L114.93833,12.9067382 C114.93833,13.1427897 114.972591,13.3136052 115.040685,13.4191845 C115.108779,13.5243348 115.214133,13.5771245 115.356745,13.5771245 C115.505353,13.5771245 115.611991,13.5277682 115.677516,13.4281974 C115.742184,13.3290558 115.774732,13.1552361 115.774732,12.9067382 L115.774732,8.93978541 C115.774732,8.71618026 115.742184,8.55351931 115.677516,8.45094421 C115.611991,8.3483691 115.505353,8.29729614 115.356745,8.29729614 C115.201713,8.29729614 115.093362,8.34064378 115.031692,8.42776824 C114.969165,8.51446352 114.93833,8.68527897 114.93833,8.93978541 Z M114.93833,5.35437768 C114.93833,5.5844206 114.972591,5.75008584 115.040685,5.85266094 C115.108779,5.95523605 115.214133,6.00630901 115.356745,6.00630901 C115.511349,6.00630901 115.620128,5.95824034 115.681799,5.862103 C115.743897,5.76596567 115.774732,5.59643777 115.774732,5.35437768 L115.774732,2.74708155 C115.774732,2.51103004 115.742184,2.34064378 115.677516,2.23506438 C115.611991,2.12948498 115.505353,2.07669528 115.356745,2.07669528 C115.208137,2.07669528 115.101071,2.12347639 115.036403,2.21618026 C114.970878,2.3093133 114.93833,2.48656652 114.93833,2.74708155 L114.93833,5.35437768 Z M113.516916,7.18914163 C113.089507,7.10201717 112.781156,6.88957082 112.591863,6.55137339 C112.402998,6.21274678 112.308779,5.69300429 112.308779,4.99128755 L112.308779,3.11017167 C112.308779,1.73849785 112.499358,0.880128755 112.880086,0.535493562 C113.261242,0.190858369 114.098929,0.0187553648 115.393576,0.0187553648 C116.663383,0.0187553648 117.486081,0.200300429 117.860814,0.563390558 C118.235546,0.926480687 118.423126,1.77583691 118.423126,3.11017167 L118.423126,4.99128755 C118.423126,5.68055794 118.32848,6.19429185 118.140043,6.53248927 C117.950749,6.87111588 117.6394,7.08957082 117.205996,7.18914163 C117.65182,7.33806867 117.966167,7.58012876 118.149036,7.91532189 C118.331906,8.25094421 118.423126,8.77841202 118.423126,9.49858369 L118.423126,12.562103 C118.423126,13.9217597 118.233833,14.7771245 117.856103,15.1273391 C117.478373,15.478412 116.632548,15.6539485 115.319486,15.6539485 C114.068094,15.6539485 113.253105,15.4771245 112.875803,15.1230472 C112.497645,14.7693991 112.308779,13.9157511 112.308779,12.562103 L112.308779,9.49858369 C112.308779,8.76596567 112.398287,8.23206009 112.578158,7.89686695 C112.75803,7.56167382 113.071092,7.32562232 113.516916,7.18914163 Z" id="Fill-15" fill="#FEFEFE"></path>
                        <path d="M122.297901,2.11390558 L122.297901,6.84437768 C122.328737,6.84437768 122.370707,6.84781116 122.423383,6.85381974 C122.475632,6.86025751 122.511606,6.8632618 122.530021,6.8632618 C122.765567,6.8632618 122.924882,6.80875536 123.008394,6.70017167 C123.091906,6.59158798 123.133876,6.37914163 123.133876,6.06240343 L123.133876,3.09158798 C123.133876,2.62592275 123.090621,2.34652361 123.003683,2.25381974 C122.917173,2.16025751 122.7403,2.11390558 122.474347,2.11390558 L122.297901,2.11390558 Z M119.658929,0.093304721 L122.892762,0.093304721 C124.044797,0.093304721 124.811392,0.287296137 125.192548,0.67527897 C125.573276,1.0632618 125.763854,1.91819742 125.763854,3.24051502 L125.763854,5.26154506 C125.763854,6.13064378 125.675632,6.74223176 125.499186,7.09587983 C125.322313,7.44995708 125.010964,7.72892704 124.565139,7.93407725 C124.998972,8.10188841 125.306895,8.36111588 125.489764,8.71175966 C125.672206,9.06240343 125.763854,9.59759657 125.763854,10.3177682 L125.763854,15.5795708 L123.133876,15.5795708 L123.133876,9.84309013 C123.133876,9.58858369 123.08591,9.40703863 122.989979,9.29845494 C122.894047,9.18987124 122.734732,9.13536481 122.511606,9.13536481 C122.486338,9.13536481 122.450792,9.1383691 122.40454,9.14480687 C122.358287,9.15081545 122.322741,9.15381974 122.297901,9.15381974 L122.297901,15.5795708 L119.658929,15.5795708 L119.658929,0.093304721 Z" id="Fill-17" fill="#FEFEFE"></path>
                        <mask id="mask-2" fill="white">
                            <use xlink:href="#path-1"></use>
                        </mask>
                        <g id="Clip-20"></g>
                        <polygon id="Fill-19" fill="#FEFEFE" mask="url(#mask-2)" points="127.064668 15.5793991 129.70364 15.5793991 129.70364 0.0931330472 127.064668 0.0931330472"></polygon>
                        <path d="M137.034989,3.09175966 L137.034989,5.42909871 L134.405439,5.42909871 L134.405439,2.70978541 C134.405439,2.47416309 134.371178,2.30635193 134.303084,2.20678112 C134.234989,2.10806867 134.123212,2.05785408 133.968608,2.05785408 C133.831991,2.05785408 133.734775,2.10635193 133.676103,2.20248927 C133.61743,2.29862661 133.587452,2.46772532 133.587452,2.70978541 L133.587452,5.11236052 C133.587452,5.39175966 133.628137,5.59218884 133.708223,5.71321888 C133.789165,5.83424893 133.946767,5.96300429 134.182313,6.09948498 L135.799015,7.03081545 C136.239272,7.28532189 136.554904,7.5848927 136.747195,7.9295279 C136.939058,8.27416309 137.034989,8.75656652 137.034989,9.37759657 L137.034989,12.608927 C137.034989,13.9870386 136.855546,14.8454077 136.496231,15.1836052 C136.136916,15.5218026 135.294518,15.6913305 133.968608,15.6913305 C132.673533,15.6913305 131.84227,15.5127897 131.473961,15.1557082 C131.104797,14.7986266 130.921071,13.9496996 130.921071,12.608927 L130.921071,9.19133047 L133.587452,9.19133047 L133.587452,12.9625751 C133.587452,13.1986266 133.623426,13.3694421 133.694518,13.4750215 C133.76561,13.5806009 133.875675,13.6329614 134.024711,13.6329614 C134.160471,13.6329614 134.258544,13.5818884 134.317216,13.4797425 C134.375889,13.3771674 134.405439,13.2046352 134.405439,12.9625751 L134.405439,9.6848927 C134.405439,9.40549356 134.36818,9.20978541 134.29409,9.09819742 C134.219572,8.98618026 134.06197,8.85914163 133.82,8.71622318 L132.119358,7.72008584 C131.691949,7.47158798 131.385739,7.16729614 131.199443,6.8072103 C131.013576,6.44712446 130.921071,5.94454936 130.921071,5.29862661 L130.921071,3.09175966 C130.921071,1.75055794 131.103512,0.900343348 131.469251,0.540257511 C131.834561,0.180171674 132.673533,-8.58369099e-05 133.987452,-8.58369099e-05 C135.28167,-8.58369099e-05 136.11379,0.172446352 136.482099,0.516652361 C136.850835,0.861287554 137.034989,1.71965665 137.034989,3.09175966" id="Fill-21" fill="#FEFEFE" mask="url(#mask-2)"></path>
                        <polygon id="Fill-22" fill="#FEFEFE" mask="url(#mask-2)" points="138.289936 15.5793991 140.928908 15.5793991 140.928908 0.0931330472 138.289936 0.0931330472"></polygon>
                        <polygon id="Fill-23" fill="#FEFEFE" mask="url(#mask-2)" points="142.267024 0.0930901288 144.627195 0.0930901288 146.067452 7.81283262 146.188223 7.81283262 146.14197 0.0930901288 148.427623 0.0930901288 148.427623 15.5793562 146.085867 15.5793562 144.627195 7.64545064 144.506424 7.64545064 144.562099 15.5793562 142.267024 15.5793562"></polygon>
                        <path d="M149.700642,3.11038627 C149.700642,1.73828326 149.889079,0.876909871 150.267238,0.526266094 C150.644968,0.175622318 151.490792,8.58369099e-05 152.804283,8.58369099e-05 C154.092505,8.58369099e-05 154.922484,0.180343348 155.294647,0.54 C155.666381,0.900515021 155.85182,1.75716738 155.85182,3.11038627 L155.85182,5.39193133 L153.203854,5.39193133 L153.203854,2.72841202 C153.203854,2.46188841 153.171306,2.28334764 153.10621,2.19321888 C153.041113,2.10309013 152.928051,2.05802575 152.767024,2.05802575 C152.611991,2.05802575 152.500642,2.10480687 152.432548,2.19793991 C152.364454,2.29064378 152.330193,2.467897 152.330193,2.72841202 L152.330193,12.9627468 C152.330193,13.2048069 152.366167,13.3739056 152.437259,13.4704721 C152.508351,13.5661803 152.624411,13.6146781 152.785439,13.6146781 C152.940043,13.6146781 153.048822,13.5696137 153.110921,13.479485 C153.172591,13.3897854 153.203854,13.2172532 153.203854,12.9627468 L153.203854,9.59150215 L152.804283,9.59150215 L152.804283,7.55244635 L155.85182,7.55244635 L155.85182,15.579485 L154.746039,15.579485 L154.309636,14.6854936 C154.030407,15.0580258 153.724197,15.3185408 153.389293,15.4674678 C153.054818,15.616824 152.605567,15.691073 152.042398,15.691073 C151.205996,15.691073 150.606424,15.4893562 150.24454,15.0854936 C149.881799,14.6824893 149.700642,13.9962232 149.700642,13.0275536 L149.700642,3.11038627 Z" id="Fill-24" fill="#FEFEFE" mask="url(#mask-2)"></path>
                        <path d="M99.2686081,2.1432618 L88.4429122,12.9921888" id="Stroke-25" stroke="#FEFEFE" stroke-width="0.5" mask="url(#mask-2)"></path>
                        <path d="M99.2686081,12.9923176 L88.4429122,2.14339056" id="Stroke-26" stroke="#FEFEFE" stroke-width="0.5" mask="url(#mask-2)"></path>
                        <path d="M88.4672377,29.4563948 C89.1104925,29.4563948 89.1104925,28.9958798 89.1104925,28.8113305 C89.1104925,28.4087554 88.8865096,28.2418026 88.3520343,28.2418026 L87.6689507,28.2418026 L87.6689507,29.4563948 L88.4672377,29.4563948 Z M87.6689507,31.6611159 L86.8072805,31.6611159 L86.8072805,27.5280687 L88.6912206,27.5280687 C89.4899358,27.5280687 89.9721627,28.0400858 89.9721627,28.852103 C89.9721627,29.2259227 89.7653105,30.1701288 88.656531,30.1701288 L87.6689507,30.1701288 L87.6689507,31.6611159 Z" id="Fill-27" fill="#FEFEFE" mask="url(#mask-2)"></path>
                        <path d="M92.4934904,29.3470386 C92.9414561,29.3470386 93.1598715,29.1916738 93.1598715,28.7830901 C93.1598715,28.564206 93.062227,28.2418884 92.5564454,28.2418884 L91.4827837,28.2418884 L91.4827837,29.3470386 L92.4934904,29.3470386 Z M90.6382441,27.5281545 L92.7230407,27.5281545 C93.8206852,27.5281545 94.0211135,28.3393133 94.0211135,28.6963948 C94.0211135,29.1513305 93.7915632,29.5427468 93.3838544,29.680515 C93.7226124,29.8303004 93.9067666,29.9573391 93.9067666,30.7285837 C93.9067666,31.3328755 93.9067666,31.4826609 94.0904925,31.5517597 L94.0904925,31.6612017 L93.1367452,31.6612017 C93.0793576,31.4654936 93.0450964,31.2521888 93.0450964,30.8264378 C93.0450964,30.2624893 93.0104069,30.0436052 92.3731478,30.0436052 L91.4827837,30.0436052 L91.4827837,31.6612017 L90.6382441,31.6612017 L90.6382441,27.5281545 Z" id="Fill-28" fill="#FEFEFE" mask="url(#mask-2)"></path>
                        <polygon id="Fill-29" fill="#FEFEFE" mask="url(#mask-2)" points="97.8181585 28.25897 95.6292934 28.25897 95.6292934 29.1280687 97.64 29.1280687 97.64 29.8593991 95.6292934 29.8593991 95.6292934 30.9302146 97.915803 30.9302146 97.915803 31.6611159 94.7847537 31.6611159 94.7847537 27.5280687 97.8181585 27.5280687"></polygon>
                        <path d="M99.2309636,30.38897 C99.2369593,30.6190129 99.3517345,31.0567811 100.104197,31.0567811 C100.511906,31.0567811 100.965867,30.9584979 100.965867,30.521588 C100.965867,30.1988412 100.655803,30.1121459 100.2194,30.0087124 L99.7765739,29.905279 C99.110621,29.7499142 98.4673662,29.6001288 98.4673662,28.6906867 C98.4673662,28.2301717 98.7140471,27.4185837 100.052377,27.4185837 C101.316188,27.4185837 101.654946,28.2477682 101.660942,28.7537768 L100.833533,28.7537768 C100.810407,28.5700858 100.741884,28.1323176 99.9894218,28.1323176 C99.6617987,28.1323176 99.2716488,28.2529185 99.2716488,28.6275966 C99.2716488,28.949485 99.5354604,29.0190129 99.7076231,29.058927 L100.713191,29.3069957 C101.275931,29.4447639 101.792848,29.6752361 101.792848,30.4172961 C101.792848,31.661073 100.529036,31.770515 100.16758,31.770515 C98.6626552,31.770515 98.4039829,30.9009871 98.4039829,30.38897 L99.2309636,30.38897 Z" id="Fill-30" fill="#FEFEFE" mask="url(#mask-2)"></path>
                        <polygon id="Fill-31" fill="#FEFEFE" mask="url(#mask-2)" points="105.480514 28.25897 103.292077 28.25897 103.292077 29.1280687 105.302355 29.1280687 105.302355 29.8593991 103.292077 29.8593991 103.292077 30.9302146 105.578158 30.9302146 105.578158 31.6611159 102.447537 31.6611159 102.447537 27.5280687 105.480514 27.5280687"></polygon>
                        <polygon id="Fill-32" fill="#FEFEFE" mask="url(#mask-2)" points="108.794133 27.5280258 109.598415 27.5280258 109.598415 31.661073 108.736745 31.661073 107.05409 28.7138627 107.042099 28.7138627 107.042099 31.661073 106.238244 31.661073 106.238244 27.5280258 107.145739 27.5280258 108.782998 30.4061373 108.794133 30.4061373"></polygon>
                        <polygon id="Fill-33" fill="#FEFEFE" mask="url(#mask-2)" points="112.177216 31.66103 111.315546 31.66103 111.315546 28.2588841 110.068865 28.2588841 110.068865 27.5279828 113.423469 27.5279828 113.423469 28.2588841 112.177216 28.2588841"></polygon>
                        <path d="M53.5326338,99.7093991 C37.8928051,99.7093991 25.1681799,86.9566094 25.1681799,71.2793562 C25.1681799,55.6059657 37.8928051,42.8536052 53.5326338,42.8536052 L53.5326338,53.7162661 C43.868394,53.7162661 36.0067238,61.5956652 36.0067238,71.2793562 C36.0067238,80.9639056 43.868394,88.8458798 53.5326338,88.8458798 L53.5326338,99.7093991 Z" id="Fill-34" fill="#EC1D24" mask="url(#mask-2)"></path>
                        <path d="M199.868737,99.7093991 C184.229336,99.7093991 171.500857,86.9566094 171.500857,71.2793562 C171.500857,55.6059657 184.229336,42.8536052 199.868737,42.8536052 L199.868737,53.7162661 C190.205353,53.7162661 182.342398,61.5956652 182.342398,71.2793562 C182.342398,80.9639056 190.205353,88.8458798 199.868737,88.8458798 L199.868737,99.7093991 Z" id="Fill-35" fill="#EC1D24" mask="url(#mask-2)"></path>
                        <path d="M164.01743,71.280515 L153.17803,71.280515 C153.17803,61.5963948 145.315931,53.7161373 135.64955,53.7161373 C125.98531,53.7161373 118.124925,61.5963948 118.124925,71.280515 L107.28424,71.280515 C107.28424,55.6062661 120.009722,42.8539056 135.64955,42.8539056 C151.292377,42.8539056 164.01743,55.6062661 164.01743,71.280515" id="Fill-36" fill="#EC1D24" mask="url(#mask-2)"></path>
                        <polygon id="Fill-37" fill="#EC1D24" mask="url(#mask-2)" points="0 71.2806867 10.8394004 71.2806867 10.8394004 43.0051502 0 43.0051502"></polygon>
                        <polygon id="Fill-38" fill="#EC1D24" mask="url(#mask-2)" points="79.6077088 99.6596567 90.4475375 99.6596567 90.4475375 71.2806867 79.6077088 71.2806867"></polygon>
                        <polygon id="Fill-39" fill="#58585B" mask="url(#mask-2)" points="108.143469 81.1167382 108.791006 81.1167382 108.791006 75.4463519 108.143469 75.4463519"></polygon>
                        <polygon id="Fill-40" fill="#58585B" mask="url(#mask-2)" points="115.027837 81.1174249 111.633833 76.5637768 111.633833 81.1174249 110.988437 81.1174249 110.988437 75.4453219 111.659101 75.4453219 115.052248 80.0066953 115.052248 75.4453219 115.689079 75.4453219 115.689079 81.1174249"></polygon>
                        <path d="M120.182912,75.4453648 C121.831734,75.4453648 123.090835,76.6681116 123.090835,78.2814163 C123.090835,79.8938627 121.822313,81.1174678 120.159786,81.1174678 L117.898544,81.1174678 L117.898544,75.4453648 L120.182912,75.4453648 Z M118.543084,80.501588 L120.191478,80.501588 C121.451435,80.501588 122.436445,79.5526609 122.436445,78.2904292 C122.436445,77.0157511 121.436017,76.0693991 120.167495,76.0693991 L118.543084,76.0693991 L118.543084,80.501588 Z" id="Fill-41" fill="#58585B" mask="url(#mask-2)"></path>
                        <path d="M130.007537,78.281588 C130.007537,79.8781545 128.697901,81.1493991 127.052077,81.1493991 C125.39469,81.1493991 124.088051,79.8781545 124.088051,78.281588 C124.088051,76.6777253 125.39469,75.4279399 127.052077,75.4279399 C128.697901,75.4279399 130.007537,76.6850215 130.007537,78.281588 M124.741156,78.281588 C124.741156,79.5287983 125.79212,80.525794 127.052077,80.525794 C128.311606,80.525794 129.343726,79.5287983 129.343726,78.281588 C129.343726,77.0326609 128.311606,76.0446781 127.052077,76.0446781 C125.79212,76.0446781 124.741156,77.0326609 124.741156,78.281588" id="Fill-42" fill="#58585B" mask="url(#mask-2)"></path>
                        <polygon id="Fill-43" fill="#58585B" mask="url(#mask-2)" points="135.712163 81.1174249 132.321585 76.5637768 132.321585 81.1174249 131.672762 81.1174249 131.672762 75.4453219 132.344711 75.4453219 135.736146 80.0066953 135.736146 75.4453219 136.375118 75.4453219 136.375118 81.1174249"></polygon>
                        <polygon id="Fill-44" fill="#58585B" mask="url(#mask-2)" points="139.229036 76.0694421 139.229036 77.9325322 142.080857 77.9325322 142.080857 78.5565665 139.229036 78.5565665 139.229036 80.5016309 142.524111 80.5016309 142.524111 81.1175107 138.584069 81.1175107 138.584069 75.4454077 142.420043 75.4454077 142.420043 76.0694421"></polygon>
                        <path d="M147.801456,75.9470815 L147.52651,76.5548069 C147.018158,76.2148927 146.4203,76.0779828 145.96848,76.0779828 C145.240428,76.0779828 144.763769,76.3543777 144.763769,76.8307725 C144.763769,78.2891416 147.946638,77.5286266 147.940642,79.5869957 C147.940642,80.5329185 147.107238,81.1419313 145.896103,81.1419313 C145.071692,81.1419313 144.263126,80.7848498 143.729936,80.2741202 L144.021585,79.6895708 C144.54621,80.2020172 145.266552,80.4934335 145.90424,80.4934335 C146.720086,80.4934335 147.228437,80.1612446 147.228437,79.6170386 C147.237859,78.1273391 144.055418,78.9217597 144.055418,76.8874249 C144.055418,75.9955794 144.838287,75.4204721 146.009165,75.4204721 C146.662698,75.4204721 147.332934,75.6316309 147.801456,75.9470815" id="Fill-45" fill="#58585B" mask="url(#mask-2)"></path>
                        <polygon id="Fill-46" fill="#58585B" mask="url(#mask-2)" points="149.750749 81.1167382 150.397002 81.1167382 150.397002 75.4463519 149.750749 75.4463519"></polygon>
                        <path d="M153.088266,79.6827468 L152.457002,81.1175107 L151.772634,81.1175107 L154.307537,75.4454077 L154.977773,75.4454077 L157.505824,81.1175107 L156.803041,81.1175107 L156.17349,79.6827468 L153.088266,79.6827468 Z M154.621884,76.183176 L153.363212,79.0587124 L155.898116,79.0587124 L154.621884,76.183176 Z" id="Fill-47" fill="#58585B" mask="url(#mask-2)"></path>
                        <path d="M112.625953,85.5111159 L112.239657,86.0038197 C111.802827,85.5587554 111.190407,85.2909442 110.567709,85.2909442 C109.290621,85.2909442 108.264069,86.2793562 108.264069,87.5287124 C108.264069,88.7686266 109.290621,89.7647639 110.567709,89.7647639 C111.190407,89.7647639 111.795118,89.5051073 112.239657,89.0840773 L112.633662,89.5287124 C112.07863,90.0561803 111.318887,90.4029614 110.536445,90.4029614 C108.903897,90.4029614 107.610964,89.1325751 107.610964,87.5287124 C107.610964,85.9403004 108.919743,84.6840773 110.559143,84.6840773 C111.334304,84.6840773 112.08591,84.9995279 112.625953,85.5111159" id="Fill-48" fill="#58585B" mask="url(#mask-2)"></path>
                        <path d="M116.813276,88.565279 C116.692934,88.5738627 116.564026,88.5811588 116.433405,88.5811588 L114.931049,88.5811588 L114.931049,90.3725751 L114.285653,90.3725751 L114.285653,84.6996137 L116.433405,84.6996137 C117.846681,84.6996137 118.663383,85.3961803 118.663383,86.6034764 C118.663383,87.5451073 118.210278,88.1772961 117.394433,88.4446781 L118.719486,90.3725751 L117.984154,90.3725751 L116.813276,88.565279 Z M116.433405,87.9579828 C117.459957,87.9579828 118.041542,87.5017597 118.041542,86.621073 C118.041542,85.7627039 117.459957,85.3236481 116.433405,85.3236481 L114.931049,85.3236481 L114.931049,87.9579828 L116.433405,87.9579828 Z" id="Fill-49" fill="#58585B" mask="url(#mask-2)"></path>
                        <polygon id="Fill-50" fill="#58585B" mask="url(#mask-2)" points="121.257345 85.3250215 121.257345 87.1885408 124.111306 87.1885408 124.111306 87.8121459 121.257345 87.8121459 121.257345 89.7563519 124.552848 89.7563519 124.552848 90.3726609 120.611092 90.3726609 120.611092 84.6996996 124.448779 84.6996996 124.448779 85.3250215"></polygon>
                        <path d="M126.851135,88.9387124 L126.2203,90.372618 L125.534647,90.372618 L128.069979,84.6996567 L128.741071,84.6996567 L131.267837,90.372618 L130.566338,90.372618 L129.935931,88.9387124 L126.851135,88.9387124 Z M128.384325,85.4387124 L127.125653,88.3138197 L129.661413,88.3138197 L128.384325,85.4387124 Z" id="Fill-51" fill="#58585B" mask="url(#mask-2)"></path>
                        <polygon id="Fill-52" fill="#58585B" mask="url(#mask-2)" points="133.840171 85.3250215 133.840171 90.3726609 133.194347 90.3726609 133.194347 85.3250215 131.353662 85.3250215 131.353662 84.6996996 135.689422 84.6996996 135.689422 85.3250215"></polygon>
                        <polygon id="Fill-53" fill="#58585B" mask="url(#mask-2)" points="137.112634 90.3725322 137.759315 90.3725322 137.759315 84.6995708 137.112634 84.6995708"></polygon>
                        <polygon id="Fill-54" fill="#58585B" mask="url(#mask-2)" points="141.442698 90.3725322 139.150621 84.6995708 139.844411 84.6995708 141.79045 89.6184549 143.744625 84.6995708 144.422998 84.6995708 142.115075 90.3725322"></polygon>
                        <polygon id="Fill-55" fill="#58585B" mask="url(#mask-2)" points="146.462698 85.3250215 146.462698 87.1885408 149.31409 87.1885408 149.31409 87.8121459 146.462698 87.8121459 146.462698 89.7563519 149.757345 89.7563519 149.757345 90.3726609 145.815589 90.3726609 145.815589 84.6996996 149.65242 84.6996996 149.65242 85.3250215"></polygon>
                        <polygon id="Fill-56" fill="#58585B" mask="url(#mask-2)" points="108.143469 99.627897 108.791006 99.627897 108.791006 93.9540773 108.143469 93.9540773"></polygon>
                        <polygon id="Fill-57" fill="#58585B" mask="url(#mask-2)" points="115.027837 99.6280687 111.633833 95.0744206 111.633833 99.6280687 110.988437 99.6280687 110.988437 93.9542489 111.659101 93.9542489 115.052248 98.5169099 115.052248 93.9542489 115.689079 93.9542489 115.689079 99.6280687"></polygon>
                        <path d="M122.3803,94.7662232 L121.991863,95.2593562 C121.555032,94.8138627 120.943469,94.5460515 120.320771,94.5460515 C119.044111,94.5460515 118.018844,95.5344635 118.018844,96.782103 C118.018844,98.0233047 119.044111,99.0198712 120.320771,99.0198712 C120.943469,99.0198712 121.548608,98.7602146 121.991863,98.3391845 L122.388865,98.7846781 C121.831692,99.3117167 121.070664,99.6584979 120.287366,99.6584979 C118.656103,99.6584979 117.36531,98.3863948 117.36531,96.782103 C117.36531,95.1941202 118.672377,93.9396137 120.312206,93.9396137 C121.086938,93.9396137 121.838544,94.2537768 122.3803,94.7662232" id="Fill-58" fill="#58585B" mask="url(#mask-2)"></path>
                        <path d="M129.288608,96.7927039 C129.288608,98.3875536 127.978544,99.6596567 126.333148,99.6596567 C124.675332,99.6596567 123.367837,98.3875536 123.367837,96.7927039 C123.367837,95.1871245 124.675332,93.9386266 126.333148,93.9386266 C127.978544,93.9386266 129.288608,95.1944206 129.288608,96.7927039 M124.023084,96.7927039 C124.023084,98.039485 125.070621,99.0351931 126.333148,99.0351931 C127.59182,99.0351931 128.625653,98.039485 128.625653,96.7927039 C128.625653,95.5424893 127.59182,94.555794 126.333148,94.555794 C125.070621,94.555794 124.023084,95.5424893 124.023084,96.7927039" id="Fill-59" fill="#58585B" mask="url(#mask-2)"></path>
                        <path d="M133.482141,97.8191416 C133.363084,97.8290129 133.233319,97.8375966 133.104839,97.8375966 L131.601627,97.8375966 L131.601627,99.6281545 L130.955803,99.6281545 L130.955803,93.9543348 L133.104839,93.9543348 C134.516831,93.9543348 135.33439,94.6517597 135.33439,95.8586266 C135.33439,96.7993991 134.881713,97.431588 134.062869,97.6993991 L135.389636,99.6281545 L134.653448,99.6281545 L133.482141,97.8191416 Z M133.104839,97.2122747 C134.129251,97.2122747 134.711692,96.7573391 134.711692,95.8762232 C134.711692,95.0178541 134.129251,94.5800858 133.104839,94.5800858 L131.601627,94.5800858 L131.601627,97.2122747 L133.104839,97.2122747 Z" id="Fill-60" fill="#58585B" mask="url(#mask-2)"></path>
                        <path d="M139.405953,93.9543777 C140.805525,93.9543777 141.611949,94.6518026 141.611949,95.8586695 C141.611949,97.1157511 140.805525,97.8376395 139.405953,97.8376395 L137.926724,97.8376395 L137.926724,99.6281974 L137.282184,99.6281974 L137.282184,93.9543777 L139.405953,93.9543777 Z M137.926724,97.2123176 L139.383255,97.2123176 C140.400814,97.2123176 140.990535,96.757382 140.990535,95.8762661 C140.990535,95.017897 140.400814,94.5801288 139.383255,94.5801288 L137.926724,94.5801288 L137.926724,97.2123176 Z" id="Fill-61" fill="#58585B" mask="url(#mask-2)"></path>
                        <path d="M148.5597,96.7927039 C148.5597,98.3875536 147.250921,99.6596567 145.605096,99.6596567 C143.948137,99.6596567 142.639786,98.3875536 142.639786,96.7927039 C142.639786,95.1871245 143.948137,93.9386266 145.605096,93.9386266 C147.250921,93.9386266 148.5597,95.1944206 148.5597,96.7927039 M143.295032,96.7927039 C143.295032,98.039485 144.342998,99.0351931 145.605096,99.0351931 C146.863769,99.0351931 147.897602,98.039485 147.897602,96.7927039 C147.897602,95.5424893 146.863769,94.555794 145.605096,94.555794 C144.342998,94.555794 143.295032,95.5424893 143.295032,96.7927039" id="Fill-62" fill="#58585B" mask="url(#mask-2)"></path>
                        <path d="M152.755375,97.8191416 C152.634604,97.8290129 152.505268,97.8375966 152.375931,97.8375966 L150.872719,97.8375966 L150.872719,99.6281545 L150.227323,99.6281545 L150.227323,93.9543348 L152.375931,93.9543348 C153.789208,93.9543348 154.605482,94.6517597 154.605482,95.8586266 C154.605482,96.7993991 154.151949,97.431588 153.336959,97.6993991 L154.662013,99.6281545 L153.926681,99.6281545 L152.755375,97.8191416 Z M152.375931,97.2122747 C153.401199,97.2122747 153.98364,96.7573391 153.98364,95.8762232 C153.98364,95.0178541 153.401199,94.5800858 152.375931,94.5800858 L150.872719,94.5800858 L150.872719,97.2122747 L152.375931,97.2122747 Z" id="Fill-63" fill="#58585B" mask="url(#mask-2)"></path>
                        <path d="M157.047623,98.1921459 L156.418073,99.6281974 L155.731563,99.6281974 L158.266467,93.9543777 L158.937987,93.9543777 L161.464754,99.6281974 L160.76454,99.6281974 L160.131563,98.1921459 L157.047623,98.1921459 Z M158.582955,94.6925751 L157.323426,97.56897 L159.857901,97.56897 L158.582955,94.6925751 Z" id="Fill-64" fill="#58585B" mask="url(#mask-2)"></path>
                        <polygon id="Fill-65" fill="#58585B" mask="url(#mask-2)" points="164.037088 94.5801288 164.037088 99.6281974 163.389979 99.6281974 163.389979 94.5801288 161.548437 94.5801288 161.548437 93.9543777 165.88591 93.9543777 165.88591 94.5801288"></polygon>
                        <polygon id="Fill-66" fill="#58585B" mask="url(#mask-2)" points="167.955032 94.5801288 167.955032 96.4427897 170.806852 96.4427897 170.806852 97.0659657 167.955032 97.0659657 167.955032 99.0114592 171.25182 99.0114592 171.25182 99.6281974 167.310064 99.6281974 167.310064 93.9543777 171.146039 93.9543777 171.146039 94.5801288"></polygon>
                        <path d="M175.3397,93.9543777 C176.990236,93.9543777 178.249336,95.1801288 178.249336,96.7925751 C178.249336,98.4045923 176.980385,99.6281974 175.316146,99.6281974 L173.05576,99.6281974 L173.05576,93.9543777 L175.3397,93.9543777 Z M173.701585,99.0114592 L175.350407,99.0114592 C176.608651,99.0114592 177.594946,98.0638197 177.594946,96.7994421 C177.594946,95.5269099 176.592377,94.5801288 175.325996,94.5801288 L173.701585,94.5801288 L173.701585,99.0114592 Z" id="Fill-67" fill="#58585B" mask="url(#mask-2)"></path>
                    </g>
                </g>
            </g>
        </g>
    </g>
</svg>