<?xml version="1.0" encoding="UTF-8"?>
<svg width="65px" height="37px" viewBox="0 0 65 37" version="1.1" xmlns="http://www.w3.org/2000/svg" xmlns:xlink="http://www.w3.org/1999/xlink">
    <!-- Generator: Sketch 52.6 (67491) - http://www.bohemiancoding.com/sketch -->
    <title>Group 7</title>
    <desc>Created with Sketch.</desc>
    <g id="Symbols" stroke="none" stroke-width="1" fill="none" fill-rule="evenodd">
        <g id="header" transform="translate(-1208.000000, -28.000000)" fill="#FEFEFE">
            <g id="Group-12" transform="translate(1130.000000, 14.000000)">
                <g id="Group-9">
                    <g id="Group-7" transform="translate(77.305263, 13.994489)">
                        <path d="M14.5746189,11.3934681 C14.5791663,9.95623404 13.4165558,8.80197872 11.9523032,8.78708511 C10.4986611,8.77219149 9.29512421,9.95325532 9.29512421,11.3934681 C9.29512421,12.8202766 10.4819874,13.9864468 11.9341137,13.9864468 C13.3892716,13.9864468 14.5700716,12.826234 14.5746189,11.3934681 Z M14.5746189,26.229 C14.5715874,24.7947447 13.3877558,23.6345319 11.9325979,23.6375106 C10.4668295,23.639 9.28754526,24.8111277 9.29512421,26.2572979 C9.30118737,27.6841064 10.5001768,28.8502766 11.9492716,28.8398511 C13.4029137,28.8279362 14.5776505,27.6587872 14.5746189,26.229 Z M12.2797137,0.969425532 C12.8238821,1.03793617 13.3725979,1.08112766 13.9107032,1.17793617 C17.9593768,1.8883617 21.3592926,5.07261702 22.2293558,9.02240426 C23.0372716,12.6892128 22.0974821,15.9002766 19.4933558,18.6421915 C19.4448505,18.6913404 19.3978611,18.7434681 19.3539032,18.7911277 C19.7328505,19.2409149 20.1284716,19.6624043 20.47104,20.122617 C24.9653558,26.1843191 21.6260716,34.801766 14.1699032,36.3804894 C13.6605979,36.4892128 13.1361347,36.5264468 12.6192505,36.5964468 C12.5055663,36.6128298 12.3933979,36.626234 12.2797137,36.642617 L11.5869979,36.642617 C11.0003874,36.5666596 10.4001347,36.5458085 9.82716632,36.4102766 C5.49655579,35.3811277 2.74691368,32.7524043 1.63280842,28.5032553 C1.49790316,27.9864468 1.45242947,27.4428298 1.36602947,26.9141064 L1.36602947,25.5543191 C1.38118737,25.4783617 1.40544,25.4038936 1.41150316,25.3279362 C1.64038737,22.8824043 2.64080842,20.7809149 4.35819789,19.002617 C4.42186105,18.9355957 4.48400842,18.8670851 4.54767158,18.7955957 C4.49310316,18.7375106 4.45824,18.6972979 4.42186105,18.6600638 C2.99095579,17.2272979 2.04510316,15.5338936 1.61310316,13.5709149 C1.50245053,13.0734681 1.44636632,12.562617 1.36602947,12.0577234 L1.36602947,10.6458085 C1.38118737,10.5981489 1.40544,10.5504894 1.40847158,10.4998511 C1.58733474,8.4296383 2.33007158,6.57240426 3.64577684,4.95048936 C5.28889263,2.92197872 7.40948211,1.65006383 10.0090611,1.17346809 C10.5304926,1.07665957 11.0610189,1.03644681 11.5869979,0.969425532 L12.2797137,0.969425532 Z" id="Fill-1"></path>
                        <path d="M65.2483705,17.9691489 C65.0422232,18.5217021 64.6344758,18.7168085 64.0478653,18.7078723 C62.4956968,18.6870213 60.9420126,18.7004255 59.3898442,18.7004255 C58.8471916,18.7019149 58.7456337,18.8031915 58.7456337,19.3468085 C58.7456337,23.73 58.7456337,28.1146809 58.7441179,32.5008511 C58.7441179,33.1487234 58.4258021,33.5955319 57.8573811,33.7355319 C57.7467284,33.7623404 57.6300126,33.7668085 57.5148126,33.7682979 C55.9444547,33.7697872 54.3740968,33.7712766 52.8052547,33.7682979 C52.0382653,33.7668085 51.5668547,33.2991489 51.5668547,32.5380851 C51.5653389,28.1370213 51.5668547,23.7344681 51.5668547,19.3334043 C51.5668547,18.8240426 51.4455916,18.7078723 50.9196126,18.7078723 C49.3583495,18.7078723 47.7970863,18.7019149 46.2358232,18.7108511 C45.7886653,18.7138298 45.4309389,18.5842553 45.2247916,18.1776596 C45.0171284,17.7695745 45.1308126,17.4091489 45.3991074,17.0621277 C48.3821811,13.2151064 51.3607074,9.36510638 54.3422653,5.51808511 C54.8318653,4.88510638 55.5397389,4.88212766 56.0293389,5.51510638 C59.0108968,9.36212766 61.9909389,13.2106383 64.9694653,17.0606383 C65.0755705,17.1961702 65.1559074,17.3525532 65.2483705,17.4985106 L65.2483705,17.9691489 Z" id="Fill-3"></path>
                        <path d="M36.7836632,26.2333191 C36.7821474,24.7975745 35.6058947,23.6403404 34.1461895,23.6373617 C32.6864842,23.6328936 31.4920421,24.8139574 31.4996211,26.2541702 C31.5072,27.678 32.7046737,28.8471489 34.1522526,28.8397021 C35.6043789,28.8322553 36.7851789,27.6631064 36.7836632,26.2333191 M36.7836632,11.3933191 C36.7897263,9.95608511 35.6225684,8.80034043 34.1568,8.78693617 C32.7077053,8.77502128 31.5087158,9.93970213 31.4996211,11.3665106 C31.4905263,12.805234 32.6819368,13.9877872 34.1431579,13.9862979 C35.5998316,13.9862979 36.7776,12.8290638 36.7836632,11.3933191 M26.7567158,18.8028936 C24.5466947,16.5777872 23.4371368,13.9326809 23.5978105,10.8303404 C23.7433263,8.00204255 24.9241263,5.62502128 27.0371368,3.70076596 C31.0054737,0.0860851064 37.3081263,0.121829787 41.3037474,3.73651064 C45.6980211,7.71012766 45.9375158,14.6594894 41.5538526,18.8162979 C43.9215158,21.221617 45.0068211,24.0871489 44.6324211,27.4277872 C44.3429053,30.0162979 43.1757474,32.1982128 41.2052211,33.9392766 C37.1565474,37.515234 31.1024842,37.515234 27.072,33.9273617 C24.8240842,31.9256596 23.6448,29.4041702 23.5841684,26.4224681 C23.5250526,23.4511915 24.6376421,20.9192766 26.7567158,18.8028936" id="Fill-5"></path>
                    </g>
                </g>
            </g>
        </g>
    </g>
</svg>