<svg xmlns="http://www.w3.org/2000/svg" xmlns:xlink="http://www.w3.org/1999/xlink" width="44" height="12" viewBox="0 0 44 12">
    <defs>
        <path id="a" d="M.072.624h6.81V10H.072z"/>
        <path id="c" d="M0 .353h7.672v9.353H0z"/>
    </defs>
    <g fill="none" fill-rule="evenodd">
        <g transform="translate(37 2)">
            <mask id="b" fill="#fff">
                <use xlink:href="#a"/>
            </mask>
            <path fill="#FEFEFE" d="M6.38.643c-.314 0-1.15-.015-1.49-.017-.272-.002-.56.185-.677.605-.203.73-1.552 4.34-1.571 4.378a.206.206 0 0 1-.222.11c-.095-.009-.174-.116-.174-.22 0-.061.107-3.822.103-4.383 0-.272-.205-.492-.458-.49C1.61.628.81.62.53.626.403.628.053.732.073 1.188.12 1.96.03 5.79.11 6.456c.071.603.253 1.092.774 1.306.177.072.174.05.403.095.145.026.18.214.132.321-.162.365-.309.72-.44 1.035-.039.1-.075.18-.075.286 0 .271.224.48.477.48.007 0 1.049.03 1.37.019.18 0 .34-.072.511-.502.314-.79 3.392-7.568 3.568-8.103.158-.373-.058-.75-.45-.75" mask="url(#b)"/>
        </g>
        <path fill="#FEFEFE" d="M33.232 7.552c-.031.231-.025.477-.307.603-.15.067-.213.075-.608.081-.515.007-.814-.083-.867-.396a.45.45 0 0 1 .08-.375.508.508 0 0 1 .332-.197c.293-.024.808-.1 1.222.005.157.057.16.19.148.28m2.756-2.857c-.02-.496-.458-1.283-1.27-1.552-.644-.213-2.574-.136-3.05-.102-1.09.08-1.59.36-1.713 1.539-.04.39.159.67.557.657.301-.01.599-.093.9-.125.583-.063 1.168-.159 1.753-.154.406.003.502.218.427.644-.042.238-.137.237-.547.223-.735-.024-1.477-.048-2.207.023-.708.066-1.346.593-1.546 1.111-.182.478-.261.911-.29 1.42-.034.603.303 1.055.884 1.304.184.079.38.142.576.18.953.18 2.788.155 3.75.077.987-.124 1.137-.806 1.163-.95.065-.279.307-1.645.356-1.926.143-.812.316-1.537.257-2.369"/>
        <g>
            <mask id="d" fill="#fff">
                <use xlink:href="#c"/>
            </mask>
            <path fill="#FEFEFE" d="M5.67 6.372c-.154-.35-.114-.638.14-.92.427-.477 1.61-1.923 1.772-2.176.228-.355.003-.79-.433-.78-.441.012-1.109.02-1.55-.003-.316-.016-.533.193-.659.401-.104.175-.244.366-.361.533-.265.38-.508.78-.8 1.137-.086.107-.378.123-.566.16.023-.221.464-2.744.655-3.82.032-.18-.127-.55-.462-.55H1.949c-.326 0-.451.26-.48.42l-.146.844C.998 3.478.672 5.34.35 7.201.244 7.814.114 8.483.01 9.097a.49.49 0 0 0 .41.608c.323 0 1.173-.003 1.495 0 .321.001.442-.26.466-.41.095-.607.38-2.079.38-2.079s.209-.07.378-.12c.099-.028.212.023.26.16.141.4.421 1.286.54 1.678.131.427.29.772.73.77.348-.004 1.337.002 1.687.002.306 0 .633-.32.345-.9-.048-.1-.718-1.73-1.03-2.434" mask="url(#d)"/>
        </g>
        <path fill="#FEFEFE" d="M18.663 5.274c-.043.029-.051.079-.019.12.422.55.187 1.275-.274 1.612-.599.437-2.293.33-2.46.339-.122.006-.284-.003-.465 0-.4.007-.623.555-.266.834.222.173.476.384.816.613.911.612 1.467.96 1.709 1.132.27.191.526-.01.438-.254-.042-.117-.13-.284-.185-.396-.03-.062.019-.127.065-.127.35 0 .898-.056 1.416-.336.375-.201 1.097-.719 1.416-1.526.183-.463.239-1.03-.102-1.626-.394-.693-1.385-.87-2.089-.385M26.497 5.684c-.055.537-.15 1.073-.281 1.597-.093.375-.382.616-.79.636a4.275 4.275 0 0 1-.83-.021c-.289-.017-.45-.316-.418-.511.088-.545.175-1.072.285-1.613.093-.437.278-.68.835-.71.1-.005.504-.007.604 0 .39.03.633.243.595.622m1.44-2.508c-.96-.207-2.566-.218-3.533-.104-1.312.154-1.948.744-2.19 2.017-.29 1.533-.578 3.066-.863 4.6-.1.533-.267 1.193-.339 1.74-.003.014-.004.03-.006.046l-.002.011v.008c0 .012-.004.024-.004.037 0 .258.216.469.482.469.016 0 1.152.001 1.462-.006.266 0 .416-.18.454-.387.085-.384.191-1.034.257-1.42.028-.172.11-.247.293-.242.283.01 1.536.026 1.938-.021.993-.115 2.002-.698 2.473-1.778.385-.979.737-2.572.617-3.809-.017-.42-.129-.964-1.039-1.16M11.231 7.552c-.03.231-.024.477-.307.603-.15.067-.212.075-.606.081-.516.007-.815-.083-.867-.396a.45.45 0 0 1 .078-.375.508.508 0 0 1 .333-.197c.293-.024.807-.1 1.221.005.158.057.16.19.148.28m1.488-4.409c-.646-.213-2.575-.136-3.052-.102-1.089.08-1.588.36-1.711 1.539-.041.39.158.67.556.657.301-.01.599-.093.9-.125.583-.063 1.169-.159 1.753-.154.406.003.503.218.427.644-.042.238-.138.237-.548.223-.734-.024-1.476-.048-2.206.023-.708.066-1.346.593-1.546 1.111-.182.478-.26.911-.29 1.42-.034.603.303 1.055.884 1.304.184.079.38.142.576.18.953.18 2.787.155 3.75.077.987-.124 1.136-.806 1.164-.95.064-.279.305-1.645.355-1.926.142-.812.316-1.537.257-2.369-.021-.496-.458-1.283-1.27-1.552"/>
        <path fill="#FEFEFE" d="M17.337 6.726c.043-.03.051-.079.02-.12-.423-.55-.188-1.275.273-1.611.6-.438 2.293-.332 2.46-.34.123-.005.284.003.465 0 .4-.007.623-.556.266-.834-.223-.173-.476-.385-.816-.613-.911-.612-1.467-.961-1.709-1.132-.27-.191-.526.01-.438.254.042.116.13.284.185.396.03.062-.019.127-.064.127-.35 0-.899.055-1.418.335-.374.202-1.096.72-1.415 1.526-.183.464-.239 1.03.102 1.627.394.693 1.385.87 2.089.385"/>
    </g>
</svg>
